STARTFONT 2.1
COMMENT
COMMENT Converted from OpenType font "SourceSansPro-Light.otf" by "otf2bdf 3.0".
COMMENT
FONT -FreeType-Source Sans Pro Light-Medium-R-Normal--64-460-100-100-P-270-ISO10646-1
SIZE 46 100 100
FONTBOUNDINGBOX 167 80 -29 -19
STARTPROPERTIES 19
FOUNDRY "FreeType"
FAMILY_NAME "Source Sans Pro Light"
WEIGHT_NAME "Medium"
SLANT "R"
SETWIDTH_NAME "Normal"
ADD_STYLE_NAME ""
PIXEL_SIZE 64
POINT_SIZE 460
RESOLUTION_X 100
RESOLUTION_Y 100
SPACING "P"
AVERAGE_WIDTH 270
CHARSET_REGISTRY "ISO10646"
CHARSET_ENCODING "1"
FONT_ASCENT 62
FONT_DESCENT 17
COPYRIGHT "Copyright 2010, 2012, 2014 Adobe Systems Incorporated (http://www.adobe.com/), with Reserved Font Name Source."
_OTF_FONTFILE "SourceSansPro-Light.otf"
_OTF_PSNAME "SourceSansPro-Light"
ENDPROPERTIES
CHARS 1296
STARTCHAR 0020
ENCODING 32
SWIDTH 203 0
DWIDTH 13 0
BBX 0 0 0 0
BITMAP
ENDCHAR
STARTCHAR 0021
ENCODING 33
SWIDTH 266 0
DWIDTH 17 0
BBX 5 44 6 -1
BITMAP
70
70
70
70
70
70
70
70
70
70
70
70
70
70
70
70
70
70
60
60
60
60
60
60
60
60
60
60
60
60
60
60
00
00
00
00
00
00
70
F8
F8
F8
F8
70
ENDCHAR
STARTCHAR 0022
ENCODING 34
SWIDTH 360 0
DWIDTH 23 0
BBX 13 14 5 30
BITMAP
F078
F078
F078
F078
F078
E070
E070
6030
6030
6030
6030
6030
6030
6030
ENDCHAR
STARTCHAR 0023
ENCODING 35
SWIDTH 485 0
DWIDTH 31 0
BBX 27 42 2 0
BITMAP
00600600
00600600
00600600
00600E00
00E00C00
00E00C00
00C00C00
00C00C00
00C00C00
00C00C00
00C01C00
00C01C00
01C01800
3FFFFFE0
3FFFFFE0
01801800
01801800
01801800
01801800
01803800
01803800
03803000
03803000
03003000
03003000
03003000
FFFFFF80
FFFFFF80
03007000
07006000
07006000
06006000
06006000
06006000
06006000
06006000
0600E000
0E00E000
0E00C000
0C00C000
0C00C000
0C00C000
ENDCHAR
STARTCHAR 0024
ENCODING 36
SWIDTH 485 0
DWIDTH 31 0
BBX 23 55 4 -7
BITMAP
003800
003800
003800
003800
003800
003800
00FF00
03FFC0
07EFF0
0F00F8
1C003C
3C0018
380000
380000
300000
700000
700000
300000
380000
380000
3C0000
1E0000
0F0000
0F8000
03E000
01F800
007E00
001F80
0007C0
0003E0
0000F0
000078
00003C
00001C
00001C
00001E
00000E
00000E
00000E
00000E
00000E
00001C
40001C
E0001C
F80038
7E00F0
1FE7E0
07FFC0
01FE00
003800
003800
003800
003800
003800
003800
ENDCHAR
STARTCHAR 0025
ENCODING 37
SWIDTH 798 0
DWIDTH 51 0
BBX 46 44 3 -1
BITMAP
03F000006000
0FF80000E000
1C1E0000C000
380E0001C000
700700018000
700300038000
600380030000
E00380070000
E00180060000
C001800E0000
C001800C0000
C001C0180000
C001C0380000
C001C0300000
C001C0700000
C00180600000
C00180E00000
C00180C03F00
E00181C0FFC0
E0038181E1E0
6003838380E0
700703038070
700707070030
380E06070038
1E1C0E060018
0FF80C0E0018
03E0180E001C
0000380E001C
0000300C001C
0000700C001C
0000600C001C
0000E00C001C
0000C00C001C
0001C00E001C
0001800E001C
0003800E0018
0003000E0018
000700060038
000600070038
000E00030070
000C000380F0
00180001E1E0
00380000FFC0
003000003F00
ENDCHAR
STARTCHAR 0026
ENCODING 38
SWIDTH 579 0
DWIDTH 37 0
BBX 34 44 2 -1
BITMAP
000FC00000
003FE00000
0078F00000
00E0380000
01C0180000
01C01C0000
01801C0000
03801C0000
03801C0000
03801C0000
0380180000
0380380000
0380300000
0180700000
01C0E00000
01C1C00000
01C3800000
00EF000000
00FE000000
0078000000
00F0000000
01F8000380
03B8000380
071C000300
0E0E000700
1C0E000700
3807000600
3803800E00
7003C00E00
7001E01C00
E000E01C00
E000703800
E000383000
E0003C7000
E0001EE000
70000FE000
700007C000
780003E000
3C000FF000
1E001E7C00
1F007C3F00
07F7F80FC0
03FFE003C0
007F000080
ENDCHAR
STARTCHAR 0027
ENCODING 39
SWIDTH 219 0
DWIDTH 14 0
BBX 4 14 5 30
BITMAP
F0
F0
F0
F0
F0
E0
E0
60
60
60
60
60
60
60
ENDCHAR
STARTCHAR 0028
ENCODING 40
SWIDTH 281 0
DWIDTH 18 0
BBX 10 58 6 -11
BITMAP
0080
01C0
0180
0300
0300
0600
0600
0C00
0C00
1C00
1800
1800
3800
3000
3000
7000
7000
6000
6000
E000
E000
E000
E000
C000
C000
C000
C000
C000
C000
C000
C000
C000
C000
C000
C000
E000
E000
E000
E000
6000
6000
7000
7000
3000
3000
3800
1800
1800
1C00
0C00
0C00
0600
0600
0300
0300
0180
01C0
0080
ENDCHAR
STARTCHAR 0029
ENCODING 41
SWIDTH 281 0
DWIDTH 18 0
BBX 10 58 2 -11
BITMAP
4000
E000
6000
7000
3000
1800
1800
1C00
0C00
0E00
0600
0600
0700
0300
0300
0380
0380
0180
0180
0180
01C0
01C0
01C0
01C0
00C0
00C0
00C0
00C0
00C0
00C0
00C0
00C0
00C0
00C0
01C0
01C0
01C0
01C0
0180
0180
0180
0380
0380
0300
0300
0700
0600
0600
0E00
0C00
1C00
1800
1800
3000
7000
6000
E000
4000
ENDCHAR
STARTCHAR 002A
ENCODING 42
SWIDTH 391 0
DWIDTH 25 0
BBX 16 16 5 30
BITMAP
0180
0380
0380
0380
0380
C386
FFFF
7FFC
0FF0
07C0
0FE0
0EE0
1C70
3838
3818
1010
ENDCHAR
STARTCHAR 002B
ENCODING 43
SWIDTH 485 0
DWIDTH 31 0
BBX 26 28 2 7
BITMAP
000E0000
000E0000
000E0000
000E0000
000E0000
000E0000
000E0000
000E0000
000E0000
000E0000
000E0000
000E0000
000E0000
FFFFFFC0
FFFFFFC0
000E0000
000E0000
000E0000
000E0000
000E0000
000E0000
000E0000
000E0000
000E0000
000E0000
000E0000
000E0000
000E0000
ENDCHAR
STARTCHAR 002C
ENCODING 44
SWIDTH 219 0
DWIDTH 14 0
BBX 8 14 3 -10
BITMAP
3C
3E
3E
3F
1F
06
06
06
0E
0C
1C
38
F0
E0
ENDCHAR
STARTCHAR 002D
ENCODING 45
SWIDTH 297 0
DWIDTH 19 0
BBX 14 2 3 15
BITMAP
FFFC
FFFC
ENDCHAR
STARTCHAR 002E
ENCODING 46
SWIDTH 219 0
DWIDTH 14 0
BBX 6 6 4 -1
BITMAP
30
78
FC
FC
78
78
ENDCHAR
STARTCHAR 002F
ENCODING 47
SWIDTH 360 0
DWIDTH 23 0
BBX 21 56 1 -10
BITMAP
000018
000018
000038
000030
000030
000070
000060
000060
0000E0
0000C0
0000C0
0001C0
000180
000380
000380
000300
000700
000600
000600
000E00
000C00
000C00
001C00
001800
001800
003800
003000
003000
007000
006000
00E000
00E000
00C000
01C000
01C000
018000
038000
030000
030000
070000
060000
060000
0E0000
0C0000
0C0000
1C0000
180000
180000
380000
300000
700000
700000
600000
E00000
E00000
C00000
ENDCHAR
STARTCHAR 0030
ENCODING 48
SWIDTH 485 0
DWIDTH 31 0
BBX 24 43 3 -1
BITMAP
007F00
01FFC0
03F7E0
0780F0
0E0078
1E0038
1C001C
38001C
38000E
38000E
70000E
700007
700007
700007
600007
E00007
E00007
E00007
E00003
E00003
E00003
E00003
E00003
E00003
E00003
E00007
E00007
E00007
600007
700007
700007
700006
70000E
38000E
38000E
38001C
1C001C
1E0038
0F0078
0780F0
03F7E0
01FFC0
007E00
ENDCHAR
STARTCHAR 0031
ENCODING 49
SWIDTH 485 0
DWIDTH 31 0
BBX 22 41 5 0
BITMAP
003800
00F800
07F800
1FF800
003800
003800
003800
003800
003800
003800
003800
003800
003800
003800
003800
003800
003800
003800
003800
003800
003800
003800
003800
003800
003800
003800
003800
003800
003800
003800
003800
003800
003800
003800
003800
003800
003800
003800
003800
FFFFFC
FFFFFC
ENDCHAR
STARTCHAR 0032
ENCODING 50
SWIDTH 485 0
DWIDTH 31 0
BBX 25 42 3 0
BITMAP
00FE0000
07FFC000
1FCFE000
3E00F000
78007800
F0003800
E0001C00
40001C00
00001C00
00000E00
00000E00
00000E00
00000E00
00000C00
00001C00
00001C00
00001C00
00003800
00003800
00007000
00007000
0000E000
0001E000
0001C000
00038000
00078000
000F0000
000E0000
001C0000
00380000
00700000
00E00000
01E00000
03C00000
07800000
0F000000
1E000000
3C000000
78000000
F03FFF80
FFFFFF80
FFFFFF80
ENDCHAR
STARTCHAR 0033
ENCODING 51
SWIDTH 485 0
DWIDTH 31 0
BBX 25 43 2 -1
BITMAP
007F0000
03FFE000
07F7F800
1F007C00
3C001C00
38001E00
10000E00
00000F00
00000700
00000700
00000700
00000700
00000700
00000E00
00000E00
00001C00
00003C00
0000F800
0007E000
00FF8000
00FF8000
00FFE000
0000F800
00003C00
00001E00
00000F00
00000700
00000380
00000380
00000380
00000380
00000380
00000380
00000380
00000380
40000780
E0000700
F0000F00
78001E00
3E003C00
0FFFF800
03FFE000
00FF8000
ENDCHAR
STARTCHAR 0034
ENCODING 52
SWIDTH 485 0
DWIDTH 31 0
BBX 28 41 1 0
BITMAP
00001C00
00003C00
00007C00
00007C00
0000FC00
0001DC00
00039C00
00039C00
00071C00
000E1C00
000E1C00
001C1C00
00381C00
00381C00
00701C00
00E01C00
00E01C00
01C01C00
03801C00
07001C00
07001C00
0E001C00
1C001C00
1C001C00
38001C00
70001C00
70001C00
FFFFFFF0
FFFFFFF0
00001C00
00001C00
00001C00
00001C00
00001C00
00001C00
00001C00
00001C00
00001C00
00001C00
00001C00
00001C00
ENDCHAR
STARTCHAR 0035
ENCODING 53
SWIDTH 485 0
DWIDTH 31 0
BBX 26 42 2 -1
BITMAP
0FFFFE00
0FFFFE00
0FFFFE00
0E000000
0E000000
0E000000
0E000000
0E000000
0E000000
0C000000
0C000000
0C000000
0C000000
1C000000
1C000000
1C3F8000
1DFFF000
1FFFF800
1F007C00
0C001E00
00000F00
00000700
00000780
00000380
00000380
00000380
000001C0
000001C0
000001C0
00000180
00000380
00000380
00000380
00000380
00000700
C0000F00
F0000E00
78003C00
3E007800
1FF7F000
07FFE000
00FF0000
ENDCHAR
STARTCHAR 0036
ENCODING 54
SWIDTH 485 0
DWIDTH 31 0
BBX 25 43 3 -1
BITMAP
000FE000
007FF800
00FFFC00
03E01F00
07800600
07000200
0E000000
1E000000
1C000000
18000000
38000000
38000000
30000000
70000000
70000000
70000000
70000000
603F8000
60FFF000
E1FBF800
E7803C00
EE001E00
FC000E00
F8000700
F0000700
E0000700
E0000380
60000380
70000380
70000380
70000380
70000380
70000380
38000300
38000700
1C000700
1C000E00
0E000E00
0F001C00
07807800
03FBF000
00FFE000
003F8000
ENDCHAR
STARTCHAR 0037
ENCODING 55
SWIDTH 485 0
DWIDTH 31 0
BBX 25 41 3 0
BITMAP
FFFFFF80
FFFFFF80
00000700
00000700
00000E00
00001C00
00001C00
00003800
00003000
00007000
0000E000
0000E000
0001C000
0001C000
00038000
00038000
00030000
00070000
00070000
000E0000
000E0000
000E0000
000C0000
001C0000
001C0000
001C0000
001C0000
00380000
00380000
00380000
00380000
00380000
00380000
00380000
00780000
00700000
00700000
00700000
00700000
00700000
00700000
ENDCHAR
STARTCHAR 0038
ENCODING 56
SWIDTH 485 0
DWIDTH 31 0
BBX 25 43 3 -1
BITMAP
007F0000
01FFE000
07E3F000
0F007800
0E003C00
1C001C00
18000E00
38000E00
38000600
38000700
38000700
38000700
38000600
38000600
1C000E00
1E000C00
0F001C00
07801800
03E03800
01F87000
01FFE000
079FC000
0E07E000
1C01F800
38007C00
30001E00
70000E00
E0000700
E0000700
E0000380
C0000380
C0000380
C0000380
E0000380
E0000380
E0000700
70000700
78000E00
3C001E00
1F003C00
0FE3F800
03FFE000
00FF0000
ENDCHAR
STARTCHAR 0039
ENCODING 57
SWIDTH 485 0
DWIDTH 31 0
BBX 24 43 3 -1
BITMAP
00FE00
03FF80
0FDFC0
1E01E0
3C0070
380038
70003C
70001C
E0001C
E0000E
E0000E
E0000E
E00007
E00007
E00007
E00007
E00007
E00007
F0000F
70000F
78001F
3C0077
1E00E7
1FCFC7
07FF87
01FC07
000007
000007
000006
000006
00000E
00000E
00000C
00001C
00001C
000038
000078
200070
7000E0
7803C0
3FFF80
1FFE00
03F800
ENDCHAR
STARTCHAR 003A
ENCODING 58
SWIDTH 219 0
DWIDTH 14 0
BBX 6 30 4 -1
BITMAP
38
78
FC
FC
78
30
00
00
00
00
00
00
00
00
00
00
00
00
00
00
00
00
00
00
30
78
FC
FC
78
78
ENDCHAR
STARTCHAR 003B
ENCODING 59
SWIDTH 219 0
DWIDTH 14 0
BBX 8 39 3 -10
BITMAP
18
3C
7E
7E
3C
3C
00
00
00
00
00
00
00
00
00
00
00
00
00
00
00
00
00
00
00
3C
3E
3E
3F
1F
06
06
06
0E
0C
1C
38
F0
E0
ENDCHAR
STARTCHAR 003C
ENCODING 60
SWIDTH 485 0
DWIDTH 31 0
BBX 26 23 2 9
BITMAP
00000040
000001C0
00000FC0
00003F00
0001FC00
0007E000
003F8000
00FC0000
07F00000
1F800000
FC000000
F0000000
F0000000
7E000000
1FC00000
03F00000
00FE0000
001F8000
0007F000
0000FC00
00003F80
000007C0
000001C0
ENDCHAR
STARTCHAR 003D
ENCODING 61
SWIDTH 485 0
DWIDTH 31 0
BBX 26 15 2 14
BITMAP
FFFFFFC0
FFFFFFC0
00000000
00000000
00000000
00000000
00000000
00000000
00000000
00000000
00000000
00000000
00000000
FFFFFFC0
FFFFFFC0
ENDCHAR
STARTCHAR 003E
ENCODING 62
SWIDTH 485 0
DWIDTH 31 0
BBX 26 24 2 9
BITMAP
80000000
F0000000
FC000000
3F800000
07E00000
01FC0000
003F0000
000FE000
0001F800
00003F00
00000FC0
000001C0
000003C0
00000FC0
00007E00
0003F800
000FC000
007F0000
01F80000
0FE00000
3F000000
FC000000
E0000000
80000000
ENDCHAR
STARTCHAR 003F
ENCODING 63
SWIDTH 406 0
DWIDTH 26 0
BBX 20 44 2 -1
BITMAP
03FE00
0FFF80
3E07C0
7801E0
F000E0
600070
000070
000070
000070
000030
000030
000070
000070
000070
0000E0
0000E0
0001C0
000380
000780
000700
000E00
001C00
001C00
003800
007000
007000
007000
006000
00E000
00E000
00E000
00E000
000000
000000
000000
000000
000000
000000
006000
00F000
01F800
01F800
01F000
00E000
ENDCHAR
STARTCHAR 0040
ENCODING 64
SWIDTH 813 0
DWIDTH 52 0
BBX 46 49 3 -9
BITMAP
00000FFF0000
00007FFFE000
0003F803F800
0007C0007C00
001E00001F00
003C00000780
0070000003C0
00E0000001C0
01C0000000E0
038000000060
070000000070
060000000030
0E0000000038
1C0007E00038
1C001FFB0018
18003E3B0018
3800700F001C
3000E00F001C
3001C007001C
70018006001C
60038006001C
60030006001C
6007000E001C
6007000E0018
E006000E0018
E006000C0018
E006000C0038
E006001C0030
E006001C0070
E006001C0070
6007003C00E0
6007007C01C0
600380EE0380
7003E3CF0700
7001FF07FE00
30007C03F800
380000000000
380000000000
1C0000000000
1C0000000000
0E0000000000
070000000000
038000000000
03C000000000
00F000008000
007C0003C000
003F801F8000
000FFFFE0000
0001FFF00000
ENDCHAR
STARTCHAR 0041
ENCODING 65
SWIDTH 532 0
DWIDTH 34 0
BBX 32 42 1 0
BITMAP
00038000
0003C000
0007C000
0006E000
0006E000
000E6000
000E7000
000C7000
001C3000
001C3800
00183800
00381800
00381C00
00301C00
00700C00
00700E00
00600E00
00E00600
00E00700
01C00700
01C00380
01C00380
03800380
038001C0
030001C0
07FFFFC0
07FFFFE0
060000E0
0E0000E0
0E000070
0C000070
1C000070
1C000038
18000038
38000038
3800001C
7000001C
7000001E
7000000E
E000000E
E000000F
E0000007
ENDCHAR
STARTCHAR 0042
ENCODING 66
SWIDTH 579 0
DWIDTH 37 0
BBX 28 42 6 0
BITMAP
FFFF8000
FFFFF000
E01FFC00
E0003E00
E0000F00
E0000700
E0000380
E0000380
E0000380
E0000380
E0000180
E0000180
E0000380
E0000380
E0000380
E0000700
E0000E00
E0003E00
E00FF800
FFFFE000
FFFFFC00
E0007F00
E0000F80
E00003C0
E00001E0
E00000E0
E0000070
E0000070
E0000070
E0000070
E0000070
E0000070
E0000070
E0000070
E00000E0
E00001E0
E00001C0
E0000780
E0001F00
E007FE00
FFFFF800
FFFFC000
ENDCHAR
STARTCHAR 0043
ENCODING 67
SWIDTH 563 0
DWIDTH 36 0
BBX 29 44 4 -1
BITMAP
0007F800
003FFF00
00FFFFC0
01F803E0
03C000F0
07800070
0F000020
1E000000
1C000000
38000000
38000000
78000000
70000000
70000000
E0000000
E0000000
E0000000
E0000000
E0000000
E0000000
E0000000
E0000000
E0000000
E0000000
E0000000
E0000000
E0000000
E0000000
E0000000
F0000000
70000000
70000000
78000000
38000000
3C000000
1C000000
1E000000
0F000018
07800078
03C000F0
01F803E0
00FFFFC0
003FFF00
0007F800
ENDCHAR
STARTCHAR 0044
ENCODING 68
SWIDTH 610 0
DWIDTH 39 0
BBX 29 42 6 0
BITMAP
FFFE0000
FFFFE000
E03FF800
E000FC00
E0003E00
E0000F00
E0000780
E00003C0
E00001C0
E00001E0
E00000E0
E00000F0
E0000070
E0000070
E0000078
E0000038
E0000038
E0000038
E0000038
E0000038
E0000038
E0000038
E0000038
E0000038
E0000038
E0000038
E0000038
E0000070
E0000070
E0000070
E00000F0
E00000E0
E00001E0
E00001C0
E00003C0
E0000780
E0000F00
E0003E00
E000FC00
E03FF000
FFFFC000
FFFE0000
ENDCHAR
STARTCHAR 0045
ENCODING 69
SWIDTH 516 0
DWIDTH 33 0
BBX 24 42 6 0
BITMAP
FFFFFE
FFFFFE
FFFFFE
E00000
E00000
E00000
E00000
E00000
E00000
E00000
E00000
E00000
E00000
E00000
E00000
E00000
E00000
E00000
FFFFF0
FFFFF0
FFFFF0
E00000
E00000
E00000
E00000
E00000
E00000
E00000
E00000
E00000
E00000
E00000
E00000
E00000
E00000
E00000
E00000
E00000
E00000
FFFFFF
FFFFFF
FFFFFF
ENDCHAR
STARTCHAR 0046
ENCODING 70
SWIDTH 469 0
DWIDTH 30 0
BBX 23 42 6 0
BITMAP
FFFFFE
FFFFFE
FFFFFE
E00000
E00000
E00000
E00000
E00000
E00000
E00000
E00000
E00000
E00000
E00000
E00000
E00000
E00000
E00000
E00000
FFFFF0
FFFFF0
FFFFF0
E00000
E00000
E00000
E00000
E00000
E00000
E00000
E00000
E00000
E00000
E00000
E00000
E00000
E00000
E00000
E00000
E00000
E00000
E00000
E00000
ENDCHAR
STARTCHAR 0047
ENCODING 71
SWIDTH 610 0
DWIDTH 39 0
BBX 30 44 4 -1
BITMAP
0003FC00
001FFF80
007FFFE0
01F801F0
03E00078
07800038
0F000010
1E000000
1C000000
3C000000
38000000
78000000
70000000
70000000
F0000000
E0000000
E0000000
E0000000
E0000000
E0000000
E0000000
E0000000
E0000000
E0007FFC
E0007FFC
E000001C
E000001C
E000001C
E000001C
F000001C
7000001C
7000001C
7800001C
3800001C
3C00001C
1C00001C
1E00001C
0F00001C
0780001C
03E0007C
01F801F8
00FFFFE0
003FFF80
0007FC00
ENDCHAR
STARTCHAR 0048
ENCODING 72
SWIDTH 641 0
DWIDTH 41 0
BBX 29 42 6 0
BITMAP
E0000038
E0000038
E0000038
E0000038
E0000038
E0000038
E0000038
E0000038
E0000038
E0000038
E0000038
E0000038
E0000038
E0000038
E0000038
E0000038
E0000038
E0000038
FFFFFFF8
FFFFFFF8
FFFFFFF8
E0000038
E0000038
E0000038
E0000038
E0000038
E0000038
E0000038
E0000038
E0000038
E0000038
E0000038
E0000038
E0000038
E0000038
E0000038
E0000038
E0000038
E0000038
E0000038
E0000038
E0000038
ENDCHAR
STARTCHAR 0049
ENCODING 73
SWIDTH 234 0
DWIDTH 15 0
BBX 3 42 6 0
BITMAP
E0
E0
E0
E0
E0
E0
E0
E0
E0
E0
E0
E0
E0
E0
E0
E0
E0
E0
E0
E0
E0
E0
E0
E0
E0
E0
E0
E0
E0
E0
E0
E0
E0
E0
E0
E0
E0
E0
E0
E0
E0
E0
ENDCHAR
STARTCHAR 004A
ENCODING 74
SWIDTH 469 0
DWIDTH 30 0
BBX 20 43 3 -1
BITMAP
000070
000070
000070
000070
000070
000070
000070
000070
000070
000070
000070
000070
000070
000070
000070
000070
000070
000070
000070
000070
000070
000070
000070
000070
000070
000070
000070
000070
000070
000070
000070
000070
000070
000070
000070
000070
E00070
E000E0
7001E0
3C03C0
1FFF80
0FFF00
03FC00
ENDCHAR
STARTCHAR 004B
ENCODING 75
SWIDTH 563 0
DWIDTH 36 0
BBX 29 42 6 0
BITMAP
E00001E0
E00003C0
E0000780
E0000700
E0000E00
E0001C00
E0003C00
E0007800
E000F000
E001E000
E003C000
E0038000
E0070000
E00F0000
E01E0000
E03C0000
E07C0000
E0FE0000
E1EE0000
E1C70000
E3878000
E7038000
EF03C000
FE01C000
FC00E000
F800E000
F0007000
E0007800
E0003800
E0003C00
E0001C00
E0000E00
E0000F00
E0000700
E0000780
E0000380
E00003C0
E00001C0
E00000E0
E00000F0
E0000070
E0000078
ENDCHAR
STARTCHAR 004C
ENCODING 76
SWIDTH 469 0
DWIDTH 30 0
BBX 23 42 6 0
BITMAP
E00000
E00000
E00000
E00000
E00000
E00000
E00000
E00000
E00000
E00000
E00000
E00000
E00000
E00000
E00000
E00000
E00000
E00000
E00000
E00000
E00000
E00000
E00000
E00000
E00000
E00000
E00000
E00000
E00000
E00000
E00000
E00000
E00000
E00000
E00000
E00000
E00000
E00000
E00000
FFFFFE
FFFFFE
FFFFFE
ENDCHAR
STARTCHAR 004D
ENCODING 77
SWIDTH 704 0
DWIDTH 45 0
BBX 33 42 6 0
BITMAP
F800000780
F800000F80
F800000F80
FC00001F80
FC00001F80
EC00001B80
EE00003B80
EE00003B80
E600003380
E700007380
E700007380
E300006380
E38000E380
E38000E380
E1C000C380
E1C001C380
E0C0018380
E0E0038380
E0E0038380
E060030380
E070070380
E070070380
E030060380
E0380E0380
E0180E0380
E0180C0380
E01C1C0380
E00C180380
E00E180380
E00E380380
E006300380
E007300380
E007700380
E003600380
E003E00380
E001E00380
E001C00380
E000000380
E000000380
E000000380
E000000380
E000000380
ENDCHAR
STARTCHAR 004E
ENCODING 78
SWIDTH 641 0
DWIDTH 41 0
BBX 28 42 6 0
BITMAP
F0000030
F0000030
F8000030
F8000030
FC000030
EE000030
EE000030
E7000030
E7000030
E3800030
E1C00030
E1C00030
E0E00030
E0E00030
E0700030
E0780030
E0380030
E01C0030
E01C0030
E00E0030
E00F0030
E0070030
E0038030
E0038030
E001C030
E001E030
E000E030
E0007030
E0007030
E0003830
E0003C30
E0001C30
E0000E30
E0000E30
E0000730
E0000730
E00003B0
E00001B0
E00001F0
E00000F0
E00000F0
E0000070
ENDCHAR
STARTCHAR 004F
ENCODING 79
SWIDTH 657 0
DWIDTH 42 0
BBX 34 44 4 -1
BITMAP
0007F80000
003FFF0000
00FFFFC000
01F007E000
03C001F000
0780007800
0F00003C00
1E00001E00
1C00000E00
3800000F00
3800000700
7000000780
7000000380
7000000380
E000000380
E0000003C0
E0000001C0
E0000001C0
E0000001C0
E0000001C0
E0000001C0
E0000001C0
E0000001C0
E0000001C0
E0000001C0
E0000001C0
E0000001C0
E0000001C0
E0000003C0
F000000380
7000000380
7000000380
7800000700
3800000700
3C00000F00
1C00000E00
1E00001C00
0F00003C00
0780007800
03C000F000
01F003E000
00FFFF8000
003FFF0000
0007F80000
ENDCHAR
STARTCHAR 0050
ENCODING 80
SWIDTH 547 0
DWIDTH 35 0
BBX 26 42 6 0
BITMAP
FFFF8000
FFFFF000
E03FFC00
E0003E00
E0000F00
E0000780
E0000380
E00003C0
E00001C0
E00001C0
E00001C0
E00001C0
E00001C0
E00001C0
E00001C0
E00001C0
E0000380
E0000380
E0000700
E0000F00
E0003E00
E01FF800
FFFFE000
FFFF0000
E0000000
E0000000
E0000000
E0000000
E0000000
E0000000
E0000000
E0000000
E0000000
E0000000
E0000000
E0000000
E0000000
E0000000
E0000000
E0000000
E0000000
E0000000
ENDCHAR
STARTCHAR 0051
ENCODING 81
SWIDTH 657 0
DWIDTH 42 0
BBX 34 53 4 -10
BITMAP
0007F80000
003FFF0000
00FFFFC000
01F007E000
03C001F000
0780007800
0F00003C00
1E00001E00
1C00000E00
3800000F00
3800000700
7000000780
7000000380
7000000380
E000000380
E0000003C0
E0000001C0
E0000001C0
E0000001C0
E0000001C0
E0000001C0
E0000001C0
E0000001C0
E0000001C0
E0000001C0
E0000001C0
E0000001C0
E0000001C0
E0000003C0
F000000380
7000000380
7000000380
7800000700
3800000700
3C00000F00
1C00000E00
1E00001C00
0F00003C00
0780007800
03C000F000
01F003E000
00FF3FC000
003FFF0000
000FF80000
0001E00000
0000E00000
0000F00000
0000780000
00003C0000
00001F8000
00000FFFC0
000003FFC0
0000007F80
ENDCHAR
STARTCHAR 0052
ENCODING 82
SWIDTH 547 0
DWIDTH 35 0
BBX 27 42 6 0
BITMAP
FFFF8000
FFFFF800
E01FFC00
E0003E00
E0000F00
E0000780
E0000380
E00003C0
E00001C0
E00001C0
E00001C0
E00001C0
E00001C0
E00001C0
E00001C0
E0000380
E0000780
E0000F00
E0001E00
E000FC00
FFFFF800
FFFFE000
E00E0000
E0070000
E0078000
E0038000
E003C000
E001C000
E000E000
E000F000
E0007000
E0007800
E0003800
E0001C00
E0001C00
E0000E00
E0000F00
E0000700
E0000780
E0000380
E00001C0
E00001E0
ENDCHAR
STARTCHAR 0053
ENCODING 83
SWIDTH 516 0
DWIDTH 33 0
BBX 28 44 3 -1
BITMAP
001FC000
00FFF800
03FFFE00
07C01F00
0F0007C0
0E0001C0
1C000080
1C000000
38000000
38000000
38000000
38000000
38000000
1C000000
1E000000
0E000000
0F800000
07C00000
03F00000
00FE0000
003F8000
000FE000
0003F800
0000FE00
00003F00
00000F80
000003C0
000001E0
000000E0
000000E0
000000F0
00000070
00000070
00000070
00000070
000000E0
600000E0
F00001E0
780003C0
3E000780
1F801F00
07FFFE00
01FFF800
003FC000
ENDCHAR
STARTCHAR 0054
ENCODING 84
SWIDTH 516 0
DWIDTH 33 0
BBX 30 42 2 0
BITMAP
FFFFFFFC
FFFFFFFC
FFFFFFFC
00070000
00070000
00070000
00070000
00070000
00070000
00070000
00070000
00070000
00070000
00070000
00070000
00070000
00070000
00070000
00070000
00070000
00070000
00070000
00070000
00070000
00070000
00070000
00070000
00070000
00070000
00070000
00070000
00070000
00070000
00070000
00070000
00070000
00070000
00070000
00070000
00070000
00070000
00070000
ENDCHAR
STARTCHAR 0055
ENCODING 85
SWIDTH 641 0
DWIDTH 41 0
BBX 28 43 6 -1
BITMAP
E0000030
E0000030
E0000030
E0000030
E0000030
E0000030
E0000030
E0000030
E0000030
E0000030
E0000030
E0000030
E0000030
E0000030
E0000030
E0000030
E0000030
E0000030
E0000030
E0000030
E0000030
E0000030
E0000030
E0000030
E0000030
E0000030
E0000030
E0000030
E0000030
E0000070
E0000070
70000070
70000070
70000060
780000E0
380000E0
3C0001C0
1E0003C0
0F000780
0FC01F00
03FFFE00
01FFF800
003FC000
ENDCHAR
STARTCHAR 0056
ENCODING 86
SWIDTH 485 0
DWIDTH 31 0
BBX 31 42 0 0
BITMAP
F000000E
7000000E
7000001C
7800001C
3800001C
38000038
38000038
1C000038
1C000070
1C000070
0E000070
0E0000E0
0E0000E0
070000E0
070000C0
070001C0
038001C0
03800180
03800380
01C00380
01C00300
01C00700
00E00700
00E00600
00E00E00
00700E00
00700C00
00701C00
00301C00
00381800
00381800
00183800
001C3000
001C3000
000C7000
000E6000
000E6000
0006E000
0007C000
0007C000
0003C000
00038000
ENDCHAR
STARTCHAR 0057
ENCODING 87
SWIDTH 766 0
DWIDTH 49 0
BBX 45 42 2 0
BITMAP
E00007000038
E00007800038
E0000F800038
70000F800030
70000D800070
70000DC00070
70001DC00070
70001CC00070
380018C00060
380018E000E0
380038E000E0
3800386000E0
1C00306000C0
1C00307001C0
1C00707001C0
1C00603001C0
0C00603801C0
0E00E0380180
0E00E0380380
0E00C0180380
0E00C01C0380
0601C01C0300
0701C01C0300
0701800C0700
0701800E0700
0303800E0700
0383800E0600
038300060600
038300070E00
038700070E00
018700030C00
01C600030C00
01C600038C00
01CE00039C00
00CE00019C00
00CC00019800
00EC0001D800
00EC0001D800
00780000F800
00780000F000
00780000F000
00780000F000
ENDCHAR
STARTCHAR 0058
ENCODING 88
SWIDTH 485 0
DWIDTH 31 0
BBX 28 42 1 0
BITMAP
70000070
380000E0
3C0001C0
1C0001C0
0E000380
0E000380
07000700
07000600
03800E00
03800C00
01C01C00
00E03800
00E03800
00707000
00706000
0038E000
001CC000
001DC000
000F8000
000F8000
00070000
000F8000
001F8000
0019C000
0038C000
0030E000
00707000
00607000
00E03800
01C03800
01C01C00
03801E00
03000E00
07000700
0E000700
0E000380
1C000380
1C0001C0
380001E0
380000E0
70000070
E0000070
ENDCHAR
STARTCHAR 0059
ENCODING 89
SWIDTH 453 0
DWIDTH 29 0
BBX 28 42 0 0
BITMAP
F0000070
70000070
780000E0
380000E0
3C0001C0
1C0001C0
1C000380
0E000380
0E000700
07000700
07000E00
03800E00
03801C00
01C01C00
01C03800
00E03800
00E07000
00706000
0070E000
0038C000
0039C000
001D8000
001F8000
000F0000
00070000
00070000
00070000
00070000
00070000
00070000
00070000
00070000
00070000
00070000
00070000
00070000
00070000
00070000
00070000
00070000
00070000
00070000
ENDCHAR
STARTCHAR 005A
ENCODING 90
SWIDTH 532 0
DWIDTH 34 0
BBX 28 42 3 0
BITMAP
3FFFFFF0
3FFFFFF0
3FFFFFF0
000000E0
000001C0
000001C0
00000380
00000700
00000700
00000E00
00001C00
00001C00
00003800
00007800
00007000
0000E000
0001E000
0001C000
00038000
00038000
00070000
000E0000
000E0000
001C0000
00380000
00380000
00700000
00F00000
00E00000
01C00000
03C00000
03800000
07000000
07000000
0E000000
1C000000
1C000000
38000000
70000000
7FFFFFF0
FFFFFFF0
FFFFFFF0
ENDCHAR
STARTCHAR 005B
ENCODING 91
SWIDTH 281 0
DWIDTH 18 0
BBX 10 55 6 -10
BITMAP
FFC0
FFC0
C000
C000
C000
C000
C000
C000
C000
C000
C000
C000
C000
C000
C000
C000
C000
C000
C000
C000
C000
C000
C000
C000
C000
C000
C000
C000
C000
C000
C000
C000
C000
C000
C000
C000
C000
C000
C000
C000
C000
C000
C000
C000
C000
C000
C000
C000
C000
C000
C000
C000
C000
FFC0
FFC0
ENDCHAR
STARTCHAR 005C
ENCODING 92
SWIDTH 360 0
DWIDTH 23 0
BBX 22 56 0 -10
BITMAP
E00000
600000
600000
700000
300000
380000
380000
180000
1C0000
1C0000
0C0000
0E0000
060000
060000
070000
030000
030000
038000
018000
018000
01C000
00C000
00E000
00E000
006000
007000
007000
003000
003800
001800
001800
001C00
000C00
000C00
000E00
000600
000600
000700
000300
000380
000380
000180
0001C0
0001C0
0000C0
0000E0
000060
000060
000070
000030
000030
000038
000018
000018
00001C
00000C
ENDCHAR
STARTCHAR 005D
ENCODING 93
SWIDTH 281 0
DWIDTH 18 0
BBX 11 55 1 -10
BITMAP
FFE0
FFE0
00E0
00E0
00E0
00E0
00E0
00E0
00E0
00E0
00E0
00E0
00E0
00E0
00E0
00E0
00E0
00E0
00E0
00E0
00E0
00E0
00E0
00E0
00E0
00E0
00E0
00E0
00E0
00E0
00E0
00E0
00E0
00E0
00E0
00E0
00E0
00E0
00E0
00E0
00E0
00E0
00E0
00E0
00E0
00E0
00E0
00E0
00E0
00E0
00E0
00E0
00E0
FFE0
FFE0
ENDCHAR
STARTCHAR 005E
ENCODING 94
SWIDTH 485 0
DWIDTH 31 0
BBX 21 24 5 19
BITMAP
007000
00F000
00F800
01D800
019C00
019C00
038C00
030E00
070600
070700
060700
0E0300
0C0380
1C0180
1C01C0
1801C0
3800C0
3800E0
7000E0
700060
600070
E00030
E00038
C00038
ENDCHAR
STARTCHAR 005F
ENCODING 95
SWIDTH 500 0
DWIDTH 32 0
BBX 30 2 1 -7
BITMAP
FFFFFFFC
FFFFFFFC
ENDCHAR
STARTCHAR 0060
ENCODING 96
SWIDTH 532 0
DWIDTH 34 0
BBX 10 11 10 37
BITMAP
4000
E000
F000
7800
3C00
1E00
0E00
0700
0380
01C0
00C0
ENDCHAR
STARTCHAR 0061
ENCODING 97
SWIDTH 485 0
DWIDTH 31 0
BBX 22 33 4 -1
BITMAP
007F00
03FFC0
0FFFE0
3E00F0
780078
200038
00001C
00001C
00001C
00001C
00001C
00000C
00001C
0007FC
007FFC
03FC1C
0FC01C
1F001C
3C001C
78001C
70001C
E0001C
E0001C
E0001C
E0001C
E0001C
E0003C
E0007C
7000EC
7803CC
3FBF0C
1FFC0C
07F000
ENDCHAR
STARTCHAR 0062
ENCODING 98
SWIDTH 547 0
DWIDTH 35 0
BBX 25 47 6 -1
BITMAP
E0000000
E0000000
E0000000
E0000000
E0000000
E0000000
E0000000
E0000000
E0000000
E0000000
E0000000
E0000000
E0000000
E0000000
E03F8000
E0FFE000
E3FFF800
EF807C00
FE001E00
F8000E00
F0000F00
E0000700
E0000700
E0000380
E0000380
E0000380
E0000380
E0000380
E0000380
E0000380
E0000380
E0000380
E0000380
E0000380
E0000380
E0000380
E0000780
E0000700
E0000700
E0000E00
E0001E00
F0001C00
FC003800
DE00F000
C7FFE000
C3FFC000
007E0000
ENDCHAR
STARTCHAR 0063
ENCODING 99
SWIDTH 453 0
DWIDTH 29 0
BBX 24 33 3 -1
BITMAP
001FC0
00FFF0
01FFFC
07C03E
0F000E
0E0004
1C0000
3C0000
380000
780000
700000
700000
700000
600000
E00000
E00000
E00000
E00000
E00000
E00000
700000
700000
700000
780000
380000
3C0000
1C0000
1E0002
0F0007
07C01E
03FDFC
00FFF0
003FC0
ENDCHAR
STARTCHAR 0064
ENCODING 100
SWIDTH 547 0
DWIDTH 35 0
BBX 26 47 3 -1
BITMAP
000001C0
000001C0
000001C0
000001C0
000001C0
000001C0
000001C0
000001C0
000001C0
000001C0
000001C0
000001C0
000001C0
000001C0
001FC1C0
00FFF1C0
01FFFDC0
07C01FC0
0F000FC0
0E0003C0
1C0001C0
3C0001C0
380001C0
780001C0
700001C0
700001C0
700001C0
700001C0
E00001C0
E00001C0
E00001C0
E00001C0
E00001C0
F00001C0
700001C0
700001C0
700001C0
700001C0
380001C0
380001C0
3C0003C0
1E0007C0
0F001FC0
0F803DC0
07FBF1C0
01FFE1C0
007F0000
ENDCHAR
STARTCHAR 0065
ENCODING 101
SWIDTH 485 0
DWIDTH 31 0
BBX 25 33 3 -1
BITMAP
001F8000
00FFF000
01FBF800
07C03C00
0F001E00
0E000E00
1C000700
38000700
38000380
30000380
70000380
70000180
70000180
60000180
E0000180
FFFFFF80
FFFFFF80
E0000000
E0000000
E0000000
70000000
70000000
70000000
78000000
38000000
3C000000
1C000000
0E000000
0F000200
07C00F00
03FCFE00
00FFF800
001FE000
ENDCHAR
STARTCHAR 0066
ENCODING 102
SWIDTH 266 0
DWIDTH 17 0
BBX 16 47 2 0
BITMAP
007E
01FF
03FF
0380
0700
0700
0600
0E00
0E00
0E00
0E00
0E00
0E00
0E00
0E00
0E00
FFFC
FFFC
0E00
0E00
0E00
0E00
0E00
0E00
0E00
0E00
0E00
0E00
0E00
0E00
0E00
0E00
0E00
0E00
0E00
0E00
0E00
0E00
0E00
0E00
0E00
0E00
0E00
0E00
0E00
0E00
0E00
ENDCHAR
STARTCHAR 0067
ENCODING 103
SWIDTH 485 0
DWIDTH 31 0
BBX 27 47 3 -15
BITMAP
007E0000
01FFFFE0
07FFFFE0
0F80F000
0E003800
1C001C00
1C001C00
38000E00
38000E00
38000E00
38000E00
38000E00
38000E00
38000E00
38000E00
1C001C00
1C001C00
0E003800
0F007000
07E3E000
07FFC000
0C7F0000
1C000000
18000000
38000000
38000000
38000000
3C000000
1E000000
0FFFE000
07FFFF00
0FFFFFC0
1C0007C0
380001E0
700000E0
700000E0
60000060
E00000E0
E00000E0
E00000E0
700001C0
700003C0
38000780
3E001F00
1FE0FC00
07FFF800
00FF8000
ENDCHAR
STARTCHAR 0068
ENCODING 104
SWIDTH 532 0
DWIDTH 34 0
BBX 23 46 6 0
BITMAP
E00000
E00000
E00000
E00000
E00000
E00000
E00000
E00000
E00000
E00000
E00000
E00000
E00000
E00000
E03F80
E0FFE0
E3FFF0
E78078
EE0038
FC003C
F8001C
F0001C
E0001C
E0000C
E0000E
E0000E
E0000E
E0000E
E0000E
E0000E
E0000E
E0000E
E0000E
E0000E
E0000E
E0000E
E0000E
E0000E
E0000E
E0000E
E0000E
E0000E
E0000E
E0000E
E0000E
E0000E
ENDCHAR
STARTCHAR 0069
ENCODING 105
SWIDTH 234 0
DWIDTH 15 0
BBX 5 43 5 0
BITMAP
70
F8
F8
F8
70
00
00
00
00
00
00
00
70
70
70
70
70
70
70
70
70
70
70
70
70
70
70
70
70
70
70
70
70
70
70
70
70
70
70
70
70
70
70
ENDCHAR
STARTCHAR 006A
ENCODING 106
SWIDTH 234 0
DWIDTH 15 0
BBX 12 58 -2 -15
BITMAP
00E0
01F0
01F0
01F0
00E0
0000
0000
0000
0000
0000
0000
0000
00E0
00E0
00E0
00E0
00E0
00E0
00E0
00E0
00E0
00E0
00E0
00E0
00E0
00E0
00E0
00E0
00E0
00E0
00E0
00E0
00E0
00E0
00E0
00E0
00E0
00E0
00E0
00E0
00E0
00E0
00E0
00E0
00E0
00E0
00E0
00E0
00E0
00E0
00E0
00E0
00C0
01C0
01C0
EF80
FF00
7E00
ENDCHAR
STARTCHAR 006B
ENCODING 107
SWIDTH 469 0
DWIDTH 30 0
BBX 23 46 6 0
BITMAP
E00000
E00000
E00000
E00000
E00000
E00000
E00000
E00000
E00000
E00000
E00000
E00000
E00000
E00000
E00000
E00038
E00070
E000E0
E001C0
E003C0
E00380
E00700
E00E00
E01C00
E03800
E07800
E07000
E0E000
E1F000
E3F800
E7B800
E71C00
EE1C00
FC0E00
F80700
F00700
F00380
E001C0
E001C0
E000E0
E000E0
E00070
E00038
E00038
E0001C
E0001E
ENDCHAR
STARTCHAR 006C
ENCODING 108
SWIDTH 234 0
DWIDTH 15 0
BBX 6 47 6 -1
BITMAP
E0
E0
E0
E0
E0
E0
E0
E0
E0
E0
E0
E0
E0
E0
E0
E0
E0
E0
E0
E0
E0
E0
E0
E0
E0
E0
E0
E0
E0
E0
E0
E0
E0
E0
E0
E0
E0
E0
E0
E0
E0
E0
E0
E0
F8
78
3C
ENDCHAR
STARTCHAR 006D
ENCODING 109
SWIDTH 813 0
DWIDTH 52 0
BBX 41 32 6 0
BITMAP
003F0007E000
C0FFC01FF800
C3FFE07FFC00
C700F0E03E00
EE0071C00E00
FC007B000F00
F0003E000700
F0003C000700
E0003C000700
E0001C000700
E0001C000380
E0001C000380
E0001C000380
E0001C000380
E0001C000380
E0001C000380
E0001C000380
E0001C000380
E0001C000380
E0001C000380
E0001C000380
E0001C000380
E0001C000380
E0001C000380
E0001C000380
E0001C000380
E0001C000380
E0001C000380
E0001C000380
E0001C000380
E0001C000380
E0001C000380
ENDCHAR
STARTCHAR 006E
ENCODING 110
SWIDTH 532 0
DWIDTH 34 0
BBX 23 32 6 0
BITMAP
003F80
C0FFE0
C3FFF0
C78078
EE0038
FC003C
F8001C
F0001C
E0001C
E0000C
E0000E
E0000E
E0000E
E0000E
E0000E
E0000E
E0000E
E0000E
E0000E
E0000E
E0000E
E0000E
E0000E
E0000E
E0000E
E0000E
E0000E
E0000E
E0000E
E0000E
E0000E
E0000E
ENDCHAR
STARTCHAR 006F
ENCODING 111
SWIDTH 532 0
DWIDTH 34 0
BBX 28 33 3 -1
BITMAP
001FC000
00FFF000
03FFFC00
07C03E00
0F000F00
0E000780
1C000380
3C0001C0
380001C0
780000E0
700000E0
700000E0
70000070
60000070
E0000070
E0000070
E0000070
E0000070
E0000070
E0000070
70000070
700000E0
700000E0
780000E0
380001C0
3C0001C0
1C000380
1E000780
0F000F00
07C03E00
03FFFC00
00FFF000
003FC000
ENDCHAR
STARTCHAR 0070
ENCODING 112
SWIDTH 547 0
DWIDTH 35 0
BBX 25 46 6 -14
BITMAP
003F8000
C0FFE000
C3FFF800
CF807C00
FE001E00
F8000E00
F0000F00
E0000700
E0000700
E0000380
E0000380
E0000380
E0000380
E0000380
E0000380
E0000380
E0000380
E0000380
E0000380
E0000380
E0000380
E0000380
E0000780
E0000700
E0000700
E0000E00
E0001E00
F0001C00
FC003800
FF00F000
E7FFE000
E3FFC000
E07E0000
E0000000
E0000000
E0000000
E0000000
E0000000
E0000000
E0000000
E0000000
E0000000
E0000000
E0000000
E0000000
E0000000
ENDCHAR
STARTCHAR 0071
ENCODING 113
SWIDTH 547 0
DWIDTH 35 0
BBX 26 46 3 -14
BITMAP
001FC000
00FFF1C0
01FFFDC0
07C01FC0
0F000FC0
0E0003C0
1C0001C0
3C0001C0
380001C0
380001C0
700001C0
700001C0
700001C0
700001C0
E00001C0
E00001C0
E00001C0
E00001C0
E00001C0
F00001C0
700001C0
700001C0
700001C0
700001C0
780001C0
380001C0
3C0003C0
1E0007C0
0F001FC0
0F803DC0
07FBF1C0
01FFE1C0
007F01C0
000001C0
000001C0
000001C0
000001C0
000001C0
000001C0
000001C0
000001C0
000001C0
000001C0
000001C0
000001C0
000001C0
ENDCHAR
STARTCHAR 0072
ENCODING 114
SWIDTH 313 0
DWIDTH 20 0
BBX 14 32 6 0
BITMAP
007C
C1FC
C3FC
C700
CE00
FC00
F800
F000
F000
E000
E000
E000
E000
E000
E000
E000
E000
E000
E000
E000
E000
E000
E000
E000
E000
E000
E000
E000
E000
E000
E000
E000
ENDCHAR
STARTCHAR 0073
ENCODING 115
SWIDTH 406 0
DWIDTH 26 0
BBX 22 33 2 -1
BITMAP
00FE00
07FFC0
0FEFE0
1E00F0
3C0020
380000
380000
300000
300000
380000
380000
3C0000
1E0000
0F8000
07F000
01FC00
007F00
000FC0
0003E0
0000F0
000078
000038
00003C
00001C
00001C
00001C
000038
600038
F00070
7C00F0
3FEFE0
0FFF80
01FE00
ENDCHAR
STARTCHAR 0074
ENCODING 116
SWIDTH 313 0
DWIDTH 20 0
BBX 17 41 2 -1
BITMAP
060000
060000
060000
060000
060000
060000
060000
060000
060000
FFFF00
FFFF00
060000
060000
060000
060000
060000
060000
060000
060000
060000
060000
060000
060000
060000
060000
060000
060000
060000
060000
060000
060000
060000
060000
070000
070000
070000
070000
038000
03F780
01FF80
007E00
ENDCHAR
STARTCHAR 0075
ENCODING 117
SWIDTH 532 0
DWIDTH 34 0
BBX 23 32 5 -1
BITMAP
E0000E
E0000E
E0000E
E0000E
E0000E
E0000E
E0000E
E0000E
E0000E
E0000E
E0000E
E0000E
E0000E
E0000E
E0000E
E0000E
E0000E
E0000E
E0000E
E0000E
E0000E
E0000E
60000E
70000E
70001E
70003E
78007E
3800EE
3C03CE
1FFF8E
0FFE06
03F800
ENDCHAR
STARTCHAR 0076
ENCODING 118
SWIDTH 438 0
DWIDTH 28 0
BBX 26 31 1 0
BITMAP
E00001C0
E0000180
70000380
70000380
70000700
38000700
38000700
18000E00
1C000E00
1C000C00
0E001C00
0E001C00
0E001800
07003800
07003800
03003000
03807000
03807000
01806000
01C0E000
01C0C000
00C1C000
00E1C000
00E18000
00738000
00738000
00330000
003F0000
003E0000
001E0000
001E0000
ENDCHAR
STARTCHAR 0077
ENCODING 119
SWIDTH 688 0
DWIDTH 44 0
BBX 40 31 2 0
BITMAP
E0003C0007
E0003C0007
E0003C0007
70007E000E
70006E000E
700066000E
7000E6000C
3800E7001C
3800C7001C
3800C3001C
1801C38018
1C01838038
1C01818038
1C01818030
0E0381C070
0E0301C070
0E0300C070
060700C060
070600E0E0
070600E0E0
03060060C0
038E0070C0
038C0071C0
038C0031C0
018C003180
01DC003980
01D8003B80
00D8001B00
00F8001F00
00F0001F00
00F0000F00
ENDCHAR
STARTCHAR 0078
ENCODING 120
SWIDTH 406 0
DWIDTH 26 0
BBX 24 31 1 0
BITMAP
70000E
38001C
38001C
1C0038
0E0030
0E0070
0700E0
0380C0
0381C0
01C180
00E380
00E700
007600
007E00
003C00
003C00
007E00
006E00
00E700
01C380
018380
0381C0
0700E0
0700E0
0E0070
1C0078
1C0038
38001C
70001C
70000E
E00007
ENDCHAR
STARTCHAR 0079
ENCODING 121
SWIDTH 438 0
DWIDTH 28 0
BBX 26 45 1 -14
BITMAP
E00001C0
E00001C0
70000380
70000380
38000380
38000700
38000700
1C000600
1C000E00
0C000E00
0E000C00
0E001C00
07001C00
07001800
03003800
03803800
03803000
01C07000
01C07000
00C06000
00E0E000
00E0E000
0060C000
0071C000
0031C000
00398000
003B8000
001B0000
001F0000
000F0000
000E0000
000E0000
000E0000
000C0000
001C0000
001C0000
00180000
00380000
00300000
00700000
00E00000
01E00000
7FC00000
7F000000
7C000000
ENDCHAR
STARTCHAR 007A
ENCODING 122
SWIDTH 406 0
DWIDTH 26 0
BBX 22 31 2 0
BITMAP
3FFFFC
3FFFF8
000038
000070
0000E0
0000E0
0001C0
000380
000380
000700
000E00
000E00
001C00
003800
003800
007000
00E000
00E000
01C000
038000
038000
070000
0E0000
0E0000
1C0000
380000
380000
700000
E00000
FFFFFC
FFFFFC
ENDCHAR
STARTCHAR 007B
ENCODING 123
SWIDTH 281 0
DWIDTH 18 0
BBX 14 55 2 -10
BITMAP
007C
01FC
03C0
0380
0300
0700
0700
0700
0700
0700
0700
0700
0700
0700
0700
0300
0300
0300
0300
0300
0300
0300
0300
0700
0600
1E00
FC00
FC00
1E00
0E00
0700
0300
0300
0300
0300
0300
0300
0300
0300
0300
0700
0700
0700
0700
0700
0700
0700
0700
0700
0700
0300
0380
03C0
01FC
007C
ENDCHAR
STARTCHAR 007C
ENCODING 124
SWIDTH 219 0
DWIDTH 14 0
BBX 2 64 6 -16
BITMAP
C0
C0
C0
C0
C0
C0
C0
C0
C0
C0
C0
C0
C0
C0
C0
C0
C0
C0
C0
C0
C0
C0
C0
C0
C0
C0
C0
C0
C0
C0
C0
C0
C0
C0
C0
C0
C0
C0
C0
C0
C0
C0
C0
C0
C0
C0
C0
C0
C0
C0
C0
C0
C0
C0
C0
C0
C0
C0
C0
C0
C0
C0
C0
C0
ENDCHAR
STARTCHAR 007D
ENCODING 125
SWIDTH 281 0
DWIDTH 18 0
BBX 15 55 1 -10
BITMAP
FC00
FF00
0780
0380
0180
0180
01C0
01C0
01C0
01C0
01C0
01C0
0180
0180
0180
0180
0180
0180
0180
0180
0180
0180
0180
01C0
01C0
00F0
007E
007E
00F0
00C0
01C0
0180
0180
0180
0180
0180
0180
0180
0180
0180
0180
0180
01C0
01C0
01C0
01C0
01C0
01C0
01C0
0180
0180
0380
0700
FE00
F800
ENDCHAR
STARTCHAR 007E
ENCODING 126
SWIDTH 485 0
DWIDTH 31 0
BBX 25 8 3 17
BITMAP
0F800000
1FE00000
3DF80100
607C0380
E01E0700
C00FDE00
0003FC00
0001F000
ENDCHAR
STARTCHAR 00A0
ENCODING 160
SWIDTH 203 0
DWIDTH 13 0
BBX 0 0 0 0
BITMAP
ENDCHAR
STARTCHAR 00A1
ENCODING 161
SWIDTH 266 0
DWIDTH 17 0
BBX 5 44 6 -12
BITMAP
70
F8
F8
F8
F8
70
00
00
00
00
00
00
60
60
60
60
60
60
60
60
60
60
60
60
60
70
70
70
70
70
70
70
70
70
70
70
70
70
70
70
70
70
70
70
ENDCHAR
STARTCHAR 00A2
ENCODING 162
SWIDTH 485 0
DWIDTH 31 0
BBX 23 43 4 -2
BITMAP
000C00
000C00
000C00
000C00
000C00
000C00
000C00
007FE0
01FFF8
07EC7C
0F0C1E
1E0C04
3C0C00
380C00
780C00
700C00
700C00
E00C00
E00C00
E00C00
E00C00
E00C00
E00C00
E00C00
E00C00
E00C00
700C00
700C00
780C00
380C00
1C0C02
1F0C06
0F8C1E
07FDFC
01FFF0
003FC0
000C00
000C00
000C00
000C00
000C00
000C00
000C00
ENDCHAR
STARTCHAR 00A3
ENCODING 163
SWIDTH 485 0
DWIDTH 31 0
BBX 24 42 3 0
BITMAP
001FE0
007FF8
00FFFC
01E01E
038007
078002
070000
070000
0E0000
0E0000
0E0000
0E0000
0E0000
0E0000
060000
070000
070000
070000
030000
038000
038000
FFFFF0
FFFFF0
01C000
01C000
01C000
01C000
01C000
01C000
01C000
01C000
01C000
01C000
038000
038000
070000
070000
0E0000
1C0000
3FFFFF
7FFFFF
7FFFFF
ENDCHAR
STARTCHAR 00A4
ENCODING 164
SWIDTH 485 0
DWIDTH 31 0
BBX 26 27 2 9
BITMAP
600000C0
F03F81C0
78FFE380
3FF3F700
1F807E00
0F001C00
0E000E00
1C000F00
1C000700
38000700
38000380
38000380
38000380
38000380
38000380
38000380
38000380
38000700
1C000700
1C000F00
0E000E00
0F001E00
1F803F00
3BF1F780
78FFE380
F03F81C0
600000C0
ENDCHAR
STARTCHAR 00A5
ENCODING 165
SWIDTH 485 0
DWIDTH 31 0
BBX 26 41 2 0
BITMAP
E00001C0
700001C0
70000180
38000380
38000300
1C000700
1C000600
0E000E00
0E000C00
07001C00
07001800
03003800
03803000
01807000
01C06000
00C0E000
00E0C000
0061C000
00718000
00338000
003B0000
001F0000
7FFFFF80
7FFFFF80
000E0000
000E0000
000E0000
000E0000
7FFFFF80
7FFFFF80
000E0000
000E0000
000E0000
000E0000
000E0000
000E0000
000E0000
000E0000
000E0000
000E0000
000E0000
ENDCHAR
STARTCHAR 00A6
ENCODING 166
SWIDTH 219 0
DWIDTH 14 0
BBX 2 64 6 -16
BITMAP
C0
C0
C0
C0
C0
C0
C0
C0
C0
C0
C0
C0
C0
C0
C0
C0
C0
C0
C0
C0
C0
C0
C0
C0
C0
C0
C0
C0
C0
C0
00
00
00
00
C0
C0
C0
C0
C0
C0
C0
C0
C0
C0
C0
C0
C0
C0
C0
C0
C0
C0
C0
C0
C0
C0
C0
C0
C0
C0
C0
C0
C0
C0
ENDCHAR
STARTCHAR 00A7
ENCODING 167
SWIDTH 485 0
DWIDTH 31 0
BBX 24 46 3 -3
BITMAP
00FF80
03FFE0
07C0F8
070038
0E0010
0E0000
0C0000
0E0000
0E0000
0E0000
070000
078000
07E000
0FF800
1E7E00
381F80
7007E0
7001F8
E0007C
E0001E
E0000E
E00007
E00007
700003
700003
380003
3E0003
1F8007
07E007
01F80E
007E1C
001FF8
0007F0
0001E0
0000F0
000070
000038
000038
000038
000038
000038
380070
3C00F0
1F01E0
0FFFC0
01FF00
ENDCHAR
STARTCHAR 00A8
ENCODING 168
SWIDTH 532 0
DWIDTH 34 0
BBX 16 5 9 38
BITMAP
700E
F80F
F81F
F00F
6006
ENDCHAR
STARTCHAR 00A9
ENCODING 169
SWIDTH 735 0
DWIDTH 47 0
BBX 41 42 3 -1
BITMAP
0000FF800000
0007FFF80000
001F007E0000
0078000F8000
00E00003C000
03C00000E000
070000007000
060000003800
0E0000001C00
1C007F800C00
1801FFE00E00
3803C0F00600
300700380700
700E00100300
601C00000300
601C00000380
601800000380
E03800000180
E03800000180
E03800000180
E03800000180
E03800000180
E03800000180
E03800000180
603800000180
601800000380
601C00000300
701C00000300
300E00080700
3007003C0600
3803C0F80600
1801FFE00C00
1C007F801C00
0E0000001800
070000003800
038000007000
01C00001E000
00F00003C000
0078000F0000
001F807E0000
0007FFF00000
0000FF800000
ENDCHAR
STARTCHAR 00AA
ENCODING 170
SWIDTH 344 0
DWIDTH 22 0
BBX 15 21 3 26
BITMAP
07F0
1FF8
783C
600E
000E
0006
0006
0006
00FE
07FE
3E06
7806
E006
E006
C006
C006
C00E
E01E
7076
7FE6
1F86
ENDCHAR
STARTCHAR 00AB
ENCODING 171
SWIDTH 406 0
DWIDTH 26 0
BBX 19 23 3 5
BITMAP
008040
01C0E0
0381C0
030180
070380
0E0700
1C0E00
381C00
783C00
F07800
E07000
C06000
E07000
F07800
783C00
381C00
1C0E00
0E0700
070380
070180
0381C0
01C0E0
008040
ENDCHAR
STARTCHAR 00AC
ENCODING 172
SWIDTH 485 0
DWIDTH 31 0
BBX 26 15 2 7
BITMAP
FFFFFFC0
FFFFFFC0
000000C0
000000C0
000000C0
000000C0
000000C0
000000C0
000000C0
000000C0
000000C0
000000C0
000000C0
000000C0
000000C0
ENDCHAR
STARTCHAR 00AD
ENCODING 173
SWIDTH 297 0
DWIDTH 19 0
BBX 14 2 3 15
BITMAP
FFFC
FFFC
ENDCHAR
STARTCHAR 00AE
ENCODING 174
SWIDTH 406 0
DWIDTH 26 0
BBX 23 25 1 21
BITMAP
00FE00
03FFC0
0701E0
1C0070
180038
31FC1C
71FF0C
61830E
618386
C18186
C18386
C18306
C1FE06
C1FC06
C18606
E18706
618306
61838C
31818C
380018
1C0038
0E0070
0781E0
03FF80
007E00
ENDCHAR
STARTCHAR 00AF
ENCODING 175
SWIDTH 532 0
DWIDTH 34 0
BBX 16 2 9 39
BITMAP
FFFF
FFFF
ENDCHAR
STARTCHAR 00B0
ENCODING 176
SWIDTH 313 0
DWIDTH 20 0
BBX 14 15 3 29
BITMAP
0FC0
1FE0
3878
6018
E01C
C00C
C00C
C00C
C00C
C00C
E01C
6018
7878
3FE0
0FC0
ENDCHAR
STARTCHAR 00B1
ENCODING 177
SWIDTH 485 0
DWIDTH 31 0
BBX 26 35 2 0
BITMAP
000E0000
000E0000
000E0000
000E0000
000E0000
000E0000
000E0000
000E0000
000E0000
000E0000
000E0000
000E0000
000E0000
FFFFFFC0
FFFFFFC0
000E0000
000E0000
000E0000
000E0000
000E0000
000E0000
000E0000
000E0000
000E0000
000E0000
000E0000
000E0000
000E0000
00000000
00000000
00000000
00000000
00000000
FFFFFFC0
FFFFFFC0
ENDCHAR
STARTCHAR 00B2
ENCODING 178
SWIDTH 360 0
DWIDTH 23 0
BBX 17 26 3 26
BITMAP
07E000
1FF800
3C7C00
701C00
E00E00
400E00
000600
000600
000600
000600
000600
000E00
000C00
001C00
003800
003000
007000
00E000
01C000
038000
070000
0E0000
1C0000
380000
7FFF80
7FFF80
ENDCHAR
STARTCHAR 00B3
ENCODING 179
SWIDTH 360 0
DWIDTH 23 0
BBX 17 27 3 25
BITMAP
07E000
1FF800
3C3C00
700E00
600600
000700
000700
000700
000600
000E00
001C00
003800
07F000
07F800
007C00
000E00
000700
000300
000380
000380
000380
C00300
E00700
700F00
3C1E00
1FFC00
07E000
ENDCHAR
STARTCHAR 00B4
ENCODING 180
SWIDTH 532 0
DWIDTH 34 0
BBX 10 11 14 37
BITMAP
0080
01C0
03C0
0780
0F00
0E00
1C00
3800
7000
E000
C000
ENDCHAR
STARTCHAR 00B5
ENCODING 181
SWIDTH 547 0
DWIDTH 35 0
BBX 26 42 6 -12
BITMAP
E0001C00
E0001C00
E0001C00
E0001C00
E0001C00
E0001C00
E0001C00
E0001C00
E0001C00
E0001C00
E0001C00
E0001C00
E0001C00
E0001C00
E0001C00
E0001C00
E0001C00
E0001C00
E0001C00
E0001C00
E0001C00
E0001C00
E0001C00
E0003C00
F0007C00
F0006C00
F801CC00
DC038C00
DFBF0FC0
CFFE0FC0
C3F807C0
C0000000
C0000000
C0000000
C0000000
E0000000
E0000000
E0000000
E0000000
E0000000
E0000000
E0000000
ENDCHAR
STARTCHAR 00B6
ENCODING 182
SWIDTH 516 0
DWIDTH 33 0
BBX 24 47 3 -5
BITMAP
003F87
01FF87
07FF87
1FFF87
3FFF87
3FFF87
7FFF87
7FFF87
FFFF87
FFFF87
FFFF87
FFFF87
FFFF87
FFFF87
FFFF87
FFFF87
FFFF87
FFFF87
7FFF87
7FFF87
7FFF87
3FFF87
1FFF87
0FFF87
03FF87
00FF87
000187
000007
000007
000007
000007
000007
000007
000007
000007
000007
000007
000007
000007
000007
000007
000007
000007
000007
000007
000007
000007
ENDCHAR
STARTCHAR 00B7
ENCODING 183
SWIDTH 219 0
DWIDTH 14 0
BBX 6 6 4 18
BITMAP
30
78
FC
FC
78
78
ENDCHAR
STARTCHAR 00B8
ENCODING 184
SWIDTH 532 0
DWIDTH 34 0
BBX 10 14 12 -14
BITMAP
0600
0E00
0C00
1C00
1E00
1F80
0380
01C0
01C0
01C0
01C0
0780
FE00
7000
ENDCHAR
STARTCHAR 00B9
ENCODING 185
SWIDTH 360 0
DWIDTH 23 0
BBX 8 25 6 26
BITMAP
07
1F
FF
FF
07
07
07
07
07
07
07
07
07
07
07
07
07
07
07
07
07
07
07
07
07
ENDCHAR
STARTCHAR 00BA
ENCODING 186
SWIDTH 360 0
DWIDTH 23 0
BBX 19 21 2 26
BITMAP
03F800
0FFE00
1E0F00
380380
300380
7001C0
6000C0
E000C0
E000E0
E000E0
E000E0
E000E0
E000E0
E000C0
6000C0
7001C0
300180
380380
1E0F00
0FFE00
03F800
ENDCHAR
STARTCHAR 00BB
ENCODING 187
SWIDTH 406 0
DWIDTH 26 0
BBX 19 23 4 5
BITMAP
804000
C06000
E07000
703800
381C00
1C0E00
1E0F00
0E0700
070380
0381C0
03C1E0
01C0E0
03C1E0
0381C0
070380
0E0700
1E0F00
1C0E00
381C00
703800
E07000
C06000
804000
ENDCHAR
STARTCHAR 00BC
ENCODING 188
SWIDTH 766 0
DWIDTH 49 0
BBX 41 44 5 -1
BITMAP
000000030000
060000070000
1E0000060000
FE00000C0000
FE00000C0000
060000180000
060000380000
060000300000
060000700000
060000600000
060000E00000
060000C00000
060001C00000
060001800000
060003800000
060003000000
060007000000
060006000000
06000C001800
06001C003800
060018007800
060038007800
06003000D800
06007001D800
060060019800
0600E0031800
0000C0071800
0001C00E1800
0001800C1800
0003801C1800
000300381800
000600301800
000E00701800
000C00E01800
001C00FFFF80
001800FFFF80
003800001800
003000001800
007000001800
006000001800
00E000001800
00C000001800
01C000001800
018000000000
ENDCHAR
STARTCHAR 00BD
ENCODING 189
SWIDTH 782 0
DWIDTH 50 0
BBX 42 44 5 -1
BITMAP
0000000E0000
0600000C0000
1E00001C0000
FE0000180000
FE0000300000
060000300000
060000600000
060000E00000
060000C00000
060001C00000
060001800000
060003800000
060003000000
060007000000
060006000000
06000E000000
06000C000000
06001C03F000
0600180FFC00
0600301E3E00
060070380F00
060060700700
0600E0200300
0600C0000300
0601C0000300
060180000300
000380000300
000300000300
000700000700
000600000600
000E00000E00
000C00001C00
001800001800
003800003800
003000007000
00700000E000
00600001C000
00E000038000
00C000070000
01C0000E0000
0180001C0000
0380003FFFC0
0300003FFFC0
070000000000
ENDCHAR
STARTCHAR 00BE
ENCODING 190
SWIDTH 782 0
DWIDTH 50 0
BBX 44 44 3 -1
BITMAP
07E000001800
1FF800003000
3C3C00007000
700E00006000
60060000E000
00070000C000
00070001C000
000700018000
000600038000
000E00030000
001C00070000
007800060000
07E0000E0000
07F8000C0000
003E001C0000
000F00180000
000700300000
000380700000
000380600300
000380E00700
400380C00F00
E00701C00F00
F00701801B00
7C1E03803B00
1FFC03003300
07F007006300
00000600C300
00000E00C300
00000C018300
00001C038300
000018030300
000030060300
0000700E0300
0000600C0300
0000E01FFFF0
0000C01FFFF0
0001C0000300
000180000300
000380000300
000300000300
000700000300
000600000300
000E00000300
000C00000000
ENDCHAR
STARTCHAR 00BF
ENCODING 191
SWIDTH 406 0
DWIDTH 26 0
BBX 20 45 3 -13
BITMAP
007000
00F800
00F800
00F800
007800
003000
000000
000000
000000
000000
000000
000000
003000
003000
003000
003000
003000
007000
007000
00E000
00E000
01C000
01C000
038000
070000
0F0000
0E0000
1C0000
380000
380000
700000
700000
600000
E00000
E00000
E00000
E00000
700000
700020
700030
3800F0
3C01E0
1FDFC0
0FFF00
01FC00
ENDCHAR
STARTCHAR 00C0
ENCODING 192
SWIDTH 532 0
DWIDTH 34 0
BBX 32 54 1 0
BITMAP
00200000
00700000
00780000
001C0000
000E0000
00070000
00038000
0001C000
00004000
00000000
00000000
00000000
00038000
0003C000
0007C000
0006E000
0006E000
000E6000
000E7000
000C7000
001C3000
001C3800
00183800
00381800
00381C00
00301C00
00700C00
00700E00
00600E00
00E00600
00E00700
01C00700
01C00380
01C00380
03800380
038001C0
030001C0
07FFFFC0
07FFFFE0
060000E0
0E0000E0
0E000070
0C000070
1C000070
1C000038
18000038
38000038
3800001C
7000001C
7000001E
7000000E
E000000E
E000000F
E0000007
ENDCHAR
STARTCHAR 00C1
ENCODING 193
SWIDTH 532 0
DWIDTH 34 0
BBX 32 54 1 0
BITMAP
00000C00
00001E00
00003C00
00007800
0000F000
0001E000
00038000
00070000
00020000
00000000
00000000
00000000
00038000
0003C000
0007C000
0006E000
0006E000
000E6000
000E7000
000C7000
001C3000
001C3800
00183800
00381800
00381C00
00301C00
00700C00
00700E00
00600E00
00E00600
00E00700
01C00700
01C00380
01C00380
03800380
038001C0
030001C0
07FFFFC0
07FFFFE0
060000E0
0E0000E0
0E000070
0C000070
1C000070
1C000038
18000038
38000038
3800001C
7000001C
7000001E
7000000E
E000000E
E000000F
E0000007
ENDCHAR
STARTCHAR 00C2
ENCODING 194
SWIDTH 532 0
DWIDTH 34 0
BBX 32 53 1 0
BITMAP
0003C000
0007E000
000E7000
001C3800
00381C00
00600E00
00C00700
00800300
00000000
00000000
00000000
00038000
0003C000
0007C000
0006E000
0006E000
000E6000
000E7000
000C7000
001C3000
001C3800
00183800
00381800
00381C00
00301C00
00700C00
00700E00
00600E00
00E00600
00E00700
01C00700
01C00380
01C00380
03800380
038001C0
030001C0
07FFFFC0
07FFFFE0
060000E0
0E0000E0
0E000070
0C000070
1C000070
1C000038
18000038
38000038
3800001C
7000001C
7000001E
7000000E
E000000E
E000000F
E0000007
ENDCHAR
STARTCHAR 00C3
ENCODING 195
SWIDTH 532 0
DWIDTH 34 0
BBX 32 53 1 0
BITMAP
007800C0
01FE00C0
01CF00C0
0383C1C0
0301E380
0700FF80
06007F00
00000000
00000000
00000000
00000000
00038000
0003C000
0007C000
0006E000
0006E000
000E6000
000E7000
000C7000
001C3000
001C3800
00183800
00381800
00381C00
00301C00
00700C00
00700E00
00600E00
00E00600
00E00700
01C00700
01C00380
01C00380
03800380
038001C0
030001C0
07FFFFC0
07FFFFE0
060000E0
0E0000E0
0E000070
0C000070
1C000070
1C000038
18000038
38000038
3800001C
7000001C
7000001E
7000000E
E000000E
E000000F
E0000007
ENDCHAR
STARTCHAR 00C4
ENCODING 196
SWIDTH 532 0
DWIDTH 34 0
BBX 32 51 1 0
BITMAP
00E00700
01F00F00
01F00F00
01F00F00
00400600
00000000
00000000
00000000
00000000
00038000
0003C000
0007C000
0006E000
0006E000
000E6000
000E7000
000C7000
001C3000
001C3800
00183800
00381800
00381C00
00301C00
00700C00
00700E00
00600E00
00E00600
00E00700
01C00700
01C00380
01C00380
03800380
038001C0
030001C0
07FFFFC0
07FFFFE0
060000E0
0E0000E0
0E000070
0C000070
1C000070
1C000038
18000038
38000038
3800001C
7000001C
7000001E
7000000E
E000000E
E000000F
E0000007
ENDCHAR
STARTCHAR 00C5
ENCODING 197
SWIDTH 532 0
DWIDTH 34 0
BBX 32 55 1 0
BITMAP
0007C000
000FF000
00183800
00181800
00301800
00301800
00301800
00181800
001C3000
000FE000
00018000
00000000
00000000
00038000
0003C000
0007C000
0006E000
0006E000
000E6000
000E7000
000C7000
001C3000
001C3800
00183800
00381800
00381C00
00301C00
00700C00
00700E00
00600E00
00E00600
00E00700
01C00700
01C00380
01C00380
03800380
038001C0
030001C0
07FFFFC0
07FFFFE0
060000E0
0E0000E0
0E000070
0C000070
1C000070
1C000038
18000038
38000038
3800001C
7000001C
7000001E
7000000E
E000000E
E000000F
E0000007
ENDCHAR
STARTCHAR 00C6
ENCODING 198
SWIDTH 813 0
DWIDTH 52 0
BBX 47 42 2 0
BITMAP
000003FFFFFC
000003FFFFFC
000007FFFFFC
000006E00000
00000EE00000
00000CE00000
00001CE00000
000038E00000
000038E00000
000070E00000
000070E00000
0000E0E00000
0000E0E00000
0001C0E00000
0001C0E00000
000380E00000
000780E00000
000700E00000
000E00FFFFE0
000E00FFFFE0
001C00FFFFE0
001C00E00000
003800E00000
003800E00000
007000E00000
00E000E00000
00FFFFE00000
01FFFFE00000
01C000E00000
038000E00000
038000E00000
070000E00000
070000E00000
0E0000E00000
1E0000E00000
1C0000E00000
380000E00000
380000E00000
700000E00000
700000FFFFFE
E00000FFFFFE
E00000FFFFFE
ENDCHAR
STARTCHAR 00C7
ENCODING 199
SWIDTH 563 0
DWIDTH 36 0
BBX 29 57 4 -14
BITMAP
0007F800
003FFF00
00FFFFC0
01F803E0
03C000F0
07800070
0F000020
1E000000
1C000000
38000000
38000000
78000000
70000000
70000000
E0000000
E0000000
E0000000
E0000000
E0000000
E0000000
E0000000
E0000000
E0000000
E0000000
E0000000
E0000000
E0000000
E0000000
E0000000
F0000000
70000000
70000000
78000000
38000000
3C000000
1C000000
1E000000
0F000018
07800078
03C000F0
01F803E0
00FFFFC0
003FFF00
0007F800
0000E000
0000C000
0000C000
0001C000
0001F000
00003800
00001C00
00001C00
00001C00
00001C00
00007800
000FE000
00070000
ENDCHAR
STARTCHAR 00C8
ENCODING 200
SWIDTH 516 0
DWIDTH 33 0
BBX 24 54 6 0
BITMAP
020000
078000
03C000
01E000
00F000
007800
003C00
000E00
000400
000000
000000
000000
FFFFFE
FFFFFE
FFFFFE
E00000
E00000
E00000
E00000
E00000
E00000
E00000
E00000
E00000
E00000
E00000
E00000
E00000
E00000
E00000
FFFFF0
FFFFF0
FFFFF0
E00000
E00000
E00000
E00000
E00000
E00000
E00000
E00000
E00000
E00000
E00000
E00000
E00000
E00000
E00000
E00000
E00000
E00000
FFFFFF
FFFFFF
FFFFFF
ENDCHAR
STARTCHAR 00C9
ENCODING 201
SWIDTH 516 0
DWIDTH 33 0
BBX 24 54 6 0
BITMAP
000040
0000E0
0003C0
000780
000F00
001E00
003C00
007000
002000
000000
000000
000000
FFFFFE
FFFFFE
FFFFFE
E00000
E00000
E00000
E00000
E00000
E00000
E00000
E00000
E00000
E00000
E00000
E00000
E00000
E00000
E00000
FFFFF0
FFFFF0
FFFFF0
E00000
E00000
E00000
E00000
E00000
E00000
E00000
E00000
E00000
E00000
E00000
E00000
E00000
E00000
E00000
E00000
E00000
E00000
FFFFFF
FFFFFF
FFFFFF
ENDCHAR
STARTCHAR 00CA
ENCODING 202
SWIDTH 516 0
DWIDTH 33 0
BBX 24 53 6 0
BITMAP
003C00
007E00
00E700
01C380
0381C0
0700E0
0E0070
080010
000000
000000
000000
FFFFFE
FFFFFE
FFFFFE
E00000
E00000
E00000
E00000
E00000
E00000
E00000
E00000
E00000
E00000
E00000
E00000
E00000
E00000
E00000
FFFFF0
FFFFF0
FFFFF0
E00000
E00000
E00000
E00000
E00000
E00000
E00000
E00000
E00000
E00000
E00000
E00000
E00000
E00000
E00000
E00000
E00000
E00000
FFFFFF
FFFFFF
FFFFFF
ENDCHAR
STARTCHAR 00CB
ENCODING 203
SWIDTH 516 0
DWIDTH 33 0
BBX 24 51 6 0
BITMAP
0E0070
0F00F0
1F00F8
0F00F0
060060
000000
000000
000000
000000
FFFFFE
FFFFFE
FFFFFE
E00000
E00000
E00000
E00000
E00000
E00000
E00000
E00000
E00000
E00000
E00000
E00000
E00000
E00000
E00000
FFFFF0
FFFFF0
FFFFF0
E00000
E00000
E00000
E00000
E00000
E00000
E00000
E00000
E00000
E00000
E00000
E00000
E00000
E00000
E00000
E00000
E00000
E00000
FFFFFF
FFFFFF
FFFFFF
ENDCHAR
STARTCHAR 00CC
ENCODING 204
SWIDTH 234 0
DWIDTH 15 0
BBX 9 54 1 0
BITMAP
4000
E000
F000
3800
1C00
0E00
0700
0380
0100
0000
0000
0000
0700
0700
0700
0700
0700
0700
0700
0700
0700
0700
0700
0700
0700
0700
0700
0700
0700
0700
0700
0700
0700
0700
0700
0700
0700
0700
0700
0700
0700
0700
0700
0700
0700
0700
0700
0700
0700
0700
0700
0700
0700
0700
ENDCHAR
STARTCHAR 00CD
ENCODING 205
SWIDTH 234 0
DWIDTH 15 0
BBX 10 54 5 0
BITMAP
0180
03C0
0780
0F00
1E00
3800
7000
E000
4000
0000
0000
0000
7000
7000
7000
7000
7000
7000
7000
7000
7000
7000
7000
7000
7000
7000
7000
7000
7000
7000
7000
7000
7000
7000
7000
7000
7000
7000
7000
7000
7000
7000
7000
7000
7000
7000
7000
7000
7000
7000
7000
7000
7000
7000
ENDCHAR
STARTCHAR 00CE
ENCODING 206
SWIDTH 234 0
DWIDTH 15 0
BBX 17 53 -1 0
BITMAP
01E000
03F000
077800
1E1C00
3C0E00
700700
E00380
400180
000000
000000
000000
01C000
01C000
01C000
01C000
01C000
01C000
01C000
01C000
01C000
01C000
01C000
01C000
01C000
01C000
01C000
01C000
01C000
01C000
01C000
01C000
01C000
01C000
01C000
01C000
01C000
01C000
01C000
01C000
01C000
01C000
01C000
01C000
01C000
01C000
01C000
01C000
01C000
01C000
01C000
01C000
01C000
01C000
ENDCHAR
STARTCHAR 00CF
ENCODING 207
SWIDTH 234 0
DWIDTH 15 0
BBX 17 51 -1 0
BITMAP
700700
F80780
F80780
F80780
600300
000000
000000
000000
000000
01C000
01C000
01C000
01C000
01C000
01C000
01C000
01C000
01C000
01C000
01C000
01C000
01C000
01C000
01C000
01C000
01C000
01C000
01C000
01C000
01C000
01C000
01C000
01C000
01C000
01C000
01C000
01C000
01C000
01C000
01C000
01C000
01C000
01C000
01C000
01C000
01C000
01C000
01C000
01C000
01C000
01C000
ENDCHAR
STARTCHAR 00D0
ENCODING 208
SWIDTH 626 0
DWIDTH 40 0
BBX 34 42 2 0
BITMAP
03FFF80000
03FFFF0000
0301FFC000
030007E000
030000F800
0300007C00
0300003C00
0300001E00
0300000F00
0300000700
0300000780
0300000380
0300000380
03000003C0
03000001C0
03000001C0
03000001C0
03000001C0
03000001C0
FFFFE001C0
FFFFE001C0
03000001C0
03000001C0
03000001C0
03000001C0
03000001C0
03000001C0
03000001C0
03000003C0
0300000380
0300000380
0300000780
0300000700
0300000F00
0300001E00
0300003C00
0300007800
030000F800
030003E000
0301FFC000
03FFFF0000
03FFF00000
ENDCHAR
STARTCHAR 00D1
ENCODING 209
SWIDTH 641 0
DWIDTH 41 0
BBX 28 53 6 0
BITMAP
00F00180
03FC0180
07BE0180
060F0380
0603C700
0E01FE00
0C00FC00
00000000
00000000
00000000
00000000
F0000030
F0000030
F8000030
F8000030
FC000030
EE000030
EE000030
E7000030
E7000030
E3800030
E1C00030
E1C00030
E0E00030
E0E00030
E0700030
E0780030
E0380030
E01C0030
E01C0030
E00E0030
E00F0030
E0070030
E0038030
E0038030
E001C030
E001E030
E000E030
E0007030
E0007030
E0003830
E0003C30
E0001C30
E0000E30
E0000E30
E0000730
E0000730
E00003B0
E00001B0
E00001F0
E00000F0
E00000F0
E0000070
ENDCHAR
STARTCHAR 00D2
ENCODING 210
SWIDTH 657 0
DWIDTH 42 0
BBX 34 56 4 -1
BITMAP
0010000000
0018000000
003C000000
001E000000
000F000000
0007800000
0003C00000
0001E00000
0000600000
0000000000
0000000000
0000000000
0007F80000
003FFF0000
00FFFFC000
01F007E000
03C001F000
0780007800
0F00003C00
1E00001E00
1C00000E00
3800000F00
3800000700
7000000780
7000000380
7000000380
E000000380
E0000003C0
E0000001C0
E0000001C0
E0000001C0
E0000001C0
E0000001C0
E0000001C0
E0000001C0
E0000001C0
E0000001C0
E0000001C0
E0000001C0
E0000001C0
E0000003C0
F000000380
7000000380
7000000380
7800000700
3800000700
3C00000F00
1C00000E00
1E00001C00
0F00003C00
0780007800
03C000F000
01F003E000
00FFFF8000
003FFF0000
0007F80000
ENDCHAR
STARTCHAR 00D3
ENCODING 211
SWIDTH 657 0
DWIDTH 42 0
BBX 34 55 4 0
BITMAP
0000060000
00000F0000
00001E0000
00003C0000
0000700000
0000E00000
0001C00000
0003800000
0001000000
0000000000
0000000000
0007F80000
003FFF0000
00FFFFC000
01F007E000
03C001F000
0780007800
0F00003C00
1E00001E00
1C00000E00
3800000F00
3800000700
7000000780
7000000380
7000000380
E000000380
E0000003C0
E0000001C0
E0000001C0
E0000001C0
E0000001C0
E0000001C0
E0000001C0
E0000001C0
E0000001C0
E0000001C0
E0000001C0
E0000001C0
E0000001C0
E0000003C0
F000000380
7000000380
7000000380
7800000700
3800000700
3C00000F00
1C00000E00
1E00001C00
0F00003C00
0780007800
03C000F000
01F003E000
00FFFF8000
003FFF0000
0007F80000
ENDCHAR
STARTCHAR 00D4
ENCODING 212
SWIDTH 657 0
DWIDTH 42 0
BBX 34 55 4 -1
BITMAP
0001E00000
0003F00000
0007780000
000E3C0000
001C0E0000
0038070000
0070038000
00E0018000
0040000000
0000000000
0000000000
0007F80000
003FFF0000
00FFFFC000
01F007E000
03C001F000
0780007800
0F00003C00
1E00001E00
1C00000E00
3800000F00
3800000700
7000000780
7000000380
7000000380
E000000380
E0000003C0
E0000001C0
E0000001C0
E0000001C0
E0000001C0
E0000001C0
E0000001C0
E0000001C0
E0000001C0
E0000001C0
E0000001C0
E0000001C0
E0000001C0
E0000003C0
F000000380
7000000380
7000000380
7800000700
3800000700
3C00000F00
1C00000E00
1E00001C00
0F00003C00
0780007800
03C000F000
01F003E000
00FFFF8000
003FFF0000
0007F80000
ENDCHAR
STARTCHAR 00D5
ENCODING 213
SWIDTH 657 0
DWIDTH 42 0
BBX 34 54 4 -1
BITMAP
007E006000
00FF806000
01C3C06000
0181E0E000
0180FBC000
03803F8000
03001F0000
0000000000
0000000000
0000000000
0007F80000
003FFF0000
00FFFFC000
01F007E000
03C001F000
0780007800
0F00003C00
1E00001E00
1C00000E00
3800000F00
3800000700
7000000780
7000000380
7000000380
E000000380
E0000003C0
E0000001C0
E0000001C0
E0000001C0
E0000001C0
E0000001C0
E0000001C0
E0000001C0
E0000001C0
E0000001C0
E0000001C0
E0000001C0
E0000001C0
E0000003C0
F000000380
7000000380
7000000380
7800000700
3800000700
3C00000F00
1C00000E00
1E00001C00
0F00003C00
0780007800
03C000F000
01F003E000
00FFFF8000
003FFF0000
0007F80000
ENDCHAR
STARTCHAR 00D6
ENCODING 214
SWIDTH 657 0
DWIDTH 42 0
BBX 34 52 4 -1
BITMAP
0070038000
00F8078000
00F8078000
0078078000
0030030000
0000000000
0000000000
0000000000
0007F80000
003FFF0000
00FFFFC000
01F007E000
03C001F000
0780007800
0F00003C00
1E00001E00
1C00000E00
3800000F00
3800000700
7000000780
7000000380
7000000380
E000000380
E0000003C0
E0000001C0
E0000001C0
E0000001C0
E0000001C0
E0000001C0
E0000001C0
E0000001C0
E0000001C0
E0000001C0
E0000001C0
E0000001C0
E0000001C0
E0000003C0
F000000380
7000000380
7000000380
7800000700
3800000700
3C00000F00
1C00000E00
1E00001C00
0F00003C00
0780007800
03C000F000
01F003E000
00FFFF8000
003FFF0000
0007F80000
ENDCHAR
STARTCHAR 00D7
ENCODING 215
SWIDTH 485 0
DWIDTH 31 0
BBX 23 25 4 9
BITMAP
000004
C0000E
E0001E
70003C
380078
1C00F0
0E01E0
0701C0
038380
01C700
00EE00
007C00
003800
007C00
00FE00
01CF00
038780
0703C0
0E01E0
1C00F0
380078
70003C
E0001E
C0000E
800004
ENDCHAR
STARTCHAR 00D8
ENCODING 216
SWIDTH 657 0
DWIDTH 42 0
BBX 34 45 4 -1
BITMAP
0007F80180
003FFF01C0
00FFFFC380
01F003E700
03C000FE00
0780007E00
0F00003C00
1E00003E00
1C00007E00
3C00006F00
380000E700
380001C780
7000038380
7000030380
70000703C0
E0000E01C0
E0001C01C0
E0001C01C0
E0003801C0
E0007001C0
E000E001C0
E000E001C0
E001C001C0
E0038001C0
E0070001C0
E0070001C0
E00E0001C0
E01C0001C0
F0180001C0
70380003C0
7070000380
70E0000380
38C0000780
39C0000700
1F80000F00
1F00000E00
0E00001E00
0F00003C00
1F80007800
3BE000F000
79F803E000
70FFFFC000
E03FFF0000
C007F80000
4000000000
ENDCHAR
STARTCHAR 00D9
ENCODING 217
SWIDTH 641 0
DWIDTH 41 0
BBX 28 55 6 -1
BITMAP
00C00000
01E00000
00F00000
00780000
003C0000
001E0000
00070000
00038000
00010000
00000000
00000000
00000000
E0000030
E0000030
E0000030
E0000030
E0000030
E0000030
E0000030
E0000030
E0000030
E0000030
E0000030
E0000030
E0000030
E0000030
E0000030
E0000030
E0000030
E0000030
E0000030
E0000030
E0000030
E0000030
E0000030
E0000030
E0000030
E0000030
E0000030
E0000030
E0000030
E0000070
E0000070
70000070
70000070
70000060
780000E0
380000E0
3C0001C0
1E0003C0
0F000780
0FC01F00
03FFFE00
01FFF800
003FC000
ENDCHAR
STARTCHAR 00DA
ENCODING 218
SWIDTH 641 0
DWIDTH 41 0
BBX 28 55 6 -1
BITMAP
00001000
00003800
00007800
0000E000
0001C000
00038000
00070000
000E0000
00080000
00000000
00000000
00000000
E0000030
E0000030
E0000030
E0000030
E0000030
E0000030
E0000030
E0000030
E0000030
E0000030
E0000030
E0000030
E0000030
E0000030
E0000030
E0000030
E0000030
E0000030
E0000030
E0000030
E0000030
E0000030
E0000030
E0000030
E0000030
E0000030
E0000030
E0000030
E0000030
E0000070
E0000070
70000070
70000070
70000060
780000E0
380000E0
3C0001C0
1E0003C0
0F000780
0FC01F00
03FFFE00
01FFF800
003FC000
ENDCHAR
STARTCHAR 00DB
ENCODING 219
SWIDTH 641 0
DWIDTH 41 0
BBX 28 54 6 -1
BITMAP
000F0000
001F8000
003DC000
0070E000
00E07000
01C01800
03800C00
03000400
00000000
00000000
00000000
E0000030
E0000030
E0000030
E0000030
E0000030
E0000030
E0000030
E0000030
E0000030
E0000030
E0000030
E0000030
E0000030
E0000030
E0000030
E0000030
E0000030
E0000030
E0000030
E0000030
E0000030
E0000030
E0000030
E0000030
E0000030
E0000030
E0000030
E0000030
E0000030
E0000070
E0000070
70000070
70000070
70000060
780000E0
380000E0
3C0001C0
1E0003C0
0F000780
0FC01F00
03FFFE00
01FFF800
003FC000
ENDCHAR
STARTCHAR 00DC
ENCODING 220
SWIDTH 641 0
DWIDTH 41 0
BBX 28 52 6 -1
BITMAP
01801C00
03C03E00
03C03E00
03C03E00
01800800
00000000
00000000
00000000
00000000
E0000030
E0000030
E0000030
E0000030
E0000030
E0000030
E0000030
E0000030
E0000030
E0000030
E0000030
E0000030
E0000030
E0000030
E0000030
E0000030
E0000030
E0000030
E0000030
E0000030
E0000030
E0000030
E0000030
E0000030
E0000030
E0000030
E0000030
E0000030
E0000030
E0000070
E0000070
70000070
70000070
70000060
780000E0
380000E0
3C0001C0
1E0003C0
0F000780
0FC01F00
03FFFE00
01FFF800
003FC000
ENDCHAR
STARTCHAR 00DD
ENCODING 221
SWIDTH 453 0
DWIDTH 29 0
BBX 28 54 0 0
BITMAP
00001000
00003800
00007800
0000E000
0001C000
00038000
00070000
000E0000
00080000
00000000
00000000
00000000
F0000070
70000070
780000E0
380000E0
3C0001C0
1C0001C0
1C000380
0E000380
0E000700
07000700
07000E00
03800E00
03801C00
01C01C00
01C03800
00E03800
00E07000
00706000
0070E000
0038C000
0039C000
001D8000
001F8000
000F0000
00070000
00070000
00070000
00070000
00070000
00070000
00070000
00070000
00070000
00070000
00070000
00070000
00070000
00070000
00070000
00070000
00070000
00070000
ENDCHAR
STARTCHAR 00DE
ENCODING 222
SWIDTH 563 0
DWIDTH 36 0
BBX 27 42 6 0
BITMAP
E0000000
E0000000
E0000000
E0000000
E0000000
E0000000
E0000000
E0000000
FFFFE000
FFFFFC00
E0007E00
E0000F00
E0000780
E00003C0
E00001C0
E00001C0
E00001E0
E00000E0
E00000E0
E00000E0
E00000E0
E00000E0
E00001C0
E00001C0
E00001C0
E0000380
E0000780
E0001F00
E000FE00
FFFFF800
FFFFE000
FFF00000
E0000000
E0000000
E0000000
E0000000
E0000000
E0000000
E0000000
E0000000
E0000000
E0000000
ENDCHAR
STARTCHAR 00DF
ENCODING 223
SWIDTH 547 0
DWIDTH 35 0
BBX 27 48 6 -1
BITMAP
01FC0000
07FF0000
0FDF8000
1E03C000
3801E000
7800E000
7000E000
70007000
E0007000
E0007000
E0007000
E000E000
E000E000
E001C000
E001C000
E0038000
E0070000
E00F0000
E00E0000
E01C0000
E01C0000
E01C0000
E0180000
E0180000
E01C0000
E01C0000
E01E0000
E00F0000
E007C000
E003F000
E000FC00
E0003E00
E0000F00
E0000780
E00003C0
E00001C0
E00001E0
E00000E0
E00000E0
E00000E0
E00000E0
E00000C0
E00001C0
E02003C0
E0780780
E03FBF00
E01FFE00
0003F800
ENDCHAR
STARTCHAR 00E0
ENCODING 224
SWIDTH 485 0
DWIDTH 31 0
BBX 22 48 4 0
BITMAP
030000
078000
03C000
01E000
00F000
007800
003C00
000E00
000600
000200
000000
000000
000000
000000
000000
007F00
03FFC0
0FFFE0
3E00F0
780078
200038
00001C
00001C
00001C
00001C
00001C
00000C
00001C
0007FC
007FFC
03FC1C
0FC01C
1F001C
3C001C
78001C
70001C
E0001C
E0001C
E0001C
E0001C
E0001C
E0003C
E0007C
7000EC
7803CC
3FBF0C
1FFC0C
07F000
ENDCHAR
STARTCHAR 00E1
ENCODING 225
SWIDTH 485 0
DWIDTH 31 0
BBX 22 49 4 -1
BITMAP
000040
0000E0
0001E0
0003C0
000380
000700
000E00
001C00
003800
007000
002000
000000
000000
000000
000000
000000
007F00
03FFC0
0FFFE0
3E00F0
780078
200038
00001C
00001C
00001C
00001C
00001C
00000C
00001C
0007FC
007FFC
03FC1C
0FC01C
1F001C
3C001C
78001C
70001C
E0001C
E0001C
E0001C
E0001C
E0001C
E0003C
E0007C
7000EC
7803CC
3FBF0C
1FFC0C
07F000
ENDCHAR
STARTCHAR 00E2
ENCODING 226
SWIDTH 485 0
DWIDTH 31 0
BBX 22 48 4 -1
BITMAP
003C00
007E00
00F700
00E380
01C1C0
0380E0
070060
0E0070
0C0038
080010
000000
000000
000000
000000
000000
007F00
03FFC0
0FFFE0
3E00F0
780078
200038
00001C
00001C
00001C
00001C
00001C
00000C
00001C
0007FC
007FFC
03FC1C
0FC01C
1F001C
3C001C
78001C
70001C
E0001C
E0001C
E0001C
E0001C
E0001C
E0003C
E0007C
7000EC
7803CC
3FBF0C
1FFC0C
07F000
ENDCHAR
STARTCHAR 00E3
ENCODING 227
SWIDTH 485 0
DWIDTH 31 0
BBX 23 47 4 -1
BITMAP
07C006
0FE00E
1E700E
18380C
381C0C
300F1C
3007F8
3003F0
000000
000000
000000
000000
000000
000000
007F00
03FFC0
0FFFE0
3E00F0
780078
200038
00001C
00001C
00001C
00001C
00001C
00000C
00001C
0007FC
007FFC
03FC1C
0FC01C
1F001C
3C001C
78001C
70001C
E0001C
E0001C
E0001C
E0001C
E0001C
E0003C
E0007C
7000EC
7803CC
3FBF0C
1FFC0C
07F000
ENDCHAR
STARTCHAR 00E4
ENCODING 228
SWIDTH 485 0
DWIDTH 31 0
BBX 22 45 4 -1
BITMAP
030060
0780F0
0F80F0
0F80F0
0700E0
000000
000000
000000
000000
000000
000000
000000
007F00
03FFC0
0FFFE0
3E00F0
780078
200038
00001C
00001C
00001C
00001C
00001C
00000C
00001C
0007FC
007FFC
03FC1C
0FC01C
1F001C
3C001C
78001C
70001C
E0001C
E0001C
E0001C
E0001C
E0001C
E0003C
E0007C
7000EC
7803CC
3FBF0C
1FFC0C
07F000
ENDCHAR
STARTCHAR 00E5
ENCODING 229
SWIDTH 485 0
DWIDTH 31 0
BBX 22 49 4 -1
BITMAP
001800
007F00
01C380
0181C0
0380C0
0300C0
0300C0
0300C0
0380C0
0180C0
01C380
00FF00
001800
000000
000000
000000
007F00
03FFC0
0FFFE0
3E00F0
780078
200038
00001C
00001C
00001C
00001C
00001C
00000C
00001C
0007FC
007FFC
03FC1C
0FC01C
1F001C
3C001C
78001C
70001C
E0001C
E0001C
E0001C
E0001C
E0001C
E0003C
E0007C
7000EC
7803CC
3FBF0C
1FFC0C
07F000
ENDCHAR
STARTCHAR 00E6
ENCODING 230
SWIDTH 782 0
DWIDTH 50 0
BBX 44 33 4 -1
BITMAP
007F0007F000
03FFC01FFC00
0FFFE03F7E00
3F00F0700F00
3C0070E00380
100039C001C0
00001B8001C0
00001F8000E0
00001F0000E0
00001F0000E0
00000E000060
00000E000070
00000E000070
0003FC000070
003FFC000070
01FE0FFFFFF0
07E00FFFFFF0
0F000C000000
1C000C000000
38000E000000
70000E000000
70000E000000
E0000E000000
E00007000000
E00007000000
E0000F800000
E0001F800000
700039C00000
7000F1E000C0
3C03C0F803C0
3FBF803FFFC0
1FFE001FFF00
03F00007F800
ENDCHAR
STARTCHAR 00E7
ENCODING 231
SWIDTH 453 0
DWIDTH 29 0
BBX 24 46 3 -14
BITMAP
001FC0
00FFF0
01FFFC
07C03E
0F000E
0E0004
1C0000
3C0000
380000
780000
700000
700000
700000
700000
E00000
E00000
E00000
E00000
E00000
E00000
700000
700000
700000
780000
380000
3C0000
1C0000
1E0002
0F0007
07C01E
03FDFC
00FFF0
003FC0
000600
000E00
000C00
001C00
001F80
0003C0
0001C0
0000C0
0000C0
0001C0
000780
007F00
007800
ENDCHAR
STARTCHAR 00E8
ENCODING 232
SWIDTH 485 0
DWIDTH 31 0
BBX 25 49 3 -1
BITMAP
00800000
01C00000
01E00000
00E00000
00700000
00380000
001C0000
000E0000
00070000
00038000
00010000
00000000
00000000
00000000
00000000
00000000
001F8000
00FFF000
01FBF800
07C03C00
0F001E00
0E000E00
1C000700
38000700
38000380
30000380
70000380
70000180
70000180
60000180
E0000180
FFFFFF80
FFFFFF80
E0000000
E0000000
E0000000
70000000
70000000
70000000
78000000
38000000
3C000000
1C000000
0E000000
0F000200
07C00F00
03FCFE00
00FFF800
001FE000
ENDCHAR
STARTCHAR 00E9
ENCODING 233
SWIDTH 485 0
DWIDTH 31 0
BBX 25 48 3 0
BITMAP
00003000
00007800
0000F000
0001C000
00038000
00070000
000E0000
001C0000
00380000
00100000
00000000
00000000
00000000
00000000
00000000
001F8000
00FFF000
01FBF800
07C03C00
0F001E00
0E000E00
1C000700
38000700
38000380
30000380
70000380
70000180
70000180
60000180
E0000180
FFFFFF80
FFFFFF80
E0000000
E0000000
E0000000
70000000
70000000
70000000
78000000
38000000
3C000000
1C000000
0E000000
0F000200
07C00F00
03FCFE00
00FFF800
001FE000
ENDCHAR
STARTCHAR 00EA
ENCODING 234
SWIDTH 485 0
DWIDTH 31 0
BBX 25 48 3 -1
BITMAP
000F0000
001F8000
003B8000
0071C000
00E0E000
01C07000
01803800
03801C00
07000C00
02000400
00000000
00000000
00000000
00000000
00000000
001F8000
00FFF000
01FBF800
07C03C00
0F001E00
0E000E00
1C000700
38000700
38000380
30000380
70000380
70000180
70000180
60000180
E0000180
FFFFFF80
FFFFFF80
E0000000
E0000000
E0000000
70000000
70000000
70000000
78000000
38000000
3C000000
1C000000
0E000000
0F000200
07C00F00
03FCFE00
00FFF800
001FE000
ENDCHAR
STARTCHAR 00EB
ENCODING 235
SWIDTH 485 0
DWIDTH 31 0
BBX 25 45 3 -1
BITMAP
01803000
03C07800
03C07C00
03C07C00
03803800
00000000
00000000
00000000
00000000
00000000
00000000
00000000
001F8000
00FFF000
01FBF800
07C03C00
0F001E00
0E000E00
1C000700
38000700
38000380
30000380
70000380
70000180
70000180
60000180
E0000180
FFFFFF80
FFFFFF80
E0000000
E0000000
E0000000
70000000
70000000
70000000
78000000
38000000
3C000000
1C000000
0E000000
0F000200
07C00F00
03FCFE00
00FFF800
001FE000
ENDCHAR
STARTCHAR 00EC
ENCODING 236
SWIDTH 234 0
DWIDTH 15 0
BBX 10 47 0 1
BITMAP
6000
F000
7800
3C00
1E00
0F00
0780
0380
01C0
00C0
0000
0000
0000
0000
0000
0000
0380
0380
0380
0380
0380
0380
0380
0380
0380
0380
0380
0380
0380
0380
0380
0380
0380
0380
0380
0380
0380
0380
0380
0380
0380
0380
0380
0380
0380
0380
0380
ENDCHAR
STARTCHAR 00ED
ENCODING 237
SWIDTH 234 0
DWIDTH 15 0
BBX 10 48 4 0
BITMAP
0080
01C0
03C0
0380
0700
0E00
1C00
3800
7000
E000
4000
0000
0000
0000
0000
0000
0000
3800
3800
3800
3800
3800
3800
3800
3800
3800
3800
3800
3800
3800
3800
3800
3800
3800
3800
3800
3800
3800
3800
3800
3800
3800
3800
3800
3800
3800
3800
3800
ENDCHAR
STARTCHAR 00EE
ENCODING 238
SWIDTH 234 0
DWIDTH 15 0
BBX 17 47 -1 0
BITMAP
03C000
07E000
077000
0E3800
1C1C00
380C00
700E00
E00700
C00380
800100
000000
000000
000000
000000
000000
000000
01C000
01C000
01C000
01C000
01C000
01C000
01C000
01C000
01C000
01C000
01C000
01C000
01C000
01C000
01C000
01C000
01C000
01C000
01C000
01C000
01C000
01C000
01C000
01C000
01C000
01C000
01C000
01C000
01C000
01C000
01C000
ENDCHAR
STARTCHAR 00EF
ENCODING 239
SWIDTH 234 0
DWIDTH 15 0
BBX 16 43 -1 0
BITMAP
7006
F80F
F80F
F80F
3006
0000
0000
0000
0000
0000
0000
0000
01C0
01C0
01C0
01C0
01C0
01C0
01C0
01C0
01C0
01C0
01C0
01C0
01C0
01C0
01C0
01C0
01C0
01C0
01C0
01C0
01C0
01C0
01C0
01C0
01C0
01C0
01C0
01C0
01C0
01C0
01C0
ENDCHAR
STARTCHAR 00F0
ENCODING 240
SWIDTH 532 0
DWIDTH 34 0
BBX 26 47 4 -1
BITMAP
01000000
03C00000
01E001C0
00F80780
003C1E00
001E7800
0007E000
00078000
001FC000
007CE000
01F07000
07C03800
03003800
00001C00
00000E00
00000E00
00000600
00000700
007F0700
01FFE380
07FBF380
0F003B80
1E001F80
3C0007C0
380003C0
700003C0
700001C0
600001C0
E00001C0
E00001C0
E00001C0
E00001C0
E00001C0
E00001C0
E00001C0
E0000180
E0000380
70000380
70000380
78000700
38000700
1C000E00
1E001C00
0F807800
07FFF000
01FFE000
003F0000
ENDCHAR
STARTCHAR 00F1
ENCODING 241
SWIDTH 532 0
DWIDTH 34 0
BBX 23 46 6 0
BITMAP
07C00E
0FE00C
1CF00C
18380C
301C1C
300E18
3007F8
3003F0
000000
000000
000000
000000
000000
000000
003F80
C0FFE0
C3FFF0
C78078
EE0038
FC003C
F8001C
F0001C
E0001C
E0000C
E0000E
E0000E
E0000E
E0000E
E0000E
E0000E
E0000E
E0000E
E0000E
E0000E
E0000E
E0000E
E0000E
E0000E
E0000E
E0000E
E0000E
E0000E
E0000E
E0000E
E0000E
E0000E
ENDCHAR
STARTCHAR 00F2
ENCODING 242
SWIDTH 532 0
DWIDTH 34 0
BBX 28 49 3 -1
BITMAP
00800000
01C00000
01E00000
00F00000
00780000
003C0000
001E0000
000E0000
00070000
00038000
00018000
00000000
00000000
00000000
00000000
00000000
001FC000
00FFF000
03FFFC00
07C03E00
0F000F00
0E000780
1C000380
3C0001C0
380001C0
780000E0
700000E0
700000E0
70000070
60000070
E0000070
E0000070
E0000070
E0000070
E0000070
E0000070
70000070
700000E0
700000E0
780000E0
380001C0
3C0001C0
1C000380
1E000780
0F000F00
07C03E00
03FFFC00
00FFF000
003FC000
ENDCHAR
STARTCHAR 00F3
ENCODING 243
SWIDTH 532 0
DWIDTH 34 0
BBX 28 49 3 -1
BITMAP
00001000
00003800
00007800
0000F000
0001E000
0003C000
00038000
00070000
000E0000
001C0000
00080000
00000000
00000000
00000000
00000000
00000000
001FC000
00FFF000
03FFFC00
07C03E00
0F000F00
0E000780
1C000380
3C0001C0
380001C0
780000E0
700000E0
700000E0
70000070
60000070
E0000070
E0000070
E0000070
E0000070
E0000070
E0000070
70000070
700000E0
700000E0
780000E0
380001C0
3C0001C0
1C000380
1E000780
0F000F00
07C03E00
03FFFC00
00FFF000
003FC000
ENDCHAR
STARTCHAR 00F4
ENCODING 244
SWIDTH 532 0
DWIDTH 34 0
BBX 28 48 3 -1
BITMAP
000F0000
001F8000
0039C000
0078E000
0070E000
00E07000
01C03800
03801C00
07000E00
02000400
00000000
00000000
00000000
00000000
00000000
001FC000
00FFF000
03FFFC00
07C03E00
0F000F00
0E000780
1C000380
3C0001C0
380001C0
780000E0
700000E0
700000E0
70000070
60000070
E0000070
E0000070
E0000070
E0000070
E0000070
E0000070
70000070
700000E0
700000E0
780000E0
380001C0
3C0001C0
1C000380
1E000780
0F000F00
07C03E00
03FFFC00
00FFF000
003FC000
ENDCHAR
STARTCHAR 00F5
ENCODING 245
SWIDTH 532 0
DWIDTH 34 0
BBX 28 47 3 -1
BITMAP
01F00380
03F80300
073C0300
060E0300
0C070700
0C038600
0C01FE00
0C00FC00
00000000
00000000
00000000
00000000
00000000
00000000
001FC000
00FFF000
03FFFC00
07C03E00
0F000F00
0E000780
1C000380
3C0001C0
380001C0
780000E0
700000E0
700000E0
70000070
60000070
E0000070
E0000070
E0000070
E0000070
E0000070
E0000070
70000070
700000E0
700000E0
780000E0
380001C0
3C0001C0
1C000380
1E000780
0F000F00
07C03E00
03FFFC00
00FFF000
003FC000
ENDCHAR
STARTCHAR 00F6
ENCODING 246
SWIDTH 532 0
DWIDTH 34 0
BBX 28 45 3 -1
BITMAP
01801800
03C03C00
03E07C00
03E03C00
01C03800
00000000
00000000
00000000
00000000
00000000
00000000
00000000
001FC000
00FFF000
03FFFC00
07C03E00
0F000F00
0E000780
1C000380
3C0001C0
380001C0
780000E0
700000E0
700000E0
70000070
60000070
E0000070
E0000070
E0000070
E0000070
E0000070
E0000070
70000070
700000E0
700000E0
780000E0
380001C0
3C0001C0
1C000380
1E000780
0F000F00
07C03E00
03FFFC00
00FFF000
003FC000
ENDCHAR
STARTCHAR 00F7
ENCODING 247
SWIDTH 485 0
DWIDTH 31 0
BBX 26 28 2 7
BITMAP
000E0000
001F0000
001F0000
001E0000
000E0000
00000000
00000000
00000000
00000000
00000000
00000000
00000000
00000000
FFFFFFC0
FFFFFFC0
00000000
00000000
00000000
00000000
00000000
00000000
00000000
00000000
000E0000
001F0000
001F0000
001E0000
000E0000
ENDCHAR
STARTCHAR 00F8
ENCODING 248
SWIDTH 532 0
DWIDTH 34 0
BBX 28 34 3 -1
BITMAP
001FC030
00FFF070
03F9FCE0
07C03FC0
0F000F80
0E000780
1C000780
3C000FC0
38001DC0
780038E0
700030E0
700060E0
7000E070
6001C070
E0038070
E0030070
E0060070
E00E0070
E01C0070
60380070
70300070
706000E0
70E000E0
31C000E0
3B8001C0
3F0001C0
1E000380
0E000780
1F000F00
3FC01E00
73F9FC00
E0FFF000
E03FC000
40000000
ENDCHAR
STARTCHAR 00F9
ENCODING 249
SWIDTH 532 0
DWIDTH 34 0
BBX 23 49 5 -1
BITMAP
020000
070000
078000
03C000
01E000
00E000
007000
003800
001C00
000E00
000600
000000
000000
000000
000000
000000
000000
E0000E
E0000E
E0000E
E0000E
E0000E
E0000E
E0000E
E0000E
E0000E
E0000E
E0000E
E0000E
E0000E
E0000E
E0000E
E0000E
E0000E
E0000E
E0000E
E0000E
E0000E
E0000E
60000E
70000E
70001E
70003E
78007E
3800EE
3C03CE
1FFF8E
0FFE06
03F800
ENDCHAR
STARTCHAR 00FA
ENCODING 250
SWIDTH 532 0
DWIDTH 34 0
BBX 23 49 5 -1
BITMAP
000040
0000E0
0001E0
0003C0
000780
000F00
001E00
001C00
003800
007000
006000
000000
000000
000000
000000
000000
000000
E0000E
E0000E
E0000E
E0000E
E0000E
E0000E
E0000E
E0000E
E0000E
E0000E
E0000E
E0000E
E0000E
E0000E
E0000E
E0000E
E0000E
E0000E
E0000E
E0000E
E0000E
E0000E
60000E
70000E
70001E
70003E
78007E
3800EE
3C03CE
1FFF8E
0FFE06
03F800
ENDCHAR
STARTCHAR 00FB
ENCODING 251
SWIDTH 532 0
DWIDTH 34 0
BBX 23 48 5 -1
BITMAP
003C00
007E00
00EF00
01C780
01C380
0381C0
0700E0
0E0070
1C0038
080010
000000
000000
000000
000000
000000
000000
E0000E
E0000E
E0000E
E0000E
E0000E
E0000E
E0000E
E0000E
E0000E
E0000E
E0000E
E0000E
E0000E
E0000E
E0000E
E0000E
E0000E
E0000E
E0000E
E0000E
E0000E
E0000E
60000E
70000E
70001E
70003E
78007E
3800EE
3C03CE
1FFF8E
0FFE06
03F800
ENDCHAR
STARTCHAR 00FC
ENCODING 252
SWIDTH 532 0
DWIDTH 34 0
BBX 23 44 5 -1
BITMAP
0700E0
0F01F0
0F81F0
0F00F0
060060
000000
000000
000000
000000
000000
000000
000000
E0000E
E0000E
E0000E
E0000E
E0000E
E0000E
E0000E
E0000E
E0000E
E0000E
E0000E
E0000E
E0000E
E0000E
E0000E
E0000E
E0000E
E0000E
E0000E
E0000E
E0000E
E0000E
60000E
70000E
70001E
70003E
78007E
3800EE
3C03CE
1FFF8E
0FFE06
03F800
ENDCHAR
STARTCHAR 00FD
ENCODING 253
SWIDTH 438 0
DWIDTH 28 0
BBX 26 62 1 -14
BITMAP
00002000
00003000
00007000
0000E000
0001C000
00038000
00070000
000F0000
001E0000
001C0000
00180000
00000000
00000000
00000000
00000000
00000000
00000000
E00001C0
E00001C0
70000380
70000380
38000380
38000700
38000700
1C000600
1C000E00
0C000E00
0E000C00
0E001C00
07001C00
07001800
03003800
03803800
03803000
01C07000
01C07000
00C06000
00E0E000
00E0E000
0060C000
0071C000
0031C000
00398000
003B8000
001B0000
001F0000
000F0000
000E0000
000E0000
000E0000
000C0000
001C0000
001C0000
00180000
00380000
00300000
00700000
00E00000
01E00000
7FC00000
7F000000
7C000000
ENDCHAR
STARTCHAR 00FE
ENCODING 254
SWIDTH 547 0
DWIDTH 35 0
BBX 25 60 6 -14
BITMAP
E0000000
E0000000
E0000000
E0000000
E0000000
E0000000
E0000000
E0000000
E0000000
E0000000
E0000000
E0000000
E0000000
E0000000
E03F8000
E1FFE000
E3FFF800
EF807C00
FE001E00
F8000E00
F0000F00
E0000700
E0000700
E0000380
E0000380
E0000380
E0000380
E0000380
E0000380
E0000380
E0000380
E0000380
E0000380
E0000380
E0000380
E0000380
E0000780
E0000700
E0000700
E0000E00
E0001E00
F0001C00
FC003800
FF00F000
EFFFE000
E3FFC000
E07E0000
E0000000
E0000000
E0000000
E0000000
E0000000
E0000000
E0000000
E0000000
E0000000
E0000000
E0000000
E0000000
E0000000
ENDCHAR
STARTCHAR 00FF
ENCODING 255
SWIDTH 438 0
DWIDTH 28 0
BBX 26 57 1 -14
BITMAP
01803800
03C07C00
03C07C00
03C07800
01803000
00000000
00000000
00000000
00000000
00000000
00000000
00000000
E00001C0
E00001C0
70000380
70000380
38000380
38000700
38000700
1C000600
1C000E00
0C000E00
0E000C00
0E001C00
07001C00
07001800
03003800
03803800
03803000
01C07000
01C07000
00C06000
00E0E000
00E0E000
0060C000
0071C000
0031C000
00398000
003B8000
001B0000
001F0000
000F0000
000E0000
000E0000
000E0000
000C0000
001C0000
001C0000
00180000
00380000
00300000
00700000
00E00000
01E00000
7FC00000
7F000000
7C000000
ENDCHAR
STARTCHAR 0100
ENCODING 256
SWIDTH 532 0
DWIDTH 34 0
BBX 32 50 1 0
BITMAP
00FFFF00
00FFFF00
00000000
00000000
00000000
00000000
00000000
00000000
00038000
0003C000
0007C000
0006E000
0006E000
000E6000
000E7000
000C7000
001C3000
001C3800
00183800
00381800
00381C00
00301C00
00700C00
00700E00
00600E00
00E00600
00E00700
01C00700
01C00380
01C00380
03800380
038001C0
030001C0
07FFFFC0
07FFFFE0
060000E0
0E0000E0
0E000070
0C000070
1C000070
1C000038
18000038
38000038
3800001C
7000001C
7000001E
7000000E
E000000E
E000000F
E0000007
ENDCHAR
STARTCHAR 0101
ENCODING 257
SWIDTH 485 0
DWIDTH 31 0
BBX 22 42 4 -1
BITMAP
0FFFF0
0FFFF0
000000
000000
000000
000000
000000
000000
000000
007F00
03FFC0
0FFFE0
3E00F0
780078
200038
00001C
00001C
00001C
00001C
00001C
00000C
00001C
0007FC
007FFC
03FC1C
0FC01C
1F001C
3C001C
78001C
70001C
E0001C
E0001C
E0001C
E0001C
E0001C
E0003C
E0007C
7000EC
7803CC
3FBF0C
1FFC0C
07F000
ENDCHAR
STARTCHAR 0102
ENCODING 258
SWIDTH 532 0
DWIDTH 34 0
BBX 32 53 1 0
BITMAP
01800300
01C00300
00C00300
00E00600
00700E00
003C3C00
001FF800
0007E000
00000000
00000000
00000000
00038000
0003C000
0007C000
0006E000
0006E000
000E6000
000E7000
000C7000
001C3000
001C3800
00183800
00381800
00381C00
00301C00
00700C00
00700E00
00600E00
00E00600
00E00700
01C00700
01C00380
01C00380
03800380
038001C0
030001C0
07FFFFC0
07FFFFE0
060000E0
0E0000E0
0E000070
0C000070
1C000070
1C000038
18000038
38000038
3800001C
7000001C
7000001E
7000000E
E000000E
E000000F
E0000007
ENDCHAR
STARTCHAR 0103
ENCODING 259
SWIDTH 485 0
DWIDTH 31 0
BBX 22 47 4 -1
BITMAP
18000C
18001C
1C0018
0C0038
0E0038
070070
03C1E0
01FFC0
00FF00
000000
000000
000000
000000
000000
007F00
03FFC0
0FFFE0
3E00F0
780078
200038
00001C
00001C
00001C
00001C
00001C
00000C
00001C
0007FC
007FFC
03FC1C
0FC01C
1F001C
3C001C
78001C
70001C
E0001C
E0001C
E0001C
E0001C
E0001C
E0003C
E0007C
7000EC
7803CC
3FBF0C
1FFC0C
07F000
ENDCHAR
STARTCHAR 0104
ENCODING 260
SWIDTH 532 0
DWIDTH 34 0
BBX 34 55 1 -13
BITMAP
0003800000
0003C00000
0007C00000
0006E00000
0006E00000
000E600000
000E700000
000C700000
001C300000
001C380000
0018380000
0038180000
00381C0000
00301C0000
00700C0000
00700E0000
00600E0000
00E0060000
00E0070000
01C0070000
01C0038000
01C0038000
0380038000
038001C000
030001C000
07FFFFC000
07FFFFE000
060000E000
0E0000E000
0E00007000
0C00007000
1C00007000
1C00003800
1800003800
3800003800
3800001C00
7000001C00
7000001E00
7000000E00
E000000E00
E000000F00
E000000700
0000000600
0000000C00
0000001800
0000003800
0000003000
0000007000
0000006000
0000006000
0000007000
0000007000
0000007CC0
0000003FC0
0000000F80
ENDCHAR
STARTCHAR 0105
ENCODING 261
SWIDTH 485 0
DWIDTH 31 0
BBX 24 45 4 -13
BITMAP
007F00
03FFC0
0FFFE0
3E00F0
780078
200038
00001C
00001C
00001C
00001C
00001C
00000C
00001C
0007FC
007FFC
03FC1C
0FC01C
1F001C
3C001C
78001C
70001C
E0001C
E0001C
E0001C
E0001C
E0001C
E0003C
E0007C
7000EC
7803CC
3FBF0C
1FFC0C
07F018
000030
000060
0000C0
0001C0
000180
000180
000380
000380
000380
0001C2
0001FF
00007C
ENDCHAR
STARTCHAR 0106
ENCODING 262
SWIDTH 563 0
DWIDTH 36 0
BBX 29 55 4 0
BITMAP
00000600
00000F00
00001E00
00003800
00007000
0000E000
0001C000
00038000
00010000
00000000
00000000
0007F800
003FFF00
00FFFFC0
01F803E0
03C000F0
07800070
0F000020
1E000000
1C000000
38000000
38000000
78000000
70000000
70000000
E0000000
E0000000
E0000000
E0000000
E0000000
E0000000
E0000000
E0000000
E0000000
E0000000
E0000000
E0000000
E0000000
E0000000
E0000000
F0000000
70000000
70000000
78000000
38000000
3C000000
1C000000
1E000000
0F000018
07800078
03C000F0
01F803E0
00FFFFC0
003FFF00
0007F800
ENDCHAR
STARTCHAR 0107
ENCODING 263
SWIDTH 453 0
DWIDTH 29 0
BBX 24 49 3 -1
BITMAP
000010
000038
000078
000070
0000E0
0001C0
000380
000700
000E00
001C00
000800
000000
000000
000000
000000
000000
001FC0
00FFF0
01FFFC
07C03E
0F000E
0E0004
1C0000
3C0000
380000
780000
700000
700000
700000
600000
E00000
E00000
E00000
E00000
E00000
E00000
700000
700000
700000
780000
380000
3C0000
1C0000
1E0002
0F0007
07C01E
03FDFC
00FFF0
003FC0
ENDCHAR
STARTCHAR 0108
ENCODING 264
SWIDTH 563 0
DWIDTH 36 0
BBX 29 55 4 -1
BITMAP
0001E000
0003F000
00077000
000E3800
001C1C00
00380E00
00700300
00E00180
00000000
00000000
00000000
0007F800
003FFF00
00FFFFC0
01F803E0
03C000F0
07800070
0F000020
1E000000
1C000000
38000000
38000000
78000000
70000000
70000000
E0000000
E0000000
E0000000
E0000000
E0000000
E0000000
E0000000
E0000000
E0000000
E0000000
E0000000
E0000000
E0000000
E0000000
E0000000
F0000000
70000000
70000000
78000000
38000000
3C000000
1C000000
1E000000
0F000018
07800078
03C000F0
01F803E0
00FFFFC0
003FFF00
0007F800
ENDCHAR
STARTCHAR 0109
ENCODING 265
SWIDTH 453 0
DWIDTH 29 0
BBX 24 48 3 -1
BITMAP
000F80
001F80
001DC0
0038E0
007070
00E038
01C018
03800C
03000E
020004
000000
000000
000000
000000
000000
001FC0
00FFF0
01FFFC
07C03E
0F000E
0E0004
1C0000
3C0000
380000
780000
700000
700000
700000
600000
E00000
E00000
E00000
E00000
E00000
E00000
700000
700000
700000
780000
380000
3C0000
1C0000
1E0002
0F0007
07C01E
03FDFC
00FFF0
003FC0
ENDCHAR
STARTCHAR 010A
ENCODING 266
SWIDTH 563 0
DWIDTH 36 0
BBX 29 52 4 -1
BITMAP
0001C000
0003E000
0003E000
0003E000
0001C000
00000000
00000000
00000000
0007F800
003FFF00
00FFFFC0
01F803E0
03C000F0
07800070
0F000020
1E000000
1C000000
38000000
38000000
78000000
70000000
70000000
E0000000
E0000000
E0000000
E0000000
E0000000
E0000000
E0000000
E0000000
E0000000
E0000000
E0000000
E0000000
E0000000
E0000000
E0000000
F0000000
70000000
70000000
78000000
38000000
3C000000
1C000000
1E000000
0F000018
07800078
03C000F0
01F803E0
00FFFFC0
003FFF00
0007F800
ENDCHAR
STARTCHAR 010B
ENCODING 267
SWIDTH 453 0
DWIDTH 29 0
BBX 24 45 3 -1
BITMAP
000700
000F80
000F80
000F80
000700
000000
000000
000000
000000
000000
000000
000000
001FC0
00FFF0
01FFFC
07C03E
0F000E
0E0004
1C0000
3C0000
380000
780000
700000
700000
700000
600000
E00000
E00000
E00000
E00000
E00000
E00000
700000
700000
700000
780000
380000
3C0000
1C0000
1E0002
0F0007
07C01E
03FDFC
00FFF0
003FC0
ENDCHAR
STARTCHAR 010C
ENCODING 268
SWIDTH 563 0
DWIDTH 36 0
BBX 29 55 4 -1
BITMAP
00C00180
00600380
00300700
001C0E00
000E3C00
00077800
0003F000
0001E000
00000000
00000000
00000000
0007F800
003FFF00
00FFFFC0
01F803E0
03C000F0
07800070
0F000020
1E000000
1C000000
38000000
38000000
78000000
70000000
70000000
E0000000
E0000000
E0000000
E0000000
E0000000
E0000000
E0000000
E0000000
E0000000
E0000000
E0000000
E0000000
E0000000
E0000000
E0000000
F0000000
70000000
70000000
78000000
38000000
3C000000
1C000000
1E000000
0F000018
07800078
03C000F0
01F803E0
00FFFFC0
003FFF00
0007F800
ENDCHAR
STARTCHAR 010D
ENCODING 269
SWIDTH 453 0
DWIDTH 29 0
BBX 24 48 3 -1
BITMAP
030006
03800E
01C01C
00E038
006070
0070E0
0039E0
001DC0
000F80
000700
000000
000000
000000
000000
000000
001FC0
00FFF0
01FFFC
07C03E
0F000E
0E0004
1C0000
3C0000
380000
780000
700000
700000
700000
600000
E00000
E00000
E00000
E00000
E00000
E00000
700000
700000
700000
780000
380000
3C0000
1C0000
1E0002
0F0007
07C01E
03FDFC
00FFF0
003FC0
ENDCHAR
STARTCHAR 010E
ENCODING 270
SWIDTH 610 0
DWIDTH 39 0
BBX 29 53 6 0
BITMAP
06000C00
07003800
03807000
01C0E000
00F1C000
007B8000
003F0000
001E0000
00000000
00000000
00000000
FFFE0000
FFFFE000
E03FF800
E000FC00
E0003E00
E0000F00
E0000780
E00003C0
E00001C0
E00001E0
E00000E0
E00000F0
E0000070
E0000070
E0000078
E0000038
E0000038
E0000038
E0000038
E0000038
E0000038
E0000038
E0000038
E0000038
E0000038
E0000038
E0000038
E0000070
E0000070
E0000070
E00000F0
E00000E0
E00001E0
E00001C0
E00003C0
E0000780
E0000F00
E0003E00
E000FC00
E03FF000
FFFFC000
FFFE0000
ENDCHAR
STARTCHAR 010F
ENCODING 271
SWIDTH 547 0
DWIDTH 35 0
BBX 32 49 3 -1
BITMAP
00000003
00000003
000001C3
000001C3
000001C3
000001C3
000001C3
000001C3
000001C3
000001C3
000001C3
000001C3
000001C3
000001C0
000001C0
000001C0
001FC1C0
00FFF1C0
01FFFDC0
07C01FC0
0F000FC0
0E0003C0
1C0001C0
3C0001C0
380001C0
780001C0
700001C0
700001C0
700001C0
700001C0
E00001C0
E00001C0
E00001C0
E00001C0
E00001C0
F00001C0
700001C0
700001C0
700001C0
700001C0
380001C0
380001C0
3C0003C0
1E0007C0
0F001FC0
0F803DC0
07FBF1C0
01FFE1C0
007F0000
ENDCHAR
STARTCHAR 0110
ENCODING 272
SWIDTH 626 0
DWIDTH 40 0
BBX 34 42 2 0
BITMAP
03FFF80000
03FFFF0000
0301FFC000
030007E000
030000F800
0300007C00
0300003C00
0300001E00
0300000F00
0300000700
0300000780
0300000380
0300000380
03000003C0
03000001C0
03000001C0
03000001C0
03000001C0
03000001C0
FFFFE001C0
FFFFE001C0
03000001C0
03000001C0
03000001C0
03000001C0
03000001C0
03000001C0
03000001C0
03000003C0
0300000380
0300000380
0300000780
0300000700
0300000F00
0300001E00
0300003C00
0300007800
030000F800
030003E000
0301FFC000
03FFFF0000
03FFF00000
ENDCHAR
STARTCHAR 0111
ENCODING 273
SWIDTH 547 0
DWIDTH 35 0
BBX 31 47 3 -1
BITMAP
000001C0
000001C0
000001C0
000001C0
000001C0
000001C0
000001C0
000FFFFE
000FFFFE
000001C0
000001C0
000001C0
000001C0
000001C0
000001C0
000001C0
000001C0
007FE1C0
01FFF9C0
03E07DC0
07800FC0
0F0007C0
1E0003C0
3C0001C0
380001C0
780001C0
700001C0
700001C0
700001C0
F00001C0
E00001C0
E00001C0
E00001C0
E00001C0
F00001C0
700001C0
700001C0
700001C0
780001C0
380001C0
3C0003C0
1C0007C0
1E001FC0
0F803DC0
07FBF1C0
01FFE1C0
007F0000
ENDCHAR
STARTCHAR 0112
ENCODING 274
SWIDTH 516 0
DWIDTH 33 0
BBX 24 50 6 0
BITMAP
0FFFF0
0FFFF0
000000
000000
000000
000000
000000
000000
FFFFFE
FFFFFE
FFFFFE
E00000
E00000
E00000
E00000
E00000
E00000
E00000
E00000
E00000
E00000
E00000
E00000
E00000
E00000
E00000
FFFFF0
FFFFF0
FFFFF0
E00000
E00000
E00000
E00000
E00000
E00000
E00000
E00000
E00000
E00000
E00000
E00000
E00000
E00000
E00000
E00000
E00000
E00000
FFFFFF
FFFFFF
FFFFFF
ENDCHAR
STARTCHAR 0113
ENCODING 275
SWIDTH 485 0
DWIDTH 31 0
BBX 25 42 3 -1
BITMAP
03FFFC00
03FFFC00
00000000
00000000
00000000
00000000
00000000
00000000
00000000
001F8000
00FFF000
01FBF800
07C03C00
0F001E00
0E000E00
1C000700
38000700
38000380
30000380
70000380
70000180
70000180
60000180
E0000180
FFFFFF80
FFFFFF80
E0000000
E0000000
E0000000
70000000
70000000
70000000
78000000
38000000
3C000000
1C000000
0E000000
0F000200
07C00F00
03FCFE00
00FFF800
001FE000
ENDCHAR
STARTCHAR 0114
ENCODING 276
SWIDTH 516 0
DWIDTH 33 0
BBX 24 53 6 0
BITMAP
1C0038
0C0030
0C0030
0E0070
0700E0
03C3C0
01FF80
007E00
000000
000000
000000
FFFFFE
FFFFFE
FFFFFE
E00000
E00000
E00000
E00000
E00000
E00000
E00000
E00000
E00000
E00000
E00000
E00000
E00000
E00000
E00000
FFFFF0
FFFFF0
FFFFF0
E00000
E00000
E00000
E00000
E00000
E00000
E00000
E00000
E00000
E00000
E00000
E00000
E00000
E00000
E00000
E00000
E00000
E00000
FFFFFF
FFFFFF
FFFFFF
ENDCHAR
STARTCHAR 0115
ENCODING 277
SWIDTH 485 0
DWIDTH 31 0
BBX 25 47 3 -1
BITMAP
0C000600
0E000600
06000E00
07000C00
07001C00
03803800
01E0F000
00FFE000
003F8000
00000000
00000000
00000000
00000000
00000000
001F8000
00FFF000
01FBF800
07C03C00
0F001E00
0E000E00
1C000700
38000700
38000380
30000380
70000380
70000180
70000180
60000180
E0000180
FFFFFF80
FFFFFF80
E0000000
E0000000
E0000000
70000000
70000000
70000000
78000000
38000000
3C000000
1C000000
0E000000
0F000200
07C00F00
03FCFE00
00FFF800
001FE000
ENDCHAR
STARTCHAR 0116
ENCODING 278
SWIDTH 516 0
DWIDTH 33 0
BBX 24 51 6 0
BITMAP
003C00
003C00
007E00
003C00
003C00
000000
000000
000000
000000
FFFFFE
FFFFFE
FFFFFE
E00000
E00000
E00000
E00000
E00000
E00000
E00000
E00000
E00000
E00000
E00000
E00000
E00000
E00000
E00000
FFFFF0
FFFFF0
FFFFF0
E00000
E00000
E00000
E00000
E00000
E00000
E00000
E00000
E00000
E00000
E00000
E00000
E00000
E00000
E00000
E00000
E00000
E00000
FFFFFF
FFFFFF
FFFFFF
ENDCHAR
STARTCHAR 0117
ENCODING 279
SWIDTH 485 0
DWIDTH 31 0
BBX 25 45 3 -1
BITMAP
000E0000
001F0000
001F0000
001F0000
000E0000
00000000
00000000
00000000
00000000
00000000
00000000
00000000
001F8000
00FFF000
01FBF800
07C03C00
0F001E00
0E000E00
1C000700
38000700
38000380
30000380
70000380
70000180
70000180
60000180
E0000180
FFFFFF80
FFFFFF80
E0000000
E0000000
E0000000
70000000
70000000
70000000
78000000
38000000
3C000000
1C000000
0E000000
0F000200
07C00F00
03FCFE00
00FFF800
001FE000
ENDCHAR
STARTCHAR 0118
ENCODING 280
SWIDTH 516 0
DWIDTH 33 0
BBX 25 55 6 -13
BITMAP
FFFFFE00
FFFFFE00
FFFFFE00
E0000000
E0000000
E0000000
E0000000
E0000000
E0000000
E0000000
E0000000
E0000000
E0000000
E0000000
E0000000
E0000000
E0000000
E0000000
FFFFF000
FFFFF000
FFFFF000
E0000000
E0000000
E0000000
E0000000
E0000000
E0000000
E0000000
E0000000
E0000000
E0000000
E0000000
E0000000
E0000000
E0000000
E0000000
E0000000
E0000000
E0000000
FFFFFF00
FFFFFF00
FFFFFF00
00001C00
00003800
00007000
0000E000
0000C000
0000C000
0001C000
0001C000
0001C000
0001C000
0000F300
00007F80
00003E00
ENDCHAR
STARTCHAR 0119
ENCODING 281
SWIDTH 485 0
DWIDTH 31 0
BBX 25 45 3 -13
BITMAP
001F8000
00FFF000
01FBF800
07C03C00
0F001E00
0E000E00
1C000700
38000700
38000380
30000380
70000380
70000180
70000180
60000180
E0000180
FFFFFF80
FFFFFF80
E0000000
E0000000
E0000000
70000000
70000000
70000000
78000000
38000000
3C000000
1C000000
0E000000
0F000200
07C00F00
03FCFE00
00FFFC00
001FF800
00007000
00006000
0000C000
0001C000
00018000
00018000
00018000
00018000
00018000
0001C200
0000FF00
00007E00
ENDCHAR
STARTCHAR 011A
ENCODING 282
SWIDTH 516 0
DWIDTH 33 0
BBX 24 53 6 0
BITMAP
0C0030
0E0070
0700E0
0381C0
01C380
00F700
007E00
003C00
000000
000000
000000
FFFFFE
FFFFFE
FFFFFE
E00000
E00000
E00000
E00000
E00000
E00000
E00000
E00000
E00000
E00000
E00000
E00000
E00000
E00000
E00000
FFFFF0
FFFFF0
FFFFF0
E00000
E00000
E00000
E00000
E00000
E00000
E00000
E00000
E00000
E00000
E00000
E00000
E00000
E00000
E00000
E00000
E00000
E00000
FFFFFF
FFFFFF
FFFFFF
ENDCHAR
STARTCHAR 011B
ENCODING 283
SWIDTH 485 0
DWIDTH 31 0
BBX 25 48 3 -1
BITMAP
06000C00
07001C00
03803800
01C07000
00E06000
0070E000
0079C000
003F8000
001F0000
000E0000
00000000
00000000
00000000
00000000
00000000
001F8000
00FFF000
01FBF800
07C03C00
0F001E00
0E000E00
1C000700
38000700
38000380
30000380
70000380
70000180
70000180
60000180
E0000180
FFFFFF80
FFFFFF80
E0000000
E0000000
E0000000
70000000
70000000
70000000
78000000
38000000
3C000000
1C000000
0E000000
0F000200
07C00F00
03FCFE00
00FFF800
001FE000
ENDCHAR
STARTCHAR 011C
ENCODING 284
SWIDTH 610 0
DWIDTH 39 0
BBX 30 55 4 -1
BITMAP
0000F000
0001F800
0003DC00
00070E00
000E0700
001C0380
003801C0
003000E0
00000040
00000000
00000000
0003FC00
001FFF80
007FFFE0
01F801F0
03E00078
07800038
0F000010
1E000000
1C000000
3C000000
38000000
78000000
70000000
70000000
F0000000
E0000000
E0000000
E0000000
E0000000
E0000000
E0000000
E0000000
E0000000
E0007FFC
E0007FFC
E000001C
E000001C
E000001C
E000001C
F000001C
7000001C
7000001C
7800001C
3800001C
3C00001C
1C00001C
1E00001C
0F00001C
0780001C
03E0007C
01F801F8
00FFFFE0
003FFF80
0007FC00
ENDCHAR
STARTCHAR 011D
ENCODING 285
SWIDTH 485 0
DWIDTH 31 0
BBX 27 62 3 -15
BITMAP
000F0000
001F8000
003B8000
0071C000
00E0E000
01C07000
01803800
03801800
07000C00
02000400
00000000
00000000
00000000
00000000
00000000
007E0000
01FFFFE0
07FFFFE0
0F80F000
0E003800
1C001C00
1C001C00
38000E00
38000E00
38000E00
38000E00
38000E00
38000E00
38000E00
38000E00
1C001C00
1C001C00
0E003800
0F007000
07E3E000
07FFC000
0C7F0000
1C000000
18000000
38000000
38000000
38000000
3C000000
1E000000
0FFFE000
07FFFF00
0FFFFFC0
1C0007C0
380001E0
700000E0
700000E0
60000060
E00000E0
E00000E0
E00000E0
700001C0
700003C0
38000780
3E001F00
1FE0FC00
07FFF800
00FF8000
ENDCHAR
STARTCHAR 011E
ENCODING 286
SWIDTH 610 0
DWIDTH 39 0
BBX 30 55 4 -1
BITMAP
00700060
003000E0
003000C0
003801C0
001C0380
000E0700
0007FE00
0001F800
00000000
00000000
00000000
0003FC00
001FFF80
007FFFE0
01F801F0
03E00078
07800038
0F000010
1E000000
1C000000
3C000000
38000000
78000000
70000000
70000000
F0000000
E0000000
E0000000
E0000000
E0000000
E0000000
E0000000
E0000000
E0000000
E0007FFC
E0007FFC
E000001C
E000001C
E000001C
E000001C
F000001C
7000001C
7000001C
7800001C
3800001C
3C00001C
1C00001C
1E00001C
0F00001C
0780001C
03E0007C
01F801F8
00FFFFE0
003FFF80
0007FC00
ENDCHAR
STARTCHAR 011F
ENCODING 287
SWIDTH 485 0
DWIDTH 31 0
BBX 27 61 3 -15
BITMAP
0C000600
0E000600
06000E00
07000C00
07001C00
03803800
01E0F000
00FFE000
003F8000
00000000
00000000
00000000
00000000
00000000
007E0000
01FFFFE0
07FFFFE0
0F80F000
0E003800
1C001C00
1C001C00
38000E00
38000E00
38000E00
38000E00
38000E00
38000E00
38000E00
38000E00
1C001C00
1C001C00
0E003800
0F007000
07E3E000
07FFC000
0C7F0000
1C000000
18000000
38000000
38000000
38000000
3C000000
1E000000
0FFFE000
07FFFF00
0FFFFFC0
1C0007C0
380001E0
700000E0
700000E0
60000060
E00000E0
E00000E0
E00000E0
700001C0
700003C0
38000780
3E001F00
1FE0FC00
07FFF800
00FF8000
ENDCHAR
STARTCHAR 0120
ENCODING 288
SWIDTH 610 0
DWIDTH 39 0
BBX 30 52 4 -1
BITMAP
0000F000
0000F800
0000F800
0000F000
00007000
00000000
00000000
00000000
0003FC00
001FFF80
007FFFE0
01F801F0
03E00078
07800038
0F000010
1E000000
1C000000
3C000000
38000000
78000000
70000000
70000000
F0000000
E0000000
E0000000
E0000000
E0000000
E0000000
E0000000
E0000000
E0000000
E0007FFC
E0007FFC
E000001C
E000001C
E000001C
E000001C
F000001C
7000001C
7000001C
7800001C
3800001C
3C00001C
1C00001C
1E00001C
0F00001C
0780001C
03E0007C
01F801F8
00FFFFE0
003FFF80
0007FC00
ENDCHAR
STARTCHAR 0121
ENCODING 289
SWIDTH 485 0
DWIDTH 31 0
BBX 27 58 3 -15
BITMAP
000E0000
001F0000
001F0000
001F0000
000E0000
00000000
00000000
00000000
00000000
00000000
00000000
007E0000
01FFFFE0
07FFFFE0
0F80F000
0E003800
1C001C00
1C001C00
38000E00
38000E00
38000E00
38000E00
38000E00
38000E00
38000E00
38000E00
1C001C00
1C001C00
0E003800
0F007000
07E3E000
07FFC000
0C7F0000
1C000000
18000000
38000000
38000000
38000000
3C000000
1E000000
0FFFE000
07FFFF00
0FFFFFC0
1C0007C0
380001E0
700000E0
700000E0
60000060
E00000E0
E00000E0
E00000E0
700001C0
700003C0
38000780
3E001F00
1FE0FC00
07FFF800
00FF8000
ENDCHAR
STARTCHAR 0122
ENCODING 290
SWIDTH 610 0
DWIDTH 39 0
BBX 30 57 4 -14
BITMAP
0003FC00
001FFF80
007FFFE0
01F801F0
03E00078
07800038
0F000010
1E000000
1C000000
3C000000
38000000
78000000
70000000
70000000
F0000000
E0000000
E0000000
E0000000
E0000000
E0000000
E0000000
E0000000
E0000000
E0007FFC
E0007FFC
E000001C
E000001C
E000001C
E000001C
F000001C
7000001C
7000001C
7800001C
3800001C
3C00001C
1C00001C
1E00001C
0F00001C
0780001C
03E0007C
01F801F8
00FFFFE0
003FFF80
0007FC00
00000000
00000000
00000000
0001C000
0001F000
00003C00
00001C00
00000C00
00001C00
00001C00
00007800
000FE000
00078000
ENDCHAR
STARTCHAR 0123
ENCODING 291
SWIDTH 485 0
DWIDTH 31 0
BBX 27 62 3 -15
BITMAP
0001E000
000FE000
001E0000
00380000
00700000
00700000
00700000
003C0000
001F8000
00030000
00000000
00000000
00000000
00000000
00000000
007E0000
01FFFFE0
07FFFFE0
0F80F000
0E003800
1C001C00
1C001C00
38000E00
38000E00
38000E00
38000E00
38000E00
38000E00
38000E00
38000E00
1C001C00
1C001C00
0E003800
0F007000
07E3E000
07FFC000
0C7F0000
1C000000
18000000
38000000
38000000
38000000
3C000000
1E000000
0FFFE000
07FFFF00
0FFFFFC0
1C0007C0
380001E0
700000E0
700000E0
60000060
E00000E0
E00000E0
E00000E0
700001C0
700003C0
38000780
3E001F00
1FE0FC00
07FFF800
00FF8000
ENDCHAR
STARTCHAR 0124
ENCODING 292
SWIDTH 641 0
DWIDTH 41 0
BBX 29 53 6 0
BITMAP
000F0000
001FC000
003DE000
0070F000
00E07800
01C01C00
03800E00
03000400
00000000
00000000
00000000
E0000038
E0000038
E0000038
E0000038
E0000038
E0000038
E0000038
E0000038
E0000038
E0000038
E0000038
E0000038
E0000038
E0000038
E0000038
E0000038
E0000038
E0000038
FFFFFFF8
FFFFFFF8
FFFFFFF8
E0000038
E0000038
E0000038
E0000038
E0000038
E0000038
E0000038
E0000038
E0000038
E0000038
E0000038
E0000038
E0000038
E0000038
E0000038
E0000038
E0000038
E0000038
E0000038
E0000038
E0000038
ENDCHAR
STARTCHAR 0125
ENCODING 293
SWIDTH 532 0
DWIDTH 34 0
BBX 30 56 -1 0
BITMAP
03C00000
07E00000
0F700000
1E380000
381C0000
70060000
E0030000
C0018000
00000000
00000000
01C00000
01C00000
01C00000
01C00000
01C00000
01C00000
01C00000
01C00000
01C00000
01C00000
01C00000
01C00000
01C00000
01C00000
01C07F00
01C1FFC0
01C7FFE0
01CF00F0
01DC0070
01F80078
01F00038
01E00038
01C00038
01C00018
01C0001C
01C0001C
01C0001C
01C0001C
01C0001C
01C0001C
01C0001C
01C0001C
01C0001C
01C0001C
01C0001C
01C0001C
01C0001C
01C0001C
01C0001C
01C0001C
01C0001C
01C0001C
01C0001C
01C0001C
01C0001C
01C0001C
ENDCHAR
STARTCHAR 0126
ENCODING 294
SWIDTH 673 0
DWIDTH 43 0
BBX 39 42 2 0
BITMAP
07000001C0
07000001C0
07000001C0
07000001C0
07000001C0
07000001C0
07000001C0
07000001C0
FFFFFFFFFE
FFFFFFFFFE
07000001C0
07000001C0
07000001C0
07000001C0
07000001C0
07000001C0
07000001C0
07000001C0
07FFFFFFC0
07FFFFFFC0
07FFFFFFC0
07000001C0
07000001C0
07000001C0
07000001C0
07000001C0
07000001C0
07000001C0
07000001C0
07000001C0
07000001C0
07000001C0
07000001C0
07000001C0
07000001C0
07000001C0
07000001C0
07000001C0
07000001C0
07000001C0
07000001C0
07000001C0
ENDCHAR
STARTCHAR 0127
ENCODING 295
SWIDTH 532 0
DWIDTH 34 0
BBX 28 46 1 0
BITMAP
07000000
07000000
07000000
07000000
07000000
07000000
07000000
FFFFF000
FFFFF000
07000000
07000000
07000000
07000000
07000000
07000000
07000000
07002000
0703FE00
070FFF80
071E0780
077803C0
07E001E0
07C000E0
078000E0
070000E0
07000060
07000070
07000070
07000070
07000070
07000070
07000070
07000070
07000070
07000070
07000070
07000070
07000070
07000070
07000070
07000070
07000070
07000070
07000070
07000070
07000070
ENDCHAR
STARTCHAR 0128
ENCODING 296
SWIDTH 234 0
DWIDTH 15 0
BBX 21 53 -3 0
BITMAP
0F0018
3FC018
7BE018
707038
603C70
E01FE0
C00FC0
000000
000000
000000
000000
007000
007000
007000
007000
007000
007000
007000
007000
007000
007000
007000
007000
007000
007000
007000
007000
007000
007000
007000
007000
007000
007000
007000
007000
007000
007000
007000
007000
007000
007000
007000
007000
007000
007000
007000
007000
007000
007000
007000
007000
007000
007000
ENDCHAR
STARTCHAR 0129
ENCODING 297
SWIDTH 234 0
DWIDTH 15 0
BBX 21 46 -3 0
BITMAP
1F0018
3F8038
73C038
60E030
607030
C03870
C01CE0
C00FE0
C00780
000000
000000
000000
000000
000000
000000
007000
007000
007000
007000
007000
007000
007000
007000
007000
007000
007000
007000
007000
007000
007000
007000
007000
007000
007000
007000
007000
007000
007000
007000
007000
007000
007000
007000
007000
007000
007000
ENDCHAR
STARTCHAR 012A
ENCODING 298
SWIDTH 234 0
DWIDTH 15 0
BBX 16 50 0 0
BITMAP
FFFF
FFFF
0000
0000
0000
0000
0000
0000
0380
0380
0380
0380
0380
0380
0380
0380
0380
0380
0380
0380
0380
0380
0380
0380
0380
0380
0380
0380
0380
0380
0380
0380
0380
0380
0380
0380
0380
0380
0380
0380
0380
0380
0380
0380
0380
0380
0380
0380
0380
0380
ENDCHAR
STARTCHAR 012B
ENCODING 299
SWIDTH 234 0
DWIDTH 15 0
BBX 16 41 -1 0
BITMAP
FFFF
FFFF
0000
0000
0000
0000
0000
0000
0000
0000
01C0
01C0
01C0
01C0
01C0
01C0
01C0
01C0
01C0
01C0
01C0
01C0
01C0
01C0
01C0
01C0
01C0
01C0
01C0
01C0
01C0
01C0
01C0
01C0
01C0
01C0
01C0
01C0
01C0
01C0
01C0
ENDCHAR
STARTCHAR 012C
ENCODING 300
SWIDTH 234 0
DWIDTH 15 0
BBX 17 53 -1 0
BITMAP
C00180
E00180
600380
700300
380700
3C1E00
0FFC00
07F000
000000
000000
000000
01C000
01C000
01C000
01C000
01C000
01C000
01C000
01C000
01C000
01C000
01C000
01C000
01C000
01C000
01C000
01C000
01C000
01C000
01C000
01C000
01C000
01C000
01C000
01C000
01C000
01C000
01C000
01C000
01C000
01C000
01C000
01C000
01C000
01C000
01C000
01C000
01C000
01C000
01C000
01C000
01C000
01C000
ENDCHAR
STARTCHAR 012D
ENCODING 301
SWIDTH 234 0
DWIDTH 15 0
BBX 19 46 -2 0
BITMAP
C00060
C000E0
E000C0
6000C0
7001C0
380380
1E0F00
0FFE00
03F800
000000
000000
000000
000000
000000
000000
00E000
00E000
00E000
00E000
00E000
00E000
00E000
00E000
00E000
00E000
00E000
00E000
00E000
00E000
00E000
00E000
00E000
00E000
00E000
00E000
00E000
00E000
00E000
00E000
00E000
00E000
00E000
00E000
00E000
00E000
00E000
ENDCHAR
STARTCHAR 012E
ENCODING 302
SWIDTH 234 0
DWIDTH 15 0
BBX 9 55 3 -13
BITMAP
1C00
1C00
1C00
1C00
1C00
1C00
1C00
1C00
1C00
1C00
1C00
1C00
1C00
1C00
1C00
1C00
1C00
1C00
1C00
1C00
1C00
1C00
1C00
1C00
1C00
1C00
1C00
1C00
1C00
1C00
1C00
1C00
1C00
1C00
1C00
1C00
1C00
1C00
1C00
1C00
1C00
1C00
1C00
3800
3000
6000
E000
E000
C000
C000
E000
E000
F980
7F80
1F00
ENDCHAR
STARTCHAR 012F
ENCODING 303
SWIDTH 234 0
DWIDTH 15 0
BBX 10 56 2 -13
BITMAP
0E00
1F00
1F00
1F00
0E00
0000
0000
0000
0000
0000
0000
0000
0E00
0E00
0E00
0E00
0E00
0E00
0E00
0E00
0E00
0E00
0E00
0E00
0E00
0E00
0E00
0E00
0E00
0E00
0E00
0E00
0E00
0E00
0E00
0E00
0E00
0E00
0E00
0E00
0E00
0E00
0E00
0C00
1800
3800
3000
6000
6000
6000
E000
E000
6000
7880
3FC0
1F00
ENDCHAR
STARTCHAR 0130
ENCODING 304
SWIDTH 234 0
DWIDTH 15 0
BBX 5 51 5 0
BITMAP
70
F8
F8
F8
70
00
00
00
00
70
70
70
70
70
70
70
70
70
70
70
70
70
70
70
70
70
70
70
70
70
70
70
70
70
70
70
70
70
70
70
70
70
70
70
70
70
70
70
70
70
70
ENDCHAR
STARTCHAR 0131
ENCODING 305
SWIDTH 234 0
DWIDTH 15 0
BBX 3 31 6 0
BITMAP
E0
E0
E0
E0
E0
E0
E0
E0
E0
E0
E0
E0
E0
E0
E0
E0
E0
E0
E0
E0
E0
E0
E0
E0
E0
E0
E0
E0
E0
E0
E0
ENDCHAR
STARTCHAR 0132
ENCODING 306
SWIDTH 485 0
DWIDTH 31 0
BBX 19 52 6 -10
BITMAP
E000E0
E000E0
E000E0
E000E0
E000E0
E000E0
E000E0
E000E0
E000E0
E000E0
E000E0
E000E0
E000E0
E000E0
E000E0
E000E0
E000E0
E000E0
E000E0
E000E0
E000E0
E000E0
E000E0
E000E0
E000E0
E000E0
E000E0
E000E0
E000E0
E000E0
E000E0
E000E0
E000E0
E000E0
E000E0
E000E0
E000E0
E000E0
E000E0
E000E0
E000E0
E000E0
0000E0
0000E0
0000C0
0001C0
0001C0
0001C0
0003C0
00FF80
00FF00
00FC00
ENDCHAR
STARTCHAR 0133
ENCODING 307
SWIDTH 453 0
DWIDTH 29 0
BBX 20 58 5 -15
BITMAP
7001E0
F801E0
F803F0
F801E0
7001E0
000000
000000
000000
000000
000000
000000
000000
7001C0
7001C0
7001C0
7001C0
7001C0
7001C0
7001C0
7001C0
7001C0
7001C0
7001C0
7001C0
7001C0
7001C0
7001C0
7001C0
7001C0
7001C0
7001C0
7001C0
7001C0
7001C0
7001C0
7001C0
7001C0
7001C0
7001C0
7001C0
7001C0
7001C0
7001C0
0001C0
0001C0
0001C0
0001C0
0001C0
0001C0
0001C0
0001C0
0001C0
0001C0
0001C0
000380
00EF80
00FF00
00FC00
ENDCHAR
STARTCHAR 0134
ENCODING 308
SWIDTH 469 0
DWIDTH 30 0
BBX 27 54 3 -1
BITMAP
00007800
0000FC00
0001DE00
00038700
00070380
000C01C0
001800E0
00100060
00000000
00000000
00000000
00007000
00007000
00007000
00007000
00007000
00007000
00007000
00007000
00007000
00007000
00007000
00007000
00007000
00007000
00007000
00007000
00007000
00007000
00007000
00007000
00007000
00007000
00007000
00007000
00007000
00007000
00007000
00007000
00007000
00007000
00007000
00007000
00007000
00007000
00007000
00007000
E0007000
E000E000
7001E000
3C03C000
1FFF8000
0FFF0000
03FC0000
ENDCHAR
STARTCHAR 0135
ENCODING 309
SWIDTH 234 0
DWIDTH 15 0
BBX 18 62 -2 -15
BITMAP
01E000
03F000
03B800
071C00
0E0E00
1C0700
380300
300380
6001C0
400080
000000
000000
000000
000000
000000
000000
00E000
00E000
00E000
00E000
00E000
00E000
00E000
00E000
00E000
00E000
00E000
00E000
00E000
00E000
00E000
00E000
00E000
00E000
00E000
00E000
00E000
00E000
00E000
00E000
00E000
00E000
00E000
00E000
00E000
00E000
00E000
00E000
00E000
00E000
00E000
00E000
00E000
00E000
00E000
00E000
00C000
01C000
01C000
EF8000
FF0000
7E0000
ENDCHAR
STARTCHAR 0136
ENCODING 310
SWIDTH 563 0
DWIDTH 36 0
BBX 29 56 6 -14
BITMAP
E00001E0
E00003C0
E0000780
E0000700
E0000E00
E0001C00
E0003C00
E0007800
E000F000
E001E000
E003C000
E0038000
E0070000
E00F0000
E01E0000
E03C0000
E07C0000
E0FE0000
E1EE0000
E1C70000
E3878000
E7038000
EF03C000
FE01C000
FC00E000
F800E000
F0007000
E0007800
E0003800
E0003C00
E0001C00
E0000E00
E0000F00
E0000700
E0000780
E0000380
E00003C0
E00001C0
E00000E0
E00000F0
E0000070
E0000078
00000000
00000000
00000000
00000000
000E0000
000FC000
0001C000
0000E000
0000E000
0000E000
0000C000
0003C000
007F0000
00380000
ENDCHAR
STARTCHAR 0137
ENCODING 311
SWIDTH 469 0
DWIDTH 30 0
BBX 23 60 6 -14
BITMAP
E00000
E00000
E00000
E00000
E00000
E00000
E00000
E00000
E00000
E00000
E00000
E00000
E00000
E00000
E00000
E00038
E00070
E000E0
E001C0
E003C0
E00380
E00700
E00E00
E01C00
E03800
E07800
E07000
E0E000
E1F000
E3F800
E7B800
E71C00
EE1C00
FC0E00
F80700
F00700
F00380
E001C0
E001C0
E000E0
E000E0
E00070
E00038
E00038
E0001C
E0001E
000000
000000
000000
000000
00E000
01F800
001C00
000E00
000E00
000E00
000C00
007C00
07F000
078000
ENDCHAR
STARTCHAR 0138
ENCODING 312
SWIDTH 469 0
DWIDTH 30 0
BBX 23 31 6 0
BITMAP
E00038
E00070
E000E0
E001C0
E003C0
E00380
E00700
E00E00
E01C00
E03800
E03800
E07000
E0E000
E1F000
E3F800
E3B800
E71C00
EE1C00
FC0E00
F80700
F00700
F00380
E001C0
E001C0
E000E0
E000E0
E00070
E00038
E00038
E0001C
E0001E
ENDCHAR
STARTCHAR 0139
ENCODING 313
SWIDTH 469 0
DWIDTH 30 0
BBX 24 54 5 0
BITMAP
018000
03C000
078000
0F0000
1E0000
3C0000
700000
E00000
400000
000000
000000
000000
700000
700000
700000
700000
700000
700000
700000
700000
700000
700000
700000
700000
700000
700000
700000
700000
700000
700000
700000
700000
700000
700000
700000
700000
700000
700000
700000
700000
700000
700000
700000
700000
700000
700000
700000
700000
700000
700000
700000
7FFFFF
7FFFFF
7FFFFF
ENDCHAR
STARTCHAR 013A
ENCODING 314
SWIDTH 234 0
DWIDTH 15 0
BBX 9 58 5 0
BITMAP
0300
0780
0F00
1C00
3800
7000
E000
C000
8000
0000
0000
7000
7000
7000
7000
7000
7000
7000
7000
7000
7000
7000
7000
7000
7000
7000
7000
7000
7000
7000
7000
7000
7000
7000
7000
7000
7000
7000
7000
7000
7000
7000
7000
7000
7000
7000
7000
7000
7000
7000
7000
7000
7000
7000
7000
7C00
3C00
1E00
ENDCHAR
STARTCHAR 013B
ENCODING 315
SWIDTH 469 0
DWIDTH 30 0
BBX 23 56 6 -14
BITMAP
E00000
E00000
E00000
E00000
E00000
E00000
E00000
E00000
E00000
E00000
E00000
E00000
E00000
E00000
E00000
E00000
E00000
E00000
E00000
E00000
E00000
E00000
E00000
E00000
E00000
E00000
E00000
E00000
E00000
E00000
E00000
E00000
E00000
E00000
E00000
E00000
E00000
E00000
E00000
FFFFFE
FFFFFE
FFFFFE
000000
000000
000000
000000
003800
007E00
000700
000380
000380
000380
000700
001E00
01FC00
01E000
ENDCHAR
STARTCHAR 013C
ENCODING 316
SWIDTH 234 0
DWIDTH 15 0
BBX 9 60 4 -14
BITMAP
3800
3800
3800
3800
3800
3800
3800
3800
3800
3800
3800
3800
3800
3800
3800
3800
3800
3800
3800
3800
3800
3800
3800
3800
3800
3800
3800
3800
3800
3800
3800
3800
3800
3800
3800
3800
3800
3800
3800
3800
3800
3800
3800
3800
3E00
1E00
0F00
0000
0000
0000
1800
3F00
0780
0380
0180
0180
0380
0F00
FE00
F000
ENDCHAR
STARTCHAR 013D
ENCODING 317
SWIDTH 469 0
DWIDTH 30 0
BBX 23 46 6 0
BITMAP
000380
000380
000380
000380
E00380
E00380
E00380
E00380
E00380
E00100
E00100
E00100
E00100
E00000
E00000
E00000
E00000
E00000
E00000
E00000
E00000
E00000
E00000
E00000
E00000
E00000
E00000
E00000
E00000
E00000
E00000
E00000
E00000
E00000
E00000
E00000
E00000
E00000
E00000
E00000
E00000
E00000
E00000
FFFFFE
FFFFFE
FFFFFE
ENDCHAR
STARTCHAR 013E
ENCODING 318
SWIDTH 234 0
DWIDTH 15 0
BBX 9 49 6 -1
BITMAP
0180
0180
E180
E180
E180
E180
E180
E180
E180
E180
E180
E180
E180
E000
E000
E000
E000
E000
E000
E000
E000
E000
E000
E000
E000
E000
E000
E000
E000
E000
E000
E000
E000
E000
E000
E000
E000
E000
E000
E000
E000
E000
E000
E000
E000
E000
F800
7800
3C00
ENDCHAR
STARTCHAR 013F
ENCODING 319
SWIDTH 469 0
DWIDTH 30 0
BBX 23 42 6 0
BITMAP
E00000
E00000
E00000
E00000
E00000
E00000
E00000
E00000
E00000
E00000
E00000
E00000
E00000
E00000
E00000
E00000
E00000
E00000
E000C0
E001E0
E003F0
E003F0
E003E0
E001C0
E00000
E00000
E00000
E00000
E00000
E00000
E00000
E00000
E00000
E00000
E00000
E00000
E00000
E00000
E00000
FFFFFE
FFFFFE
FFFFFE
ENDCHAR
STARTCHAR 0140
ENCODING 320
SWIDTH 313 0
DWIDTH 20 0
BBX 14 47 6 -1
BITMAP
E000
E000
E000
E000
E000
E000
E000
E000
E000
E000
E000
E000
E000
E000
E000
E000
E000
E000
E000
E000
E000
E000
E030
E078
E0FC
E0FC
E078
E038
E000
E000
E000
E000
E000
E000
E000
E000
E000
E000
E000
E000
E000
E000
E000
E000
F800
7800
3C00
ENDCHAR
STARTCHAR 0141
ENCODING 321
SWIDTH 469 0
DWIDTH 30 0
BBX 29 42 0 0
BITMAP
03800000
03800000
03800000
03800000
03800000
03800000
03800000
03800000
03800000
03800000
03800000
03800000
03800000
03800000
03800000
03800000
03801C00
03807C00
0380F800
0383E000
038F8000
03BE0000
03F80000
03E00000
0F800000
3F800000
FB800000
63800000
03800000
03800000
03800000
03800000
03800000
03800000
03800000
03800000
03800000
03800000
03800000
03FFFFF8
03FFFFF8
03FFFFF8
ENDCHAR
STARTCHAR 0142
ENCODING 322
SWIDTH 234 0
DWIDTH 15 0
BBX 12 47 1 -1
BITMAP
0700
0700
0700
0700
0700
0700
0700
0700
0700
0700
0700
0700
0700
0700
0700
0700
0710
0770
07F0
07C0
0F80
1F00
7F00
F700
C700
0700
0700
0700
0700
0700
0700
0700
0700
0700
0700
0700
0700
0700
0700
0700
0700
0700
0700
0700
07C0
03C0
01E0
ENDCHAR
STARTCHAR 0143
ENCODING 323
SWIDTH 641 0
DWIDTH 41 0
BBX 28 54 6 0
BITMAP
00001800
00003C00
00007800
0000F000
0001E000
00038000
00070000
000E0000
00040000
00000000
00000000
00000000
F0000030
F0000030
F8000030
F8000030
FC000030
EE000030
EE000030
E7000030
E7000030
E3800030
E1C00030
E1C00030
E0E00030
E0E00030
E0700030
E0780030
E0380030
E01C0030
E01C0030
E00E0030
E00F0030
E0070030
E0038030
E0038030
E001C030
E001E030
E000E030
E0007030
E0007030
E0003830
E0003C30
E0001C30
E0000E30
E0000E30
E0000730
E0000730
E00003B0
E00001B0
E00001F0
E00000F0
E00000F0
E0000070
ENDCHAR
STARTCHAR 0144
ENCODING 324
SWIDTH 532 0
DWIDTH 34 0
BBX 23 48 6 0
BITMAP
000040
0000E0
0001E0
0003C0
000780
000700
000E00
001C00
003800
007000
006000
000000
000000
000000
000000
000000
003F80
C0FFE0
C3FFF0
C78078
EE0038
FC003C
F8001C
F0001C
E0001C
E0000C
E0000E
E0000E
E0000E
E0000E
E0000E
E0000E
E0000E
E0000E
E0000E
E0000E
E0000E
E0000E
E0000E
E0000E
E0000E
E0000E
E0000E
E0000E
E0000E
E0000E
E0000E
E0000E
ENDCHAR
STARTCHAR 0145
ENCODING 325
SWIDTH 641 0
DWIDTH 41 0
BBX 28 56 6 -14
BITMAP
F0000030
F0000030
F8000030
F8000030
FC000030
EE000030
EE000030
E7000030
E7000030
E3800030
E1C00030
E1C00030
E0E00030
E0E00030
E0700030
E0780030
E0380030
E01C0030
E01C0030
E00E0030
E00F0030
E0070030
E0038030
E0038030
E001C030
E001E030
E000E030
E0007030
E0007030
E0003830
E0003C30
E0001C30
E0000E30
E0000E30
E0000730
E0000730
E00003B0
E00001B0
E00001F0
E00000F0
E00000F0
E0000070
00000000
00000000
00000000
00000000
000E0000
001F8000
0001C000
0000E000
0000E000
0000E000
0001C000
00078000
007F0000
00780000
ENDCHAR
STARTCHAR 0146
ENCODING 326
SWIDTH 532 0
DWIDTH 34 0
BBX 23 46 6 -14
BITMAP
003F80
C0FFE0
C3FFF0
C78078
EE0038
FC003C
F8001C
F0001C
E0001C
E0000C
E0000E
E0000E
E0000E
E0000E
E0000E
E0000E
E0000E
E0000E
E0000E
E0000E
E0000E
E0000E
E0000E
E0000E
E0000E
E0000E
E0000E
E0000E
E0000E
E0000E
E0000E
E0000E
000000
000000
000000
000000
007000
00FC00
000E00
000700
000700
000700
000E00
003C00
03F800
03C000
ENDCHAR
STARTCHAR 0147
ENCODING 327
SWIDTH 641 0
DWIDTH 41 0
BBX 28 53 6 0
BITMAP
03000600
01C00C00
00E01800
00707000
0038F000
001DE000
000FC000
00078000
00000000
00000000
00000000
F0000030
F0000030
F8000030
F8000030
FC000030
EE000030
EE000030
E7000030
E7000030
E3800030
E1C00030
E1C00030
E0E00030
E0E00030
E0700030
E0780030
E0380030
E01C0030
E01C0030
E00E0030
E00F0030
E0070030
E0038030
E0038030
E001C030
E001E030
E000E030
E0007030
E0007030
E0003830
E0003C30
E0001C30
E0000E30
E0000E30
E0000730
E0000730
E00003B0
E00001B0
E00001F0
E00000F0
E00000F0
E0000070
ENDCHAR
STARTCHAR 0148
ENCODING 328
SWIDTH 532 0
DWIDTH 34 0
BBX 23 47 6 0
BITMAP
0C0018
0C0030
060070
0700E0
0381C0
01C380
00E700
007E00
007E00
003C00
000000
000000
000000
000000
000000
003F80
C0FFE0
C3FFF0
C78078
EE0038
FC003C
F8001C
F0001C
E0001C
E0000C
E0000E
E0000E
E0000E
E0000E
E0000E
E0000E
E0000E
E0000E
E0000E
E0000E
E0000E
E0000E
E0000E
E0000E
E0000E
E0000E
E0000E
E0000E
E0000E
E0000E
E0000E
E0000E
ENDCHAR
STARTCHAR 0149
ENCODING 329
SWIDTH 735 0
DWIDTH 47 0
BBX 37 45 4 0
BITMAP
3800000000
7C00000000
7C00000000
7C00000000
3C00000000
0C00000000
0C00000000
0C00000000
1C00000000
1800000000
3800000000
7000000000
E000000000
C00000FE00
000303FF80
00030FFFC0
00039E01E0
0003B800E0
0003F00070
0003E00070
0003C00070
0003800030
0003800038
0003800038
0003800038
0003800038
0003800038
0003800038
0003800038
0003800038
0003800038
0003800038
0003800038
0003800038
0003800038
0003800038
0003800038
0003800038
0003800038
0003800038
0003800038
0003800038
0003800038
0003800038
0003800038
ENDCHAR
STARTCHAR 014A
ENCODING 330
SWIDTH 610 0
DWIDTH 39 0
BBX 30 44 6 -1
BITMAP
000FE000
E03FFC00
E0FFFE00
E3E01F80
E78007C0
EE0003C0
FC0001E0
F80000E0
F0000070
E0000070
E0000078
E0000038
E0000038
E0000038
E0000038
E000003C
E000001C
E000001C
E000001C
E000001C
E000001C
E000001C
E000001C
E000001C
E000001C
E000001C
E000001C
E000001C
E000001C
E000003C
E0000038
E0000038
E0000038
E0000038
E0000038
E0000070
E0000070
E00000F0
E00000E0
E00001E0
E00003C0
E000FF80
E001FF00
0000FC00
ENDCHAR
STARTCHAR 014B
ENCODING 331
SWIDTH 532 0
DWIDTH 34 0
BBX 23 43 6 -11
BITMAP
003F80
C0FFE0
C3FFF0
C78078
EE0038
FC003C
F8001C
F0001C
E0001C
E0000C
E0000E
E0000E
E0000E
E0000E
E0000E
E0000E
E0000E
E0000E
E0000E
E0000E
E0000E
E0000E
E0000E
E0000E
E0000E
E0000E
E0000E
E0000E
E0000E
E0000E
E0000E
E0000E
00000E
00000E
00000E
00000E
00000C
00000C
00001C
00001C
000838
000FF8
000FF0
ENDCHAR
STARTCHAR 014C
ENCODING 332
SWIDTH 657 0
DWIDTH 42 0
BBX 34 51 4 -1
BITMAP
007FFF8000
007FFF8000
0000000000
0000000000
0000000000
0000000000
0000000000
0007F80000
003FFF0000
00FFFFC000
01F007E000
03C001F000
0780007800
0F00003C00
1E00001E00
1C00000E00
3800000F00
3800000700
7000000780
7000000380
7000000380
E000000380
E0000003C0
E0000001C0
E0000001C0
E0000001C0
E0000001C0
E0000001C0
E0000001C0
E0000001C0
E0000001C0
E0000001C0
E0000001C0
E0000001C0
E0000001C0
E0000003C0
F000000380
7000000380
7000000380
7800000700
3800000700
3C00000F00
1C00000E00
1E00001C00
0F00003C00
0780007800
03C000F000
01F003E000
00FFFF8000
003FFF0000
0007F80000
ENDCHAR
STARTCHAR 014D
ENCODING 333
SWIDTH 532 0
DWIDTH 34 0
BBX 28 42 3 -1
BITMAP
03FFFC00
03FFFC00
00000000
00000000
00000000
00000000
00000000
00000000
00000000
001FC000
00FFF000
03FFFC00
07C03E00
0F000F00
0E000780
1C000380
3C0001C0
380001C0
780000E0
700000E0
700000E0
70000070
60000070
E0000070
E0000070
E0000070
E0000070
E0000070
E0000070
70000070
700000E0
700000E0
780000E0
380001C0
3C0001C0
1C000380
1E000780
0F000F00
07C03E00
03FFFC00
00FFF000
003FC000
ENDCHAR
STARTCHAR 014E
ENCODING 334
SWIDTH 657 0
DWIDTH 42 0
BBX 34 55 4 -1
BITMAP
00C0018000
00E0018000
0060018000
0070038000
0038070000
003C0E0000
000FFC0000
0007F00000
0000000000
0000000000
0000000000
0007F80000
003FFF0000
00FFFFC000
01F007E000
03C001F000
0780007800
0F00003C00
1E00001E00
1C00000E00
3800000F00
3800000700
7000000780
7000000380
7000000380
E000000380
E0000003C0
E0000001C0
E0000001C0
E0000001C0
E0000001C0
E0000001C0
E0000001C0
E0000001C0
E0000001C0
E0000001C0
E0000001C0
E0000001C0
E0000001C0
E0000003C0
F000000380
7000000380
7000000380
7800000700
3800000700
3C00000F00
1C00000E00
1E00001C00
0F00003C00
0780007800
03C000F000
01F003E000
00FFFF8000
003FFF0000
0007F80000
ENDCHAR
STARTCHAR 014F
ENCODING 335
SWIDTH 532 0
DWIDTH 34 0
BBX 28 47 3 -1
BITMAP
06000700
06000600
06000600
07000E00
03800C00
03C01C00
01E07800
00FFF000
003FC000
00000000
00000000
00000000
00000000
00000000
001FC000
00FFF000
03FFFC00
07C03E00
0F000F00
0E000780
1C000380
3C0001C0
380001C0
780000E0
700000E0
700000E0
70000070
60000070
E0000070
E0000070
E0000070
E0000070
E0000070
E0000070
70000070
700000E0
700000E0
780000E0
380001C0
3C0001C0
1C000380
1E000780
0F000F00
07C03E00
03FFFC00
00FFF000
003FC000
ENDCHAR
STARTCHAR 0150
ENCODING 336
SWIDTH 657 0
DWIDTH 42 0
BBX 34 57 4 -1
BITMAP
0000002000
0000E03000
0000E07000
0001C0E000
000180E000
000381C000
0007018000
0006038000
000E030000
000C060000
0000000000
0000000000
0000000000
0007F80000
003FFF0000
00FFFFC000
01F007E000
03C001F000
0780007800
0F00003C00
1E00001E00
1C00000E00
3800000F00
3800000700
7000000780
7000000380
7000000380
E000000380
E0000003C0
E0000001C0
E0000001C0
E0000001C0
E0000001C0
E0000001C0
E0000001C0
E0000001C0
E0000001C0
E0000001C0
E0000001C0
E0000001C0
E0000001C0
E0000003C0
F000000380
7000000380
7000000380
7800000700
3800000700
3C00000F00
1C00000E00
1E00001C00
0F00003C00
0780007800
03C000F000
01F003E000
00FFFF8000
003FFF0000
0007F80000
ENDCHAR
STARTCHAR 0151
ENCODING 337
SWIDTH 532 0
DWIDTH 34 0
BBX 28 49 3 -1
BITMAP
00030180
00038380
00070380
00060700
000E0600
000C0E00
001C0C00
00181C00
00301800
00303000
00603000
00000000
00000000
00000000
00000000
00000000
001FC000
00FFF000
03FFFC00
07C03E00
0F000F00
0E000780
1C000380
3C0001C0
380001C0
780000E0
700000E0
700000E0
70000070
60000070
E0000070
E0000070
E0000070
E0000070
E0000070
E0000070
70000070
700000E0
700000E0
780000E0
380001C0
3C0001C0
1C000380
1E000780
0F000F00
07C03E00
03FFFC00
00FFF000
003FC000
ENDCHAR
STARTCHAR 0152
ENCODING 338
SWIDTH 829 0
DWIDTH 53 0
BBX 46 42 4 0
BITMAP
0003FFFFFFFC
001FFFFFFFFC
007FF0FFFFFC
01F800E00000
03E000E00000
078000E00000
0F0000E00000
1E0000E00000
3C0000E00000
380000E00000
780000E00000
700000E00000
700000E00000
F00000E00000
E00000E00000
E00000E00000
E00000E00000
E00000E00000
E00000FFFFC0
E00000FFFFC0
E00000FFFFC0
E00000E00000
E00000E00000
E00000E00000
E00000E00000
E00000E00000
E00000E00000
E00000E00000
F00000E00000
700000E00000
700000E00000
380000E00000
3C0000E00000
1C0000E00000
1E0000E00000
0F0000E00000
078000E00000
03E000E00000
01F800E00000
007FF0FFFFFC
001FFFFFFFFC
0003FFFFFFFC
ENDCHAR
STARTCHAR 0153
ENCODING 339
SWIDTH 845 0
DWIDTH 54 0
BBX 49 33 3 -1
BITMAP
003F80003F8000
00FFF000FFE000
03FFF803FBF000
07C03C07807800
0F001E0F001C00
0E00070E000E00
1C00071C000E00
3C000398000700
380001B8000700
780001F0000700
700001F0000380
700000F0000380
700000E0000380
700000E0000380
E00000E0000380
E00000FFFFFF80
E00000FFFFFF80
E00000E0000000
E00000E0000000
E00000E0000000
700000E0000000
700000F0000000
700000F0000000
780001F0000000
380001B8000000
3C0003B8000000
1C00031C000000
1E00070E000000
0F000E0F000600
07C03C07C01E00
03FFF801FFFE00
00FFF000FFF800
003F80003FC000
ENDCHAR
STARTCHAR 0154
ENCODING 340
SWIDTH 547 0
DWIDTH 35 0
BBX 27 54 6 0
BITMAP
0000C000
0001E000
0003C000
00078000
000F0000
001C0000
00380000
00700000
00200000
00000000
00000000
00000000
FFFF8000
FFFFF800
E01FFC00
E0003E00
E0000F00
E0000780
E0000380
E00003C0
E00001C0
E00001C0
E00001C0
E00001C0
E00001C0
E00001C0
E00001C0
E0000380
E0000780
E0000F00
E0001E00
E000FC00
FFFFF800
FFFFE000
E00E0000
E0070000
E0078000
E0038000
E003C000
E001C000
E000E000
E000F000
E0007000
E0007800
E0003800
E0001C00
E0001C00
E0000E00
E0000F00
E0000700
E0000780
E0000380
E00001C0
E00001E0
ENDCHAR
STARTCHAR 0155
ENCODING 341
SWIDTH 313 0
DWIDTH 20 0
BBX 14 47 6 1
BITMAP
001C
003C
0078
00F0
01E0
03C0
0780
0700
0E00
0C00
0000
0000
0000
0000
0000
007C
C1FC
C3FC
C700
CE00
FC00
F800
F000
F000
E000
E000
E000
E000
E000
E000
E000
E000
E000
E000
E000
E000
E000
E000
E000
E000
E000
E000
E000
E000
E000
E000
E000
ENDCHAR
STARTCHAR 0156
ENCODING 342
SWIDTH 547 0
DWIDTH 35 0
BBX 27 56 6 -14
BITMAP
FFFF8000
FFFFF800
E01FFC00
E0003E00
E0000F00
E0000780
E0000380
E00003C0
E00001C0
E00001C0
E00001C0
E00001C0
E00001C0
E00001C0
E00001C0
E0000380
E0000780
E0000F00
E0001E00
E000FC00
FFFFF800
FFFFE000
E00E0000
E0070000
E0078000
E0038000
E003C000
E001C000
E000E000
E000F000
E0007000
E0007800
E0003800
E0001C00
E0001C00
E0000E00
E0000F00
E0000700
E0000780
E0000380
E00001C0
E00001E0
00000000
00000000
00000000
00000000
00380000
003F0000
00070000
00038000
00038000
00038000
00030000
000F0000
01FC0000
00E00000
ENDCHAR
STARTCHAR 0157
ENCODING 343
SWIDTH 313 0
DWIDTH 20 0
BBX 18 46 2 -14
BITMAP
0007C0
0C1FC0
0C3FC0
0C7000
0CE000
0FC000
0F8000
0F0000
0F0000
0E0000
0E0000
0E0000
0E0000
0E0000
0E0000
0E0000
0E0000
0E0000
0E0000
0E0000
0E0000
0E0000
0E0000
0E0000
0E0000
0E0000
0E0000
0E0000
0E0000
0E0000
0E0000
0E0000
000000
000000
000000
000000
1C0000
3F0000
078000
018000
018000
018000
038000
0F0000
FE0000
F00000
ENDCHAR
STARTCHAR 0158
ENCODING 344
SWIDTH 547 0
DWIDTH 35 0
BBX 27 53 6 0
BITMAP
18003000
0E006000
0700C000
03838000
01C78000
00EF0000
007E0000
003C0000
00000000
00000000
00000000
FFFF8000
FFFFF800
E01FFC00
E0003E00
E0000F00
E0000780
E0000380
E00003C0
E00001C0
E00001C0
E00001C0
E00001C0
E00001C0
E00001C0
E00001C0
E0000380
E0000780
E0000F00
E0001E00
E000FC00
FFFFF800
FFFFE000
E00E0000
E0070000
E0078000
E0038000
E003C000
E001C000
E000E000
E000F000
E0007000
E0007800
E0003800
E0001C00
E0001C00
E0000E00
E0000F00
E0000700
E0000780
E0000380
E00001C0
E00001E0
ENDCHAR
STARTCHAR 0159
ENCODING 345
SWIDTH 313 0
DWIDTH 20 0
BBX 17 47 4 0
BITMAP
C00180
600380
700700
380600
1C0E00
0E1C00
073800
07F000
03E000
01E000
000000
000000
000000
000000
000000
001F00
307F00
30FF00
31C000
338000
3F0000
3E0000
3C0000
3C0000
380000
380000
380000
380000
380000
380000
380000
380000
380000
380000
380000
380000
380000
380000
380000
380000
380000
380000
380000
380000
380000
380000
380000
ENDCHAR
STARTCHAR 015A
ENCODING 346
SWIDTH 516 0
DWIDTH 33 0
BBX 28 55 3 0
BITMAP
00001800
00003800
00007000
0000E000
0001C000
00038000
00070000
000E0000
00000000
00000000
00000000
001FC000
00FFF800
03FFFE00
07C01F00
0F0007C0
0E0001C0
1C000080
1C000000
38000000
38000000
38000000
38000000
38000000
1C000000
1E000000
0E000000
0F800000
07C00000
03F00000
00FE0000
003F8000
000FE000
0003F800
0000FE00
00003F00
00000F80
000003C0
000001E0
000000E0
000000E0
000000F0
00000070
00000070
00000070
00000070
000000E0
600000E0
F00001E0
780003C0
3E000780
1F801F00
07FFFE00
01FFF800
003FC000
ENDCHAR
STARTCHAR 015B
ENCODING 347
SWIDTH 406 0
DWIDTH 26 0
BBX 22 49 2 -1
BITMAP
000080
0001C0
0001C0
000380
000700
000E00
001C00
003800
007000
00E000
004000
000000
000000
000000
000000
000000
00FE00
07FFC0
0FEFE0
1E00F0
3C0020
380000
380000
300000
300000
380000
380000
3C0000
1E0000
0F8000
07F000
01FC00
007F00
000FC0
0003E0
0000F0
000078
000038
00003C
00001C
00001C
00001C
000038
600038
F00070
7C00F0
3FEFE0
0FFF80
01FE00
ENDCHAR
STARTCHAR 015C
ENCODING 348
SWIDTH 516 0
DWIDTH 33 0
BBX 28 55 3 -1
BITMAP
000F0000
000F8000
001DC000
0038E000
00707000
00E03800
01801C00
03000E00
00000000
00000000
00000000
001FC000
00FFF800
03FFFE00
07C01F00
0F0007C0
0E0001C0
1C000080
1C000000
38000000
38000000
38000000
38000000
38000000
1C000000
1E000000
0E000000
0F800000
07C00000
03F00000
00FE0000
003F8000
000FE000
0003F800
0000FE00
00003F00
00000F80
000003C0
000001E0
000000E0
000000E0
000000F0
00000070
00000070
00000070
00000070
000000E0
600000E0
F00001E0
780003C0
3E000780
1F801F00
07FFFE00
01FFF800
003FC000
ENDCHAR
STARTCHAR 015D
ENCODING 349
SWIDTH 406 0
DWIDTH 26 0
BBX 22 48 2 -1
BITMAP
007C00
00FC00
00EE00
01C700
038380
0701C0
0E00E0
0C0060
180030
000020
000000
000000
000000
000000
000000
00FE00
07FFC0
0FEFE0
1E00F0
3C0020
380000
380000
300000
300000
380000
380000
3C0000
1E0000
0F8000
07F000
01FC00
007F00
000FC0
0003E0
0000F0
000078
000038
00003C
00001C
00001C
00001C
000038
600038
F00070
7C00F0
3FEFE0
0FFF80
01FE00
ENDCHAR
STARTCHAR 015E
ENCODING 350
SWIDTH 516 0
DWIDTH 33 0
BBX 28 57 3 -14
BITMAP
001FC000
00FFF800
03FFFE00
07C01F00
0F0007C0
0E0001C0
1C000080
1C000000
38000000
38000000
38000000
38000000
38000000
1C000000
1E000000
0E000000
0F800000
07C00000
03F00000
00FE0000
003F8000
000FE000
0003F800
0000FE00
00003F00
00000F80
000003C0
000001E0
000000E0
000000E0
000000F0
00000070
00000070
00000070
00000070
000000E0
600000E0
F00001E0
780003C0
3E000780
1F801F00
07FFFE00
01FFF800
003FC000
00060000
00060000
000C0000
000E0000
001F8000
0003C000
0000C000
0000E000
0000C000
0001C000
00078000
007F0000
00780000
ENDCHAR
STARTCHAR 015F
ENCODING 351
SWIDTH 406 0
DWIDTH 26 0
BBX 22 46 2 -14
BITMAP
00FE00
07FFC0
0FEFE0
1E00F0
3C0020
380000
380000
300000
300000
380000
380000
3C0000
1E0000
0F8000
07F000
01FC00
007F00
000FC0
0003E0
0000F0
000078
000038
00003C
00001C
00001C
00001C
000038
600038
F00070
7C00F0
3FEFE0
0FFF80
01FE00
003800
003000
003000
007000
007C00
000E00
000700
000300
000700
000700
001E00
03F800
01C000
ENDCHAR
STARTCHAR 0160
ENCODING 352
SWIDTH 516 0
DWIDTH 33 0
BBX 28 55 3 -1
BITMAP
03000600
03800C00
01C01800
00E07000
0078E000
003DC000
001F8000
000F0000
00000000
00000000
00000000
001FC000
00FFF800
03FFFE00
07C01F00
0F0007C0
0E0001C0
1C000080
1C000000
38000000
38000000
38000000
38000000
38000000
1C000000
1E000000
0E000000
0F800000
07C00000
03F00000
00FE0000
003F8000
000FE000
0003F800
0000FE00
00003F00
00000F80
000003C0
000001E0
000000E0
000000E0
000000F0
00000070
00000070
00000070
00000070
000000E0
600000E0
F00001E0
780003C0
3E000780
1F801F00
07FFFE00
01FFF800
003FC000
ENDCHAR
STARTCHAR 0161
ENCODING 353
SWIDTH 406 0
DWIDTH 26 0
BBX 22 48 2 -1
BITMAP
180030
1C0070
0E00E0
0701C0
038380
03C700
01C700
00EE00
007C00
003800
000000
000000
000000
000000
000000
00FE00
07FFC0
0FEFE0
1E00F0
3C0020
380000
380000
300000
300000
380000
380000
3C0000
1E0000
0F8000
07F000
01FC00
007F00
000FC0
0003E0
0000F0
000078
000038
00003C
00001C
00001C
00001C
000038
600038
F00070
7C00F0
3FEFE0
0FFF80
01FE00
ENDCHAR
STARTCHAR 0162
ENCODING 354
SWIDTH 516 0
DWIDTH 33 0
BBX 30 56 2 -14
BITMAP
FFFFFFFC
FFFFFFFC
FFFFFFFC
00070000
00070000
00070000
00070000
00070000
00070000
00070000
00070000
00070000
00070000
00070000
00070000
00070000
00070000
00070000
00070000
00070000
00070000
00070000
00070000
00070000
00070000
00070000
00070000
00070000
00070000
00070000
00070000
00070000
00070000
00070000
00070000
00070000
00070000
00070000
00070000
00070000
00070000
00070000
00070000
00060000
00060000
000C0000
000E0000
001F8000
0001C000
0000E000
0000E000
0000E000
0001C000
00078000
007F0000
00780000
ENDCHAR
STARTCHAR 0163
ENCODING 355
SWIDTH 313 0
DWIDTH 20 0
BBX 17 54 2 -14
BITMAP
060000
060000
060000
060000
060000
060000
060000
060000
060000
FFFF00
FFFF00
060000
060000
060000
060000
060000
060000
060000
060000
060000
060000
060000
060000
060000
060000
060000
060000
060000
060000
060000
060000
060000
060000
070000
070000
070000
070000
038000
03F780
01FF80
00FE00
003000
007000
006000
00E000
00FC00
001E00
000E00
000600
000600
000E00
003C00
03F800
03C000
ENDCHAR
STARTCHAR 0164
ENCODING 356
SWIDTH 516 0
DWIDTH 33 0
BBX 30 53 2 0
BITMAP
03000600
01C00E00
00E01C00
00707800
0038F000
001DE000
000FC000
00078000
00000000
00000000
00000000
FFFFFFFC
FFFFFFFC
FFFFFFFC
00070000
00070000
00070000
00070000
00070000
00070000
00070000
00070000
00070000
00070000
00070000
00070000
00070000
00070000
00070000
00070000
00070000
00070000
00070000
00070000
00070000
00070000
00070000
00070000
00070000
00070000
00070000
00070000
00070000
00070000
00070000
00070000
00070000
00070000
00070000
00070000
00070000
00070000
00070000
ENDCHAR
STARTCHAR 0165
ENCODING 357
SWIDTH 313 0
DWIDTH 20 0
BBX 17 50 2 -1
BITMAP
000700
000700
000700
000700
000700
000700
000700
000700
000600
060600
060600
060600
060600
060600
060000
060000
060000
060000
FFFF00
FFFF00
060000
060000
060000
060000
060000
060000
060000
060000
060000
060000
060000
060000
060000
060000
060000
060000
060000
060000
060000
060000
060000
060000
070000
070000
070000
070000
038000
03F780
01FF80
007E00
ENDCHAR
STARTCHAR 0166
ENCODING 358
SWIDTH 516 0
DWIDTH 33 0
BBX 30 42 2 0
BITMAP
FFFFFFFC
FFFFFFFC
FFFFFFFC
00070000
00070000
00070000
00070000
00070000
00070000
00070000
00070000
00070000
00070000
00070000
00070000
00070000
00070000
00070000
00070000
07FFFF00
07FFFF00
00070000
00070000
00070000
00070000
00070000
00070000
00070000
00070000
00070000
00070000
00070000
00070000
00070000
00070000
00070000
00070000
00070000
00070000
00070000
00070000
00070000
ENDCHAR
STARTCHAR 0167
ENCODING 359
SWIDTH 313 0
DWIDTH 20 0
BBX 17 41 2 -1
BITMAP
060000
060000
060000
060000
060000
060000
060000
060000
060000
FFFF00
FFFF00
060000
060000
060000
060000
060000
060000
060000
060000
060000
060000
060000
060000
FFFF00
FFFF00
060000
060000
060000
060000
060000
060000
060000
060000
070000
070000
070000
070000
038000
03FF80
01FF80
007E00
ENDCHAR
STARTCHAR 0168
ENCODING 360
SWIDTH 641 0
DWIDTH 41 0
BBX 28 54 6 -1
BITMAP
01F00180
03FC0380
07BE0300
0E0F0300
0C078700
0C03FE00
0C00FC00
00000000
00000000
00000000
00000000
E0000030
E0000030
E0000030
E0000030
E0000030
E0000030
E0000030
E0000030
E0000030
E0000030
E0000030
E0000030
E0000030
E0000030
E0000030
E0000030
E0000030
E0000030
E0000030
E0000030
E0000030
E0000030
E0000030
E0000030
E0000030
E0000030
E0000030
E0000030
E0000030
E0000070
E0000070
70000070
70000070
70000060
780000E0
380000E0
3C0001C0
1E0003C0
0F000780
0FC01F00
03FFFE00
01FFF800
003FC000
ENDCHAR
STARTCHAR 0169
ENCODING 361
SWIDTH 532 0
DWIDTH 34 0
BBX 23 47 5 -1
BITMAP
07800C
0FE00C
1CF00C
18380C
30181C
301C18
300F38
3007F0
7001E0
000000
000000
000000
000000
000000
000000
E0000E
E0000E
E0000E
E0000E
E0000E
E0000E
E0000E
E0000E
E0000E
E0000E
E0000E
E0000E
E0000E
E0000E
E0000E
E0000E
E0000E
E0000E
E0000E
E0000E
E0000E
E0000E
60000E
70000E
70001E
70003E
78007E
3800EE
3C03CE
1FFF8E
0FFE06
03F800
ENDCHAR
STARTCHAR 016A
ENCODING 362
SWIDTH 641 0
DWIDTH 41 0
BBX 28 51 6 -1
BITMAP
03FFFC00
03FFFC00
00000000
00000000
00000000
00000000
00000000
00000000
E0000030
E0000030
E0000030
E0000030
E0000030
E0000030
E0000030
E0000030
E0000030
E0000030
E0000030
E0000030
E0000030
E0000030
E0000030
E0000030
E0000030
E0000030
E0000030
E0000030
E0000030
E0000030
E0000030
E0000030
E0000030
E0000030
E0000030
E0000030
E0000030
E0000070
E0000070
70000070
70000070
70000060
780000E0
380000E0
3C0001C0
1E0003C0
0F000780
0FC01F00
03FFFE00
01FFF800
003FC000
ENDCHAR
STARTCHAR 016B
ENCODING 363
SWIDTH 532 0
DWIDTH 34 0
BBX 23 42 5 -1
BITMAP
0FFFE0
0FFFE0
000000
000000
000000
000000
000000
000000
000000
000000
E0000E
E0000E
E0000E
E0000E
E0000E
E0000E
E0000E
E0000E
E0000E
E0000E
E0000E
E0000E
E0000E
E0000E
E0000E
E0000E
E0000E
E0000E
E0000E
E0000E
E0000E
E0000E
60000E
70000E
70001E
70003E
78007E
3800EE
3C03CE
1FFF8E
0FFE06
03F800
ENDCHAR
STARTCHAR 016C
ENCODING 364
SWIDTH 641 0
DWIDTH 41 0
BBX 28 54 6 -1
BITMAP
03000600
03000E00
03800C00
01801C00
01C03800
00F07800
007FE000
001F8000
00000000
00000000
00000000
E0000030
E0000030
E0000030
E0000030
E0000030
E0000030
E0000030
E0000030
E0000030
E0000030
E0000030
E0000030
E0000030
E0000030
E0000030
E0000030
E0000030
E0000030
E0000030
E0000030
E0000030
E0000030
E0000030
E0000030
E0000030
E0000030
E0000030
E0000030
E0000030
E0000070
E0000070
70000070
70000070
70000060
780000E0
380000E0
3C0001C0
1E0003C0
0F000780
0FC01F00
03FFFE00
01FFF800
003FC000
ENDCHAR
STARTCHAR 016D
ENCODING 365
SWIDTH 532 0
DWIDTH 34 0
BBX 23 47 5 -1
BITMAP
380018
180018
180018
1C0038
0E0070
0F00F0
0781E0
03FFC0
00FF00
000000
000000
000000
000000
000000
000000
E0000E
E0000E
E0000E
E0000E
E0000E
E0000E
E0000E
E0000E
E0000E
E0000E
E0000E
E0000E
E0000E
E0000E
E0000E
E0000E
E0000E
E0000E
E0000E
E0000E
E0000E
E0000E
60000E
70000E
70001E
70003E
78007E
3800EE
3C03CE
1FFF8E
0FFE06
03F800
ENDCHAR
STARTCHAR 016E
ENCODING 366
SWIDTH 641 0
DWIDTH 41 0
BBX 28 56 6 -1
BITMAP
000F8000
003FC000
00706000
00607000
00603000
00603000
00603000
00606000
0030E000
001FC000
00060000
00000000
00000000
E0000030
E0000030
E0000030
E0000030
E0000030
E0000030
E0000030
E0000030
E0000030
E0000030
E0000030
E0000030
E0000030
E0000030
E0000030
E0000030
E0000030
E0000030
E0000030
E0000030
E0000030
E0000030
E0000030
E0000030
E0000030
E0000030
E0000030
E0000030
E0000030
E0000070
E0000070
70000070
70000070
70000060
780000E0
380000E0
3C0001C0
1E0003C0
0F000780
0FC01F00
03FFFE00
01FFF800
003FC000
ENDCHAR
STARTCHAR 016F
ENCODING 367
SWIDTH 532 0
DWIDTH 34 0
BBX 23 49 5 -1
BITMAP
001800
00FF00
01C380
038180
0300C0
0300C0
0300C0
0300C0
0300C0
038180
01C380
00FF00
001800
000000
000000
000000
000000
E0000E
E0000E
E0000E
E0000E
E0000E
E0000E
E0000E
E0000E
E0000E
E0000E
E0000E
E0000E
E0000E
E0000E
E0000E
E0000E
E0000E
E0000E
E0000E
E0000E
E0000E
E0000E
60000E
70000E
70001E
70003E
78007E
3800EE
3C03CE
1FFF8E
0FFE06
03F800
ENDCHAR
STARTCHAR 0170
ENCODING 368
SWIDTH 641 0
DWIDTH 41 0
BBX 28 56 6 -1
BITMAP
00030180
000701C0
00070380
000E0700
000C0600
001C0E00
00380C00
00301800
00703800
00201000
00000000
00000000
00000000
E0000030
E0000030
E0000030
E0000030
E0000030
E0000030
E0000030
E0000030
E0000030
E0000030
E0000030
E0000030
E0000030
E0000030
E0000030
E0000030
E0000030
E0000030
E0000030
E0000030
E0000030
E0000030
E0000030
E0000030
E0000030
E0000030
E0000030
E0000030
E0000030
E0000070
E0000070
70000070
70000070
70000060
780000E0
380000E0
3C0001C0
1E0003C0
0F000780
0FC01F00
03FFFE00
01FFF800
003FC000
ENDCHAR
STARTCHAR 0171
ENCODING 369
SWIDTH 532 0
DWIDTH 34 0
BBX 23 49 5 -1
BITMAP
000C04
000C0E
001C0C
00181C
003818
003038
007030
006070
00C060
00C0C0
0180C0
000000
000000
000000
000000
000000
000000
E0000E
E0000E
E0000E
E0000E
E0000E
E0000E
E0000E
E0000E
E0000E
E0000E
E0000E
E0000E
E0000E
E0000E
E0000E
E0000E
E0000E
E0000E
E0000E
E0000E
E0000E
E0000E
60000E
70000E
70001E
70003E
78007E
3800EE
3C03CE
1FFF8E
0FFE06
03F800
ENDCHAR
STARTCHAR 0172
ENCODING 370
SWIDTH 641 0
DWIDTH 41 0
BBX 28 55 6 -13
BITMAP
E0000030
E0000030
E0000030
E0000030
E0000030
E0000030
E0000030
E0000030
E0000030
E0000030
E0000030
E0000030
E0000030
E0000030
E0000030
E0000030
E0000030
E0000030
E0000030
E0000030
E0000030
E0000030
E0000030
E0000030
E0000030
E0000030
E0000030
E0000030
E0000030
E0000070
E0000070
70000070
70000070
70000060
780000E0
380000E0
3C0001C0
1E000380
0F000780
0FC01F00
03FFFC00
01FFF800
003FE000
00038000
00070000
000E0000
000C0000
001C0000
00180000
00180000
00180000
001C0000
001E0000
000FF000
0007E000
ENDCHAR
STARTCHAR 0173
ENCODING 371
SWIDTH 532 0
DWIDTH 34 0
BBX 24 44 5 -13
BITMAP
E0000E
E0000E
E0000E
E0000E
E0000E
E0000E
E0000E
E0000E
E0000E
E0000E
E0000E
E0000E
E0000E
E0000E
E0000E
E0000E
E0000E
E0000E
E0000E
E0000E
E0000E
E0000E
60000E
70000E
70001E
70003E
78007E
3800EE
3C03CE
1FFF8E
0FFE06
03F80C
000038
000070
000060
0000C0
0000C0
0001C0
000180
0001C0
0001C0
0001E1
0000FF
00007E
ENDCHAR
STARTCHAR 0174
ENCODING 372
SWIDTH 766 0
DWIDTH 49 0
BBX 45 53 2 0
BITMAP
00000F800000
00001FC00000
00003DE00000
000078F00000
0000E0380000
0001C01C0000
0003800E0000
000100060000
000000000000
000000000000
000000000000
E00007000038
E00007800038
E0000F800038
70000F800030
70000D800070
70000DC00070
70001DC00070
70001CC00070
380018C00060
380018E000E0
380038E000E0
3800386000E0
1C00306000C0
1C00307001C0
1C00707001C0
1C00603001C0
0C00603801C0
0E00E0380180
0E00E0380380
0E00C0180380
0E00C01C0380
0601C01C0300
0701C01C0300
0701800C0700
0701800E0700
0303800E0700
0383800E0600
038300060600
038300070E00
038700070E00
018700030C00
01C600030C00
01C600038C00
01CE00039C00
00CE00019C00
00CC00019800
00EC0001D800
00EC0001D800
00780000F800
00780000F000
00780000F000
00780000F000
ENDCHAR
STARTCHAR 0175
ENCODING 373
SWIDTH 688 0
DWIDTH 44 0
BBX 40 47 2 0
BITMAP
00003C0000
00007E0000
0000EF0000
0001C70000
0001C38000
000381C000
000700E000
000E007000
001C003800
0008001000
0000000000
0000000000
0000000000
0000000000
0000000000
0000000000
E0003C0007
E0003C0007
E0003C0007
70007E000E
70006E000E
700066000E
7000E6000C
3800E7001C
3800C7001C
3800C3001C
1801C38018
1C01838038
1C01818038
1C01818030
0E0381C070
0E0301C070
0E0300C070
060700C060
070600E0E0
070600E0E0
03060060C0
038E0070C0
038C0071C0
038C0031C0
018C003180
01DC003980
01D8003B80
00D8001B00
00F8001F00
00F0001F00
00F0000F00
ENDCHAR
STARTCHAR 0176
ENCODING 374
SWIDTH 453 0
DWIDTH 29 0
BBX 28 53 0 0
BITMAP
000F0000
001F8000
003DC000
0070E000
00E07000
01C01800
03800C00
03000400
00000000
00000000
00000000
F0000070
70000070
780000E0
380000E0
3C0001C0
1C0001C0
1C000380
0E000380
0E000700
07000700
07000E00
03800E00
03801C00
01C01C00
01C03800
00E03800
00E07000
00706000
0070E000
0038C000
0039C000
001D8000
001F8000
000F0000
00070000
00070000
00070000
00070000
00070000
00070000
00070000
00070000
00070000
00070000
00070000
00070000
00070000
00070000
00070000
00070000
00070000
00070000
ENDCHAR
STARTCHAR 0177
ENCODING 375
SWIDTH 438 0
DWIDTH 28 0
BBX 26 61 1 -14
BITMAP
001F0000
001F8000
003B8000
0071C000
00E0E000
01C07000
01803800
03801800
07000C00
02000C00
00000000
00000000
00000000
00000000
00000000
00000000
E00001C0
E00001C0
70000380
70000380
38000380
38000700
38000700
1C000600
1C000E00
0C000E00
0E000C00
0E001C00
07001C00
07001800
03003800
03803800
03803000
01C07000
01C07000
00C06000
00E0E000
00E0E000
0060C000
0071C000
0031C000
00398000
003B8000
001B0000
001F0000
000F0000
000E0000
000E0000
000E0000
000C0000
001C0000
001C0000
00180000
00380000
00300000
00700000
00E00000
01E00000
7FC00000
7F000000
7C000000
ENDCHAR
STARTCHAR 0178
ENCODING 376
SWIDTH 453 0
DWIDTH 29 0
BBX 28 51 0 0
BITMAP
01801C00
03C03E00
03C03E00
03C03E00
01800800
00000000
00000000
00000000
00000000
F0000070
70000070
780000E0
380000E0
3C0001C0
1C0001C0
1C000380
0E000380
0E000700
07000700
07000E00
03800E00
03801C00
01C01C00
01C03800
00E03800
00E07000
00706000
0070E000
0038C000
0039C000
001D8000
001F8000
000F0000
00070000
00070000
00070000
00070000
00070000
00070000
00070000
00070000
00070000
00070000
00070000
00070000
00070000
00070000
00070000
00070000
00070000
00070000
ENDCHAR
STARTCHAR 0179
ENCODING 377
SWIDTH 532 0
DWIDTH 34 0
BBX 28 54 3 0
BITMAP
00001800
00003C00
00007800
0000F000
0001E000
0003C000
00070000
000E0000
00040000
00000000
00000000
00000000
3FFFFFF0
3FFFFFF0
3FFFFFF0
000000E0
000001C0
000001C0
00000380
00000700
00000700
00000E00
00001C00
00001C00
00003800
00007800
00007000
0000E000
0001E000
0001C000
00038000
00038000
00070000
000E0000
000E0000
001C0000
00380000
00380000
00700000
00F00000
00E00000
01C00000
03C00000
03800000
07000000
07000000
0E000000
1C000000
1C000000
38000000
70000000
7FFFFFF0
FFFFFFF0
FFFFFFF0
ENDCHAR
STARTCHAR 017A
ENCODING 378
SWIDTH 406 0
DWIDTH 26 0
BBX 22 48 2 0
BITMAP
000040
0000E0
0001E0
0003C0
000780
000F00
000E00
001C00
003800
007000
006000
000000
000000
000000
000000
000000
000000
3FFFFC
3FFFF8
000038
000070
0000E0
0000E0
0001C0
000380
000380
000700
000E00
000E00
001C00
003800
003800
007000
00E000
00E000
01C000
038000
038000
070000
0E0000
0E0000
1C0000
380000
380000
700000
E00000
FFFFFC
FFFFFC
ENDCHAR
STARTCHAR 017B
ENCODING 379
SWIDTH 532 0
DWIDTH 34 0
BBX 28 51 3 0
BITMAP
00078000
00078000
000F8000
00078000
00070000
00000000
00000000
00000000
00000000
3FFFFFF0
3FFFFFF0
3FFFFFF0
000000E0
000001C0
000001C0
00000380
00000700
00000700
00000E00
00001C00
00001C00
00003800
00007800
00007000
0000E000
0001E000
0001C000
00038000
00038000
00070000
000E0000
000E0000
001C0000
00380000
00380000
00700000
00F00000
00E00000
01C00000
03C00000
03800000
07000000
07000000
0E000000
1C000000
1C000000
38000000
70000000
7FFFFFF0
FFFFFFF0
FFFFFFF0
ENDCHAR
STARTCHAR 017C
ENCODING 380
SWIDTH 406 0
DWIDTH 26 0
BBX 22 43 2 0
BITMAP
003C00
003C00
003C00
003C00
003800
000000
000000
000000
000000
000000
000000
000000
3FFFFC
3FFFF8
000038
000070
0000E0
0000E0
0001C0
000380
000380
000700
000E00
000E00
001C00
003800
003800
007000
00E000
00E000
01C000
038000
038000
070000
0E0000
0E0000
1C0000
380000
380000
700000
E00000
FFFFFC
FFFFFC
ENDCHAR
STARTCHAR 017D
ENCODING 381
SWIDTH 532 0
DWIDTH 34 0
BBX 28 53 3 0
BITMAP
03800600
01C00E00
00E01C00
00703800
00387000
001DE000
000FC000
00078000
00000000
00000000
00000000
3FFFFFF0
3FFFFFF0
3FFFFFF0
000000E0
000001C0
000001C0
00000380
00000700
00000700
00000E00
00001C00
00001C00
00003800
00007800
00007000
0000E000
0001E000
0001C000
00038000
00038000
00070000
000E0000
000E0000
001C0000
00380000
00380000
00700000
00F00000
00E00000
01C00000
03C00000
03800000
07000000
07000000
0E000000
1C000000
1C000000
38000000
70000000
7FFFFFF0
FFFFFFF0
FFFFFFF0
ENDCHAR
STARTCHAR 017E
ENCODING 382
SWIDTH 406 0
DWIDTH 26 0
BBX 22 47 2 0
BITMAP
080030
0C0030
060060
0700E0
0381C0
01C380
00E700
007E00
007E00
003C00
000000
000000
000000
000000
000000
000000
3FFFFC
3FFFF8
000038
000070
0000E0
0000E0
0001C0
000380
000380
000700
000E00
000E00
001C00
003800
003800
007000
00E000
00E000
01C000
038000
038000
070000
0E0000
0E0000
1C0000
380000
380000
700000
E00000
FFFFFC
FFFFFC
ENDCHAR
STARTCHAR 0180
ENCODING 384
SWIDTH 532 0
DWIDTH 34 0
BBX 30 47 1 -1
BITMAP
07000000
07000000
07000000
07000000
07000000
07000000
07000000
FFFFF000
FFFFF000
07000000
07000000
07000000
07000000
07000000
07000000
07000000
07000000
0703FE00
070FFF80
073E07C0
077801E0
07E000F0
07C00078
07000038
07000038
0700001C
0700001C
0700001C
0700001C
0700001C
0700001C
0700001C
0700001C
0700001C
0700001C
0700001C
0700001C
07000038
07000038
07000078
07000070
078000E0
07E001E0
06F007C0
063FFF80
061FFE00
0003F000
ENDCHAR
STARTCHAR 018F
ENCODING 399
SWIDTH 641 0
DWIDTH 41 0
BBX 34 44 4 -1
BITMAP
0007F80000
007FFF0000
01FFFFC000
03E003E000
078000F000
0600007800
0000003C00
0000001E00
0000000E00
0000000F00
0000000700
0000000700
0000000380
0000000380
0000000380
0000000380
00000001C0
00000001C0
00000001C0
00000001C0
00000001C0
00000001C0
FFFFFFFFC0
FFFFFFFFC0
E0000001C0
E0000001C0
E0000001C0
E0000001C0
E000000380
7000000380
7000000380
7000000380
3800000700
3800000700
3800000E00
1C00000E00
1E00001C00
0F00003C00
0780007800
03C000F000
01F003E000
00FF7FC000
003FFF0000
000FF80000
ENDCHAR
STARTCHAR 0192
ENCODING 402
SWIDTH 485 0
DWIDTH 31 0
BBX 27 49 1 -6
BITMAP
00000FC0
00003FE0
00007FE0
0000F000
0000E000
0001C000
00018000
00038000
00038000
00038000
00030000
00070000
00070000
00070000
00070000
00070000
00070000
03FFFF00
03FFFF00
00060000
000E0000
000E0000
000E0000
000E0000
000E0000
000E0000
000E0000
000C0000
000C0000
001C0000
001C0000
001C0000
001C0000
001C0000
001C0000
001C0000
001C0000
00180000
00380000
00380000
00380000
00380000
00700000
00700000
00F00000
00E00000
83C00000
FF800000
FF000000
ENDCHAR
STARTCHAR 0193
ENCODING 403
SWIDTH 610 0
DWIDTH 39 0
BBX 34 52 4 -1
BITMAP
0000000F80
0000001FC0
0000003FC0
0000007000
0000007000
0000006000
0000006000
0000007000
0003FE7000
001FFFF000
007FFFF800
01F800F800
03E0003800
0780001000
0F00000000
1E00000000
1C00000000
3C00000000
3800000000
7800000000
7000000000
7000000000
F000000000
E000000000
E000000000
E000000000
E000000000
E000000000
E000000000
E000000000
E000000000
E0007FFC00
E0007FFC00
E000001C00
E000001C00
E000001C00
E000001C00
F000001C00
7000001C00
7000001C00
7800001C00
3800001C00
3C00001C00
1C00001C00
1E00001C00
0F00001C00
0780001C00
03E0007C00
01F801F800
00FFFFE000
003FFF8000
0007FC0000
ENDCHAR
STARTCHAR 01A0
ENCODING 416
SWIDTH 657 0
DWIDTH 42 0
BBX 34 52 4 -1
BITMAP
0000000180
00000003C0
00000001C0
00000001C0
00000001C0
00000001C0
00000001C0
0000000380
0007F80780
003FFF1F00
00FFFFFC00
01F003F000
03C000F000
0780007800
0F00003C00
0E00001E00
1C00000E00
3C00000F00
3800000700
3800000780
7000000380
7000000380
70000003C0
E0000001C0
E0000001C0
E0000001C0
E0000001C0
E0000001C0
E0000001C0
E0000001C0
E0000001C0
E0000001C0
E0000001C0
E0000001C0
E0000001C0
E0000001C0
F0000001C0
70000003C0
7000000380
7000000380
3800000780
3800000700
3C00000F00
1C00000E00
0E00001E00
0F00003C00
0780007800
03E000F000
01F803E000
00FFFFC000
003FFF0000
0007F80000
ENDCHAR
STARTCHAR 01A1
ENCODING 417
SWIDTH 532 0
DWIDTH 34 0
BBX 29 42 3 0
BITMAP
00000030
00000038
00000038
00000038
00000038
00000038
00000038
00000070
000000F0
001FC1E0
00FFFF80
03FFFE00
07C03E00
0F000F00
0E000780
1C000380
3C0001C0
380001C0
780000E0
700000E0
700000E0
70000070
60000070
E0000070
E0000070
E0000070
E0000070
E0000070
E0000070
70000070
700000E0
700000E0
780000E0
380001C0
3C0001C0
1C000380
1E000780
0F000F00
07C03E00
03FFFC00
00FFF000
003FC000
ENDCHAR
STARTCHAR 01AF
ENCODING 431
SWIDTH 641 0
DWIDTH 41 0
BBX 35 53 6 -1
BITMAP
00000000C0
00000000E0
00000000E0
00000000E0
00000000E0
00000000E0
00000000E0
00000000C0
00000001C0
0000000780
E000003E00
E000003800
E000003000
E000003000
E000003000
E000003000
E000003000
E000003000
E000003000
E000003000
E000003000
E000003000
E000003000
E000003000
E000003000
E000003000
E000003000
E000003000
E000003000
E000003000
E000003000
E000003000
E000003000
E000003000
E000003000
E000003000
E000003000
E000003000
E000003000
E000007000
E000007000
7000007000
7000007000
7000006000
780000E000
380000E000
3C0001C000
1E0003C000
0F00078000
0FC01F0000
03FFFE0000
01FFF80000
003FC00000
ENDCHAR
STARTCHAR 01B0
ENCODING 432
SWIDTH 532 0
DWIDTH 34 0
BBX 29 43 5 -1
BITMAP
00000010
00000070
00000038
00000038
00000038
00000038
00000038
00000030
00000070
000000E0
000003C0
E0000F80
E0000E00
E0000E00
E0000E00
E0000E00
E0000E00
E0000E00
E0000E00
E0000E00
E0000E00
E0000E00
E0000E00
E0000E00
E0000E00
E0000E00
E0000E00
E0000E00
E0000E00
E0000E00
E0000E00
E0000E00
E0000E00
60000E00
70000E00
70001E00
70003E00
78007E00
3800EE00
3C03CE00
1FFF8E00
0FFE0600
03F80000
ENDCHAR
STARTCHAR 01C2
ENCODING 450
SWIDTH 266 0
DWIDTH 17 0
BBX 16 64 0 -16
BITMAP
00C0
00C0
00C0
00C0
00C0
00C0
00C0
00C0
00C0
00C0
00C0
00C0
00C0
00C0
00C0
00C0
00C0
00C0
00C0
00C0
00C0
00C0
00C0
00C0
00C0
FFFF
FFFF
00C0
00C0
00C0
00C0
00C0
00C0
00C0
00C0
FFFF
FFFF
00C0
00C0
00C0
00C0
00C0
00C0
00C0
00C0
00C0
00C0
00C0
00C0
00C0
00C0
00C0
00C0
00C0
00C0
00C0
00C0
00C0
00C0
00C0
00C0
00C0
00C0
00C0
ENDCHAR
STARTCHAR 01CD
ENCODING 461
SWIDTH 532 0
DWIDTH 34 0
BBX 32 53 1 0
BITMAP
01C00300
00E00700
00700E00
00381C00
001C7800
000EF000
0007E000
0003C000
00000000
00000000
00000000
00038000
0003C000
0007C000
0006E000
0006E000
000E6000
000E7000
000C7000
001C3000
001C3800
00183800
00381800
00381C00
00301C00
00700C00
00700E00
00600E00
00E00600
00E00700
01C00700
01C00380
01C00380
03800380
038001C0
030001C0
07FFFFC0
07FFFFE0
060000E0
0E0000E0
0E000070
0C000070
1C000070
1C000038
18000038
38000038
3800001C
7000001C
7000001E
7000000E
E000000E
E000000F
E0000007
ENDCHAR
STARTCHAR 01CE
ENCODING 462
SWIDTH 485 0
DWIDTH 31 0
BBX 22 48 4 -1
BITMAP
0C0018
0E0038
070070
0380E0
0381C0
01C380
00E700
007F00
003E00
001C00
000000
000000
000000
000000
000000
007F00
03FFC0
0FFFE0
3E00F0
780078
200038
00001C
00001C
00001C
00001C
00001C
00000C
00001C
0007FC
007FFC
03FC1C
0FC01C
1F001C
3C001C
78001C
70001C
E0001C
E0001C
E0001C
E0001C
E0001C
E0003C
E0007C
7000EC
7803CC
3FBF0C
1FFC0C
07F000
ENDCHAR
STARTCHAR 01CF
ENCODING 463
SWIDTH 234 0
DWIDTH 15 0
BBX 17 53 -1 0
BITMAP
C00180
700380
380700
1C1E00
0E3C00
077800
03F000
01E000
000000
000000
000000
01C000
01C000
01C000
01C000
01C000
01C000
01C000
01C000
01C000
01C000
01C000
01C000
01C000
01C000
01C000
01C000
01C000
01C000
01C000
01C000
01C000
01C000
01C000
01C000
01C000
01C000
01C000
01C000
01C000
01C000
01C000
01C000
01C000
01C000
01C000
01C000
01C000
01C000
01C000
01C000
01C000
01C000
ENDCHAR
STARTCHAR 01D0
ENCODING 464
SWIDTH 234 0
DWIDTH 15 0
BBX 17 47 -1 0
BITMAP
C00180
E00380
700700
300E00
381C00
1C3800
0E7000
07F000
03E000
01C000
000000
000000
000000
000000
000000
000000
01C000
01C000
01C000
01C000
01C000
01C000
01C000
01C000
01C000
01C000
01C000
01C000
01C000
01C000
01C000
01C000
01C000
01C000
01C000
01C000
01C000
01C000
01C000
01C000
01C000
01C000
01C000
01C000
01C000
01C000
01C000
ENDCHAR
STARTCHAR 01D1
ENCODING 465
SWIDTH 657 0
DWIDTH 42 0
BBX 34 55 4 -1
BITMAP
0040018000
0070038000
0038070000
001C0E0000
000E1C0000
0007380000
0003F00000
0001E00000
0000000000
0000000000
0000000000
0007F80000
003FFF0000
00FFFFC000
01F007E000
03C001F000
0780007800
0F00003C00
1E00001E00
1C00000E00
3800000F00
3800000700
7000000780
7000000380
7000000380
E000000380
E0000003C0
E0000001C0
E0000001C0
E0000001C0
E0000001C0
E0000001C0
E0000001C0
E0000001C0
E0000001C0
E0000001C0
E0000001C0
E0000001C0
E0000001C0
E0000003C0
F000000380
7000000380
7000000380
7800000700
3800000700
3C00000F00
1C00000E00
1E00001C00
0F00003C00
0780007800
03C000F000
01F003E000
00FFFF8000
003FFF0000
0007F80000
ENDCHAR
STARTCHAR 01D2
ENCODING 466
SWIDTH 532 0
DWIDTH 34 0
BBX 28 48 3 -1
BITMAP
03000600
03000C00
01801800
01C03800
00E07000
0070E000
0039C000
001F8000
001F8000
000F0000
00000000
00000000
00000000
00000000
00000000
001FC000
00FFF000
03FFFC00
07C03E00
0F000F00
0E000780
1C000380
3C0001C0
380001C0
780000E0
700000E0
700000E0
70000070
60000070
E0000070
E0000070
E0000070
E0000070
E0000070
E0000070
70000070
700000E0
700000E0
780000E0
380001C0
3C0001C0
1C000380
1E000780
0F000F00
07C03E00
03FFFC00
00FFF000
003FC000
ENDCHAR
STARTCHAR 01D3
ENCODING 467
SWIDTH 641 0
DWIDTH 41 0
BBX 28 54 6 -1
BITMAP
03000600
03801C00
01C03800
00E07000
0078E000
003DC000
001F8000
000F0000
00000000
00000000
00000000
E0000030
E0000030
E0000030
E0000030
E0000030
E0000030
E0000030
E0000030
E0000030
E0000030
E0000030
E0000030
E0000030
E0000030
E0000030
E0000030
E0000030
E0000030
E0000030
E0000030
E0000030
E0000030
E0000030
E0000030
E0000030
E0000030
E0000030
E0000030
E0000030
E0000070
E0000070
70000070
70000070
70000060
780000E0
380000E0
3C0001C0
1E0003C0
0F000780
0FC01F00
03FFFE00
01FFF800
003FC000
ENDCHAR
STARTCHAR 01D4
ENCODING 468
SWIDTH 532 0
DWIDTH 34 0
BBX 23 48 5 -1
BITMAP
180030
0C0030
0E0060
0700E0
0381C0
01C380
00E700
007E00
007C00
003C00
000000
000000
000000
000000
000000
000000
E0000E
E0000E
E0000E
E0000E
E0000E
E0000E
E0000E
E0000E
E0000E
E0000E
E0000E
E0000E
E0000E
E0000E
E0000E
E0000E
E0000E
E0000E
E0000E
E0000E
E0000E
E0000E
60000E
70000E
70001E
70003E
78007E
3800EE
3C03CE
1FFF8E
0FFE06
03F800
ENDCHAR
STARTCHAR 01D5
ENCODING 469
SWIDTH 641 0
DWIDTH 41 0
BBX 28 58 6 -1
BITMAP
03FFFC00
03FFFC00
00000000
00000000
00000000
00000000
00000800
03C01C00
03C03E00
03C03E00
01801C00
00000000
00000000
00000000
00000000
E0000030
E0000030
E0000030
E0000030
E0000030
E0000030
E0000030
E0000030
E0000030
E0000030
E0000030
E0000030
E0000030
E0000030
E0000030
E0000030
E0000030
E0000030
E0000030
E0000030
E0000030
E0000030
E0000030
E0000030
E0000030
E0000030
E0000030
E0000030
E0000030
E0000070
E0000070
70000070
70000070
70000060
780000E0
380000E0
3C0001C0
1E0003C0
0F000780
0FC01F00
03FFFE00
01FFF800
003FC000
ENDCHAR
STARTCHAR 01D6
ENCODING 470
SWIDTH 532 0
DWIDTH 34 0
BBX 23 51 5 -1
BITMAP
0FFFF0
0FFFF0
000000
000000
000000
000000
000000
0700E0
0F01F0
0F81F0
0F00F0
000040
000000
000000
000000
000000
000000
000000
000000
E0000E
E0000E
E0000E
E0000E
E0000E
E0000E
E0000E
E0000E
E0000E
E0000E
E0000E
E0000E
E0000E
E0000E
E0000E
E0000E
E0000E
E0000E
E0000E
E0000E
E0000E
E0000E
60000E
70000E
70001E
70003E
78007E
3800EE
3C03CE
1FFF8E
0FFE06
03F800
ENDCHAR
STARTCHAR 01D7
ENCODING 471
SWIDTH 641 0
DWIDTH 41 0
BBX 28 61 6 -1
BITMAP
00002000
00007000
0000E000
0001C000
00038000
00030000
00060000
00040000
00000000
00000800
03C01C00
03C03E00
03C03E00
01801C00
00000000
00000000
00000000
00000000
E0000030
E0000030
E0000030
E0000030
E0000030
E0000030
E0000030
E0000030
E0000030
E0000030
E0000030
E0000030
E0000030
E0000030
E0000030
E0000030
E0000030
E0000030
E0000030
E0000030
E0000030
E0000030
E0000030
E0000030
E0000030
E0000030
E0000030
E0000030
E0000030
E0000070
E0000070
70000070
70000070
70000060
780000E0
380000E0
3C0001C0
1E0003C0
0F000780
0FC01F00
03FFFE00
01FFF800
003FC000
ENDCHAR
STARTCHAR 01D8
ENCODING 472
SWIDTH 532 0
DWIDTH 34 0
BBX 23 53 5 0
BITMAP
000380
000700
000E00
001C00
001800
003000
002000
000000
000000
0700E0
0F01F0
0F81F0
0F00F0
000040
000000
000000
000000
000000
000000
000000
000000
E0000E
E0000E
E0000E
E0000E
E0000E
E0000E
E0000E
E0000E
E0000E
E0000E
E0000E
E0000E
E0000E
E0000E
E0000E
E0000E
E0000E
E0000E
E0000E
E0000E
E0000E
E0000E
60000E
70000E
70001E
70003E
78007E
3800EE
3C03CE
1FFF8E
0FFE06
03F800
ENDCHAR
STARTCHAR 01D9
ENCODING 473
SWIDTH 641 0
DWIDTH 41 0
BBX 28 61 6 -1
BITMAP
01800C00
01C01C00
00E07800
0078E000
003DC000
001F8000
000F0000
00000000
00000000
00000800
03C01C00
03C03E00
03C03E00
01801C00
00000000
00000000
00000000
00000000
E0000030
E0000030
E0000030
E0000030
E0000030
E0000030
E0000030
E0000030
E0000030
E0000030
E0000030
E0000030
E0000030
E0000030
E0000030
E0000030
E0000030
E0000030
E0000030
E0000030
E0000030
E0000030
E0000030
E0000030
E0000030
E0000030
E0000030
E0000030
E0000030
E0000070
E0000070
70000070
70000070
70000060
780000E0
380000E0
3C0001C0
1E0003C0
0F000780
0FC01F00
03FFFE00
01FFF800
003FC000
ENDCHAR
STARTCHAR 01DA
ENCODING 474
SWIDTH 532 0
DWIDTH 34 0
BBX 23 54 5 -1
BITMAP
040040
0700E0
0381C0
01C380
00E700
007E00
003C00
000000
000000
000000
0700E0
0F01F0
0F81F0
0F00F0
000040
000000
000000
000000
000000
000000
000000
000000
E0000E
E0000E
E0000E
E0000E
E0000E
E0000E
E0000E
E0000E
E0000E
E0000E
E0000E
E0000E
E0000E
E0000E
E0000E
E0000E
E0000E
E0000E
E0000E
E0000E
E0000E
E0000E
60000E
70000E
70001E
70003E
78007E
3800EE
3C03CE
1FFF8E
0FFE06
03F800
ENDCHAR
STARTCHAR 01DB
ENCODING 475
SWIDTH 641 0
DWIDTH 41 0
BBX 28 61 6 -1
BITMAP
00600000
00E00000
00700000
00380000
001C0000
000E0000
00070000
00020000
00000000
00000800
03C01C00
03C03E00
03C03E00
01801C00
00000000
00000000
00000000
00000000
E0000030
E0000030
E0000030
E0000030
E0000030
E0000030
E0000030
E0000030
E0000030
E0000030
E0000030
E0000030
E0000030
E0000030
E0000030
E0000030
E0000030
E0000030
E0000030
E0000030
E0000030
E0000030
E0000030
E0000030
E0000030
E0000030
E0000030
E0000030
E0000030
E0000070
E0000070
70000070
70000070
70000060
780000E0
380000E0
3C0001C0
1E0003C0
0F000780
0FC01F00
03FFFE00
01FFF800
003FC000
ENDCHAR
STARTCHAR 01DC
ENCODING 476
SWIDTH 532 0
DWIDTH 34 0
BBX 23 53 5 0
BITMAP
01C000
00E000
007000
003000
003800
001C00
000C00
000000
000000
0700E0
0F01F0
0F81F0
0F00F0
000040
000000
000000
000000
000000
000000
000000
000000
E0000E
E0000E
E0000E
E0000E
E0000E
E0000E
E0000E
E0000E
E0000E
E0000E
E0000E
E0000E
E0000E
E0000E
E0000E
E0000E
E0000E
E0000E
E0000E
E0000E
E0000E
E0000E
60000E
70000E
70001E
70003E
78007E
3800EE
3C03CE
1FFF8E
0FFE06
03F800
ENDCHAR
STARTCHAR 01E2
ENCODING 482
SWIDTH 813 0
DWIDTH 52 0
BBX 47 50 2 0
BITMAP
0000001FFFE0
0000001FFFE0
000000000000
000000000000
000000000000
000000000000
000000000000
000000000000
000003FFFFFC
000003FFFFFC
000007FFFFFC
000006E00000
00000EE00000
00000CE00000
00001CE00000
000038E00000
000038E00000
000070E00000
000070E00000
0000E0E00000
0000E0E00000
0001C0E00000
0001C0E00000
000380E00000
000780E00000
000700E00000
000E00FFFFE0
000E00FFFFE0
001C00FFFFE0
001C00E00000
003800E00000
003800E00000
007000E00000
00E000E00000
00FFFFE00000
01FFFFE00000
01C000E00000
038000E00000
038000E00000
070000E00000
070000E00000
0E0000E00000
1E0000E00000
1C0000E00000
380000E00000
380000E00000
700000E00000
700000FFFFFE
E00000FFFFFE
E00000FFFFFE
ENDCHAR
STARTCHAR 01E3
ENCODING 483
SWIDTH 782 0
DWIDTH 50 0
BBX 44 42 4 -1
BITMAP
0001FFFC0000
0001FFFC0000
000000000000
000000000000
000000000000
000000000000
000000000000
000000000000
000000000000
007F0007F000
03FFC01FFC00
0FFFE03F7E00
3F00F0700F00
3C0070E00380
100039C001C0
00001B8001C0
00001F8000E0
00001F0000E0
00001F0000E0
00000E000060
00000E000070
00000E000070
0003FC000070
003FFC000070
01FE0FFFFFF0
07E00FFFFFF0
0F000C000000
1C000C000000
38000E000000
70000E000000
70000E000000
E0000E000000
E00007000000
E00007000000
E0000F800000
E0001F800000
700039C00000
7000F1E000C0
3C03C0F803C0
3FBF803FFFC0
1FFE001FFF00
03F00007F800
ENDCHAR
STARTCHAR 01E6
ENCODING 486
SWIDTH 610 0
DWIDTH 39 0
BBX 30 55 4 -1
BITMAP
00300040
003801C0
001C0380
000E0700
00070E00
00039C00
0001F800
0000F000
00000000
00000000
00000000
0003FC00
001FFF80
007FFFE0
01F801F0
03E00078
07800038
0F000010
1E000000
1C000000
3C000000
38000000
78000000
70000000
70000000
F0000000
E0000000
E0000000
E0000000
E0000000
E0000000
E0000000
E0000000
E0000000
E0007FFC
E0007FFC
E000001C
E000001C
E000001C
E000001C
F000001C
7000001C
7000001C
7800001C
3800001C
3C00001C
1C00001C
1E00001C
0F00001C
0780001C
03E0007C
01F801F8
00FFFFE0
003FFF80
0007FC00
ENDCHAR
STARTCHAR 01E7
ENCODING 487
SWIDTH 485 0
DWIDTH 31 0
BBX 27 62 3 -15
BITMAP
06000C00
07001C00
03803800
01C07000
00E06000
0070E000
0079C000
003F8000
001F0000
000E0000
00000000
00000000
00000000
00000000
00000000
007E0000
01FFFFE0
07FFFFE0
0F80F000
0E003800
1C001C00
1C001C00
38000E00
38000E00
38000E00
38000E00
38000E00
38000E00
38000E00
38000E00
1C001C00
1C001C00
0E003800
0F007000
07E3E000
07FFC000
0C7F0000
1C000000
18000000
38000000
38000000
38000000
3C000000
1E000000
0FFFE000
07FFFF00
0FFFFFC0
1C0007C0
380001E0
700000E0
700000E0
60000060
E00000E0
E00000E0
E00000E0
700001C0
700003C0
38000780
3E001F00
1FE0FC00
07FFF800
00FF8000
ENDCHAR
STARTCHAR 01EA
ENCODING 490
SWIDTH 657 0
DWIDTH 42 0
BBX 34 56 4 -13
BITMAP
0007F80000
003FFF0000
00FFFFC000
01F007E000
03C001F000
0780007800
0F00003C00
1E00001E00
1C00000E00
3800000F00
3800000700
7000000780
7000000380
7000000380
E000000380
E0000003C0
E0000001C0
E0000001C0
E0000001C0
E0000001C0
E0000001C0
E0000001C0
E0000001C0
E0000001C0
E0000001C0
E0000001C0
E0000001C0
E0000001C0
E0000003C0
F000000380
7000000380
7000000380
7800000700
3800000700
3C00000F00
1C00000E00
1E00001C00
0F00003C00
0780007800
03C000F000
01F003E000
00FFFF8000
003FFF0000
0007FC0000
0000700000
0000E00000
0001C00000
0003800000
0003000000
0003000000
0007000000
0007000000
0003800000
0003C40000
0003FE0000
0000FC0000
ENDCHAR
STARTCHAR 01EB
ENCODING 491
SWIDTH 532 0
DWIDTH 34 0
BBX 28 45 3 -13
BITMAP
001FC000
00FFF000
03FFFC00
07C03E00
0F000F00
0E000780
1C000380
3C0001C0
380001C0
780000E0
700000E0
700000E0
70000070
60000070
E0000070
E0000070
E0000070
E0000070
E0000070
E0000070
70000070
700000E0
700000E0
780000E0
380001C0
3C0001C0
1C000380
1E000780
0F000F00
07C03E00
03FFFC00
00FFF000
001FC000
00030000
00060000
000C0000
000C0000
00180000
00180000
00180000
00180000
001C0000
001C2000
000FF000
0007E000
ENDCHAR
STARTCHAR 01F4
ENCODING 500
SWIDTH 610 0
DWIDTH 39 0
BBX 30 55 4 0
BITMAP
00000300
00000780
00000F00
00001E00
00003C00
00007800
0000E000
0000C000
00008000
00000000
00000000
0003FC00
001FFF80
007FFFE0
01F801F0
03E00078
07800038
0F000010
1E000000
1C000000
3C000000
38000000
78000000
70000000
70000000
F0000000
E0000000
E0000000
E0000000
E0000000
E0000000
E0000000
E0000000
E0000000
E0007FFC
E0007FFC
E000001C
E000001C
E000001C
E000001C
F000001C
7000001C
7000001C
7800001C
3800001C
3C00001C
1C00001C
1E00001C
0F00001C
0780001C
03E0007C
01F801F8
00FFFFE0
003FFF80
0007FC00
ENDCHAR
STARTCHAR 01F5
ENCODING 501
SWIDTH 485 0
DWIDTH 31 0
BBX 27 62 3 -14
BITMAP
00003000
00007800
0000F000
0001E000
0003C000
00078000
000F0000
001E0000
001C0000
00180000
00000000
00000000
00000000
00000000
00000000
007E0000
01FFFFE0
07FFFFE0
0F80F000
0E003800
1C001C00
1C001C00
38000E00
38000E00
38000E00
38000E00
38000E00
38000E00
38000E00
38000E00
1C001C00
1C001C00
0E003800
0F007000
07E3E000
07FFC000
0C7F0000
1C000000
18000000
38000000
38000000
38000000
3C000000
1E000000
0FFFE000
07FFFF00
0FFFFFC0
1C0007C0
380001E0
700000E0
700000E0
60000060
E00000E0
E00000E0
E00000E0
700001C0
700003C0
38000780
3E001F00
1FE0FC00
07FFF800
00FF8000
ENDCHAR
STARTCHAR 01F8
ENCODING 504
SWIDTH 641 0
DWIDTH 41 0
BBX 28 54 6 0
BITMAP
00400000
00E00000
00F00000
00780000
001C0000
000E0000
00070000
00038000
00010000
00000000
00000000
00000000
F0000030
F0000030
F8000030
F8000030
FC000030
EE000030
EE000030
E7000030
E7000030
E3800030
E1C00030
E1C00030
E0E00030
E0E00030
E0700030
E0780030
E0380030
E01C0030
E01C0030
E00E0030
E00F0030
E0070030
E0038030
E0038030
E001C030
E001E030
E000E030
E0007030
E0007030
E0003830
E0003C30
E0001C30
E0000E30
E0000E30
E0000730
E0000730
E00003B0
E00001B0
E00001F0
E00000F0
E00000F0
E0000070
ENDCHAR
STARTCHAR 01F9
ENCODING 505
SWIDTH 532 0
DWIDTH 34 0
BBX 23 48 6 0
BITMAP
020000
070000
078000
03C000
01E000
00F000
007000
003800
001C00
000E00
000600
000000
000000
000000
000000
000000
003F80
C0FFE0
C3FFF0
C78078
EE0038
FC003C
F8001C
F0001C
E0001C
E0000C
E0000E
E0000E
E0000E
E0000E
E0000E
E0000E
E0000E
E0000E
E0000E
E0000E
E0000E
E0000E
E0000E
E0000E
E0000E
E0000E
E0000E
E0000E
E0000E
E0000E
E0000E
E0000E
ENDCHAR
STARTCHAR 01FC
ENCODING 508
SWIDTH 813 0
DWIDTH 52 0
BBX 47 54 2 0
BITMAP
000000000180
0000000003C0
000000000780
000000000F00
000000001E00
000000003C00
000000007000
00000000E000
000000004000
000000000000
000000000000
000000000000
000003FFFFFC
000003FFFFFC
000007FFFFFC
000006E00000
00000EE00000
00000CE00000
00001CE00000
000038E00000
000038E00000
000070E00000
000070E00000
0000E0E00000
0000E0E00000
0001C0E00000
0001C0E00000
000380E00000
000780E00000
000700E00000
000E00FFFFE0
000E00FFFFE0
001C00FFFFE0
001C00E00000
003800E00000
003800E00000
007000E00000
00E000E00000
00FFFFE00000
01FFFFE00000
01C000E00000
038000E00000
038000E00000
070000E00000
070000E00000
0E0000E00000
1E0000E00000
1C0000E00000
380000E00000
380000E00000
700000E00000
700000FFFFFE
E00000FFFFFE
E00000FFFFFE
ENDCHAR
STARTCHAR 01FD
ENCODING 509
SWIDTH 782 0
DWIDTH 50 0
BBX 44 50 4 -1
BITMAP
000000100000
000000180000
000000380000
000000700000
000000F00000
000001E00000
000003C00000
000007800000
000007000000
00000E000000
00001C000000
000008000000
000000000000
000000000000
000000000000
000000000000
000000000000
007F0007F000
03FFC01FFC00
0FFFE03F7E00
3F00F0700F00
3C0070E00380
100039C001C0
00001B8001C0
00001F8000E0
00001F0000E0
00001F0000E0
00000E000060
00000E000070
00000E000070
0003FC000070
003FFC000070
01FE0FFFFFF0
07E00FFFFFF0
0F000C000000
1C000C000000
38000E000000
70000E000000
70000E000000
E0000E000000
E00007000000
E00007000000
E0000F800000
E0001F800000
700039C00000
7000F1E000C0
3C03C0F803C0
3FBF803FFFC0
1FFE001FFF00
03F00007F800
ENDCHAR
STARTCHAR 0218
ENCODING 536
SWIDTH 516 0
DWIDTH 33 0
BBX 28 57 3 -14
BITMAP
001FC000
00FFF800
03FFFE00
07C01F00
0F0007C0
0E0001C0
1C000080
1C000000
38000000
38000000
38000000
38000000
38000000
1C000000
1E000000
0E000000
0F800000
07C00000
03F00000
00FE0000
003F8000
000FE000
0003F800
0000FE00
00003F00
00000F80
000003C0
000001E0
000000E0
000000E0
000000F0
00000070
00000070
00000070
00000070
000000E0
600000E0
F00001E0
780003C0
3E000780
1F801F00
07FFFE00
01FFF800
003FC000
00000000
00000000
00000000
000C0000
001F8000
0003C000
0000C000
0000E000
0000C000
0001C000
00078000
007F0000
00780000
ENDCHAR
STARTCHAR 0219
ENCODING 537
SWIDTH 406 0
DWIDTH 26 0
BBX 22 46 2 -14
BITMAP
00FE00
07FFC0
0FEFE0
1E00F0
3C0020
380000
380000
300000
300000
380000
380000
3C0000
1E0000
0F8000
07F000
01FC00
007F00
000FC0
0003E0
0000F0
000078
000038
00003C
00001C
00001C
00001C
000038
600038
F00070
7C00F0
3FEFE0
0FFF80
01FE00
000000
000000
000000
007000
007E00
000F00
000700
000300
000300
000700
001E00
01FC00
01E000
ENDCHAR
STARTCHAR 021A
ENCODING 538
SWIDTH 516 0
DWIDTH 33 0
BBX 30 56 2 -14
BITMAP
FFFFFFFC
FFFFFFFC
FFFFFFFC
00070000
00070000
00070000
00070000
00070000
00070000
00070000
00070000
00070000
00070000
00070000
00070000
00070000
00070000
00070000
00070000
00070000
00070000
00070000
00070000
00070000
00070000
00070000
00070000
00070000
00070000
00070000
00070000
00070000
00070000
00070000
00070000
00070000
00070000
00070000
00070000
00070000
00070000
00070000
00000000
00000000
00000000
00000000
000F0000
000FC000
0001E000
0000E000
00006000
00006000
0000E000
0003C000
003F8000
003C0000
ENDCHAR
STARTCHAR 021B
ENCODING 539
SWIDTH 313 0
DWIDTH 20 0
BBX 17 54 2 -14
BITMAP
060000
060000
060000
060000
060000
060000
060000
060000
060000
FFFF00
FFFF00
060000
060000
060000
060000
060000
060000
060000
060000
060000
060000
060000
060000
060000
060000
060000
060000
060000
060000
060000
060000
060000
060000
070000
070000
070000
070000
038000
03F780
01FF80
007E00
000000
000000
000000
00E000
00FC00
001E00
000E00
000600
000600
000E00
003C00
07F800
03C000
ENDCHAR
STARTCHAR 0237
ENCODING 567
SWIDTH 234 0
DWIDTH 15 0
BBX 11 46 -2 -15
BITMAP
00E0
00E0
00E0
00E0
00E0
00E0
00E0
00E0
00E0
00E0
00E0
00E0
00E0
00E0
00E0
00E0
00E0
00E0
00E0
00E0
00E0
00E0
00E0
00E0
00E0
00E0
00E0
00E0
00E0
00E0
00E0
00E0
00E0
00E0
00E0
00E0
00E0
00E0
00E0
00E0
00C0
01C0
01C0
EF80
FF00
7E00
ENDCHAR
STARTCHAR 0243
ENCODING 579
SWIDTH 594 0
DWIDTH 38 0
BBX 33 42 2 0
BITMAP
07FFFC0000
07FFFF8000
07007FE000
070001F000
0700007800
0700003800
0700001C00
0700001C00
0700001C00
0700001C00
0700001C00
0700001C00
0700001C00
0700001C00
0700001800
0700003800
0700007000
070001E000
07001FC000
07FFFE0000
07FFFFC000
070003F000
0700007C00
0700001E00
0700000E00
0700000700
0700000700
0700000380
0700000380
FFFFE00380
FFFFE00380
0700000380
0700000380
0700000380
0700000700
0700000F00
0700000E00
0700003C00
070000F800
07000FF000
07FFFFC000
07FFFE0000
ENDCHAR
STARTCHAR 0250
ENCODING 592
SWIDTH 500 0
DWIDTH 32 0
BBX 23 33 5 -1
BITMAP
001FC0
E07FF0
E1FDF8
E7C03C
EF001C
FC000E
F8000E
F0000E
E0000E
E0000E
E0000E
E0001C
E0001C
E00038
E00070
E001E0
E00FC0
E0FF00
FFF800
FF8000
E00000
E00000
E00000
700000
700000
700000
780000
380004
3C001C
1F007C
0FFFF0
07FFE0
00FF00
ENDCHAR
STARTCHAR 0251
ENCODING 593
SWIDTH 547 0
DWIDTH 35 0
BBX 26 33 3 -1
BITMAP
001FC000
00FFF1C0
01FFFDC0
07C01FC0
0F000FC0
0E0003C0
1C0001C0
3C0001C0
380001C0
380001C0
700001C0
700001C0
700001C0
700001C0
E00001C0
E00001C0
E00001C0
E00001C0
E00001C0
F00001C0
700001C0
700001C0
700001C0
700001C0
780001C0
380001C0
3C0003C0
1E0007C0
0F001FC0
0F803DC0
07FBF1C0
01FFE1C0
007F0000
ENDCHAR
STARTCHAR 0252
ENCODING 594
SWIDTH 547 0
DWIDTH 35 0
BBX 25 33 6 -1
BITMAP
003F8000
C0FFE000
C3FFF800
CF807C00
FE001E00
F8000E00
F0000F00
E0000700
E0000700
E0000380
E0000380
E0000380
E0000380
E0000380
E0000380
E0000380
E0000380
E0000380
E0000380
E0000380
E0000380
E0000380
E0000780
E0000700
E0000700
E0000E00
E0001E00
F0001C00
FC003800
FF00F000
CFFFE000
C3FFC000
007E0000
ENDCHAR
STARTCHAR 0253
ENCODING 595
SWIDTH 547 0
DWIDTH 35 0
BBX 25 48 6 -1
BITMAP
03F80000
0FFC0000
1FB80000
3C000000
78000000
70000000
E0000000
E0000000
E0000000
E0000000
E0000000
E0000000
E0000000
E0000000
E0000000
E03F8000
E0FFE000
E3FFF800
EF807C00
FE001E00
F8000E00
F0000F00
E0000700
E0000700
E0000380
E0000380
E0000380
E0000380
E0000380
E0000380
E0000380
E0000380
E0000380
E0000380
E0000380
E0000380
E0000380
E0000780
E0000700
E0000700
E0000E00
E0001E00
F0001C00
FC003800
FE00F000
CFFFE000
C3FFC000
007E0000
ENDCHAR
STARTCHAR 0254
ENCODING 596
SWIDTH 453 0
DWIDTH 29 0
BBX 23 33 2 -1
BITMAP
03FC00
0FFF00
3FFFC0
7803E0
7001F0
000070
000078
00003C
00001C
00001C
00001E
00000E
00000E
00000E
00000E
00000E
00000E
00000E
00000E
00000E
00000E
00000E
00000E
00001C
00001C
000038
000078
400070
E001E0
F803E0
3FFF80
1FFF00
03F800
ENDCHAR
STARTCHAR 0255
ENCODING 597
SWIDTH 453 0
DWIDTH 29 0
BBX 24 36 3 -5
BITMAP
001FC0
00FFF0
01FDFC
07C01E
0F000E
0E0004
1C0000
3C0000
380000
780000
700000
700000
700000
600000
E00000
E00000
E00000
E00000
E00000
600000
700000
7003F8
701FFC
783E1E
387807
3CF007
1FC007
0F8007
0F800E
07C01E
0FFDFC
0EFFF8
1C1FC0
1C0000
380000
380000
ENDCHAR
STARTCHAR 0256
ENCODING 598
SWIDTH 547 0
DWIDTH 35 0
BBX 32 59 3 -12
BITMAP
000001C0
000001C0
000001C0
000001C0
000001C0
000001C0
000001C0
000001C0
000001C0
000001C0
000001C0
000001C0
000001C0
000001C0
000001C0
001F81C0
00FFF1C0
01FFF9C0
07C01FC0
0F000FC0
0E0003C0
1C0001C0
3C0001C0
380001C0
380001C0
700001C0
700001C0
700001C0
700001C0
E00001C0
E00001C0
E00001C0
E00001C0
E00001C0
F00001C0
700001C0
700001C0
700001C0
700001C0
780001C0
380001C0
3C0003C0
1E0007C0
0F001FC0
0F803DC0
07FBF1C0
01FFE1C0
007F01C0
000001C0
000001C0
000001C0
000001C0
000001C0
000001C0
000001E0
000000E0
000000FF
0000007F
0000003F
ENDCHAR
STARTCHAR 0257
ENCODING 599
SWIDTH 547 0
DWIDTH 35 0
BBX 33 48 3 -1
BITMAP
0000000E00
0000003F80
0000007F80
000000F000
000000E000
000001C000
000001C000
000001C000
000001C000
000001C000
000001C000
000001C000
000001C000
000001C000
000001C000
001F81C000
00FFF1C000
01FFF9C000
07C01FC000
0F000FC000
0E0003C000
1C0001C000
3C0001C000
380001C000
380001C000
700001C000
700001C000
700001C000
700001C000
E00001C000
E00001C000
E00001C000
E00001C000
E00001C000
F00001C000
700001C000
700001C000
700001C000
700001C000
780001C000
380001C000
3C0003C000
1E0007C000
0F001FC000
0F803DC000
07FBF1C000
01FFE1C000
007F000000
ENDCHAR
STARTCHAR 0258
ENCODING 600
SWIDTH 485 0
DWIDTH 31 0
BBX 26 33 2 -1
BITMAP
007F0000
01FFE000
07F7F000
0F007800
1E003C00
1C001E00
38000E00
38000700
70000700
70000380
60000380
60000380
60000380
E0000180
E0000180
FFFFFFC0
FFFFFFC0
000001C0
00000180
00000180
00000380
00000380
00000380
00000380
00000700
00000700
00000E00
00001E00
30003C00
3C00F800
1FEFF000
0FFFC000
01FE0000
ENDCHAR
STARTCHAR 0259
ENCODING 601
SWIDTH 485 0
DWIDTH 31 0
BBX 26 33 2 -1
BITMAP
00FF0000
07FFE000
0FE7F000
3E007800
18003C00
10001E00
00000E00
00000700
00000700
00000380
00000380
00000380
00000380
00000180
00000180
000001C0
FFFFFFC0
FFFFFFC0
E0000180
E0000180
60000380
60000380
70000380
70000380
70000700
38000700
38000E00
1C001E00
1E003C00
0F007800
07F7F000
01FFE000
007F0000
ENDCHAR
STARTCHAR 025A
ENCODING 602
SWIDTH 610 0
DWIDTH 39 0
BBX 38 33 2 -1
BITMAP
00FF000000
07FFE00000
0FE7F00000
1E00780000
18003C0000
00001E0000
00000E0000
0000070000
0000070400
000003BF00
000003FF00
000003F700
00001F8300
00007FC380
0003F1C1CC
000FC1C1FC
007E01C078
01F801C000
0FC001C000
3F0001C000
FC00018000
6000038000
7000038000
7000038000
7000070000
3800070000
38000E0000
1C000E0000
0E001C0000
0780780000
03FBF00000
01FFE00000
003F800000
ENDCHAR
STARTCHAR 025B
ENCODING 603
SWIDTH 422 0
DWIDTH 27 0
BBX 23 33 3 -1
BITMAP
007F00
03FFE0
07F7F8
0F0078
1E0018
1C0000
380000
380000
380000
380000
380000
1C0000
1E0000
0F0000
07F000
01FF80
07FF80
0F8000
1C0000
380000
700000
700000
600000
E00000
E00000
700000
700000
780004
3C000C
1E003E
0FF3F8
07FFE0
00FF80
ENDCHAR
STARTCHAR 025C
ENCODING 604
SWIDTH 438 0
DWIDTH 28 0
BBX 22 33 3 -1
BITMAP
03FC00
0FFF80
3FDFC0
7801E0
3000E0
000070
000070
000070
000070
000070
000070
000070
0000E0
0003C0
003F80
07FE00
07FF80
0003E0
0000F0
000078
000038
00001C
00001C
00001C
00001C
00001C
00003C
000038
E00078
F801F0
7FBFE0
1FFF80
03FC00
ENDCHAR
STARTCHAR 025E
ENCODING 606
SWIDTH 532 0
DWIDTH 34 0
BBX 28 33 3 -1
BITMAP
007F8000
03FFF000
07F7FC00
0F003E00
1E000F00
1C000780
38000380
380003C0
380001C0
380000E0
380000E0
1C0000E0
1E0000F0
0F000070
07F00070
01FE0070
07FE0070
0F800070
1C000070
38000070
70000070
700000E0
600000E0
E00000E0
E00001C0
700001C0
70000380
78000780
3C000F00
1E003E00
0FF3FC00
03FFF000
007F8000
ENDCHAR
STARTCHAR 025F
ENCODING 607
SWIDTH 234 0
DWIDTH 15 0
BBX 17 46 -2 -15
BITMAP
00E000
00E000
00E000
00E000
00E000
00E000
00E000
00E000
00E000
00E000
00E000
00E000
00E000
00E000
3FFF80
3FFF80
00E000
00E000
00E000
00E000
00E000
00E000
00E000
00E000
00E000
00E000
00E000
00E000
00E000
00E000
00E000
00E000
00E000
00E000
00E000
00E000
00E000
00E000
00E000
00E000
00E000
00E000
01C000
77C000
FF8000
7E0000
ENDCHAR
STARTCHAR 0260
ENCODING 608
SWIDTH 547 0
DWIDTH 35 0
BBX 33 55 3 -15
BITMAP
0000001F80
0000003F80
0000007B00
000000E000
000000E000
000001C000
000001C000
000001C000
001FC1C000
00FFF1C000
03FFFDC000
07C01FC000
0F000FC000
0E0003C000
1C0001C000
3C0001C000
380001C000
780001C000
700001C000
700001C000
700001C000
700001C000
E00001C000
E00001C000
E00001C000
E00001C000
E00001C000
700001C000
700001C000
700001C000
700001C000
780001C000
380001C000
3C0003C000
1E0007C000
0F000FC000
0F803DC000
07FBF1C000
01FFE1C000
007F01C000
000001C000
000001C000
000001C000
000001C000
000001C000
000001C000
0000018000
0000038000
0000038000
0000070000
1C000F0000
1F001E0000
0FF1FC0000
03FFF00000
007FC00000
ENDCHAR
STARTCHAR 0261
ENCODING 609
SWIDTH 547 0
DWIDTH 35 0
BBX 26 47 3 -15
BITMAP
001FC000
00FFF1C0
03FFFDC0
07C01FC0
0F000FC0
0E0003C0
1C0001C0
3C0001C0
380001C0
780001C0
700001C0
700001C0
700001C0
700001C0
E00001C0
E00001C0
E00001C0
E00001C0
E00001C0
700001C0
700001C0
700001C0
700001C0
780001C0
380001C0
3C0003C0
1E0007C0
0F000FC0
0F803DC0
07FBF1C0
01FFE1C0
007F01C0
000001C0
000001C0
000001C0
000001C0
000001C0
000001C0
00000180
00000380
00000380
00000700
1C000F00
1F001E00
0FF1FC00
03FFF000
007FC000
ENDCHAR
STARTCHAR 0262
ENCODING 610
SWIDTH 485 0
DWIDTH 31 0
BBX 25 33 3 -1
BITMAP
001FE000
00FFF800
01FCFE00
07C01F00
0F000700
0E000200
1C000000
3C000000
38000000
78000000
70000000
70000000
70000000
60000000
E0000000
E0000000
E0000000
E003FF80
E003FF80
E0000380
70000380
70000380
70000380
70000380
38000380
38000380
1C000380
1E000380
0F000780
07C00F00
03FCFE00
00FFF800
001FC000
ENDCHAR
STARTCHAR 0263
ENCODING 611
SWIDTH 438 0
DWIDTH 28 0
BBX 26 45 1 -15
BITMAP
E00001C0
70000380
70000380
70000300
38000700
38000700
38000E00
1C000E00
1C000C00
0E001C00
0E001C00
0E001800
07003800
07003800
03007000
03807000
03806000
01C0E000
01C0E000
00C0C000
00E1C000
00E18000
00638000
00738000
00330000
003F0000
003E0000
001E0000
001E0000
003F0000
003F0000
00330000
00738000
00618000
00E1C000
00E1C000
00E1C000
00C0C000
00C0C000
00C0C000
00C0C000
00E1C000
00F3C000
007F8000
003E0000
ENDCHAR
STARTCHAR 0264
ENCODING 612
SWIDTH 469 0
DWIDTH 30 0
BBX 28 33 1 -1
BITMAP
3E0007E0
FF801FF0
7FE03FF0
01F07800
0078E000
003DC000
001F8000
000F0000
000F8000
001FC000
0039E000
0070F000
00E07000
01E03800
01C01C00
03801C00
03800E00
07000E00
07000700
0E000700
0E000700
0E000700
0E000300
0E000300
0E000700
0E000700
07000700
07000F00
07800E00
03C03E00
01FFFC00
00FFF000
003FC000
ENDCHAR
STARTCHAR 0265
ENCODING 613
SWIDTH 532 0
DWIDTH 34 0
BBX 23 44 5 -14
BITMAP
E0000E
E0000E
E0000E
E0000E
E0000E
E0000E
E0000E
E0000E
E0000E
E0000E
E0000E
E0000E
E0000E
E0000E
E0000E
E0000E
E0000E
E0000E
E0000E
E0000E
E0000E
60000E
70000E
70001E
70003E
78007E
3800EE
3C03CE
1FFF8E
0FFE0E
03F80E
00000E
00000E
00000E
00000E
00000E
00000E
00000E
00000E
00000E
00000E
00000E
00000E
00000E
ENDCHAR
STARTCHAR 0266
ENCODING 614
SWIDTH 532 0
DWIDTH 34 0
BBX 23 47 6 0
BITMAP
03F800
0FFC00
1FB800
3C0000
780000
700000
E00000
E00000
E00000
E00000
E00000
E00000
E00000
E00000
E00000
E03F80
E0FFE0
E3FFF0
E78078
EE0038
FC003C
F8001C
F0001C
E0001C
E0000C
E0000E
E0000E
E0000E
E0000E
E0000E
E0000E
E0000E
E0000E
E0000E
E0000E
E0000E
E0000E
E0000E
E0000E
E0000E
E0000E
E0000E
E0000E
E0000E
E0000E
E0000E
E0000E
ENDCHAR
STARTCHAR 0267
ENCODING 615
SWIDTH 532 0
DWIDTH 34 0
BBX 23 58 6 -11
BITMAP
03F800
0FFC00
1FB800
3C0000
780000
700000
E00000
E00000
E00000
E00000
E00000
E00000
E00000
E00000
E00000
E03F80
E0FFE0
E3FFF0
E78078
EE0038
FC003C
F8001C
F0001C
E0001C
E0000C
E0000E
E0000E
E0000E
E0000E
E0000E
E0000E
E0000E
E0000E
E0000E
E0000E
E0000E
E0000E
E0000E
E0000E
E0000E
E0000E
E0000E
E0000E
E0000E
E0000E
E0000E
E0000E
00000E
00000E
00000E
00000E
00000C
00000C
00001C
00001C
000838
000FF8
000FF0
ENDCHAR
STARTCHAR 0268
ENCODING 616
SWIDTH 234 0
DWIDTH 15 0
BBX 15 43 0 0
BITMAP
0380
07C0
07C0
07C0
0380
0000
0000
0000
0000
0000
0000
0000
0380
0380
0380
0380
0380
0380
0380
0380
0380
0380
0380
0380
0380
0380
FFFE
FFFE
0380
0380
0380
0380
0380
0380
0380
0380
0380
0380
0380
0380
0380
0380
0380
ENDCHAR
STARTCHAR 026A
ENCODING 618
SWIDTH 313 0
DWIDTH 20 0
BBX 14 31 3 0
BITMAP
FFFC
FFFC
0700
0700
0700
0700
0700
0700
0700
0700
0700
0700
0700
0700
0700
0700
0700
0700
0700
0700
0700
0700
0700
0700
0700
0700
0700
0700
0700
FFFC
FFFC
ENDCHAR
STARTCHAR 026C
ENCODING 620
SWIDTH 250 0
DWIDTH 16 0
BBX 16 47 0 -1
BITMAP
00E0
00E0
00E0
00E0
00E0
00E0
00E0
00E0
00E0
00E0
00E0
00E0
00E0
00E0
00E0
3EE0
7FE0
E3E0
C1E0
C0E0
E0E0
F0E0
7FFF
1FFF
00E0
00E0
00E0
00E0
00E0
00E0
00E0
00E0
00E0
00E0
00E0
00E0
00E0
00E0
00E0
00E0
00E0
00E0
00E0
00E0
00F8
0078
003C
ENDCHAR
STARTCHAR 026D
ENCODING 621
SWIDTH 234 0
DWIDTH 15 0
BBX 9 57 6 -11
BITMAP
E000
E000
E000
E000
E000
E000
E000
E000
E000
E000
E000
E000
E000
E000
E000
E000
E000
E000
E000
E000
E000
E000
E000
E000
E000
E000
E000
E000
E000
E000
E000
E000
E000
E000
E000
E000
E000
E000
E000
E000
E000
E000
E000
E000
E000
E000
E000
E000
E000
E000
E000
E000
E000
F000
7000
7F80
3F80
ENDCHAR
STARTCHAR 026E
ENCODING 622
SWIDTH 547 0
DWIDTH 35 0
BBX 27 61 6 -15
BITMAP
E0000000
E0000000
E0000000
E0000000
E0000000
E0000000
E0000000
E0000000
E0000000
E0000000
E0000000
E0000000
E0000000
E0000000
E0000000
FFFFFFC0
FFFFFFC0
E0000380
E0000380
E0000700
E0000E00
E0000E00
E0001C00
E0003800
E0007000
E0007000
E000E000
E001C000
E0018000
E0038000
E0070000
E00E0000
E00E0000
E01C0000
E0380000
E03FF000
E07FFC00
E0787E00
E0000F00
E0000780
E00003C0
E00001C0
E00000E0
E00000E0
E00000E0
E00000E0
000000E0
000000E0
000000E0
000000E0
000000E0
000000E0
000000E0
000001C0
080003C0
1C000380
1E000700
0F801E00
03FFFC00
00FFF800
003FC000
ENDCHAR
STARTCHAR 026F
ENCODING 623
SWIDTH 813 0
DWIDTH 52 0
BBX 41 31 5 -1
BITMAP
E0001C000380
E0001C000380
E0001C000380
E0001C000380
E0001C000380
E0001C000380
E0001C000380
E0001C000380
E0001C000380
E0001C000380
E0001C000380
E0001C000380
E0001C000380
E0001C000380
E0001C000380
E0001C000380
E0001C000380
E0001C000380
E0001C000380
E0001C000380
E0001C000380
60001C000380
70001C000380
70001E000380
70003E000780
78006F001F80
3801C7003B80
3C0387807380
1FFF03FFE380
0FFC01FF8180
03F0007E0000
ENDCHAR
STARTCHAR 0270
ENCODING 624
SWIDTH 813 0
DWIDTH 52 0
BBX 41 44 5 -14
BITMAP
E0001C000380
E0001C000380
E0001C000380
E0001C000380
E0001C000380
E0001C000380
E0001C000380
E0001C000380
E0001C000380
E0001C000380
E0001C000380
E0001C000380
E0001C000380
E0001C000380
E0001C000380
E0001C000380
E0001C000380
E0001C000380
E0001C000380
E0001C000380
E0001C000380
60001C000380
70001C000380
70001E000380
70003E000780
78006F001F80
3801C7003B80
3C0387807380
1FFF03FFE380
0FFC01FF8380
03F0007E0380
000000000380
000000000380
000000000380
000000000380
000000000380
000000000380
000000000380
000000000380
000000000380
000000000380
000000000380
000000000380
000000000380
ENDCHAR
STARTCHAR 0271
ENCODING 625
SWIDTH 813 0
DWIDTH 52 0
BBX 41 43 6 -11
BITMAP
003F0007E000
C0FFC01FF800
C3FFE07FFC00
C700F0E03E00
EE0071C00E00
FC007B000F00
F0003E000700
F0003C000700
E0003C000700
E0001C000700
E0001C000380
E0001C000380
E0001C000380
E0001C000380
E0001C000380
E0001C000380
E0001C000380
E0001C000380
E0001C000380
E0001C000380
E0001C000380
E0001C000380
E0001C000380
E0001C000380
E0001C000380
E0001C000380
E0001C000380
E0001C000380
E0001C000380
E0001C000380
E0001C000380
E0001C000380
000000000380
000000000380
000000000380
000000000300
000000000300
000000000700
000000000700
000000000700
000000020E00
00000003FE00
00000003FC00
ENDCHAR
STARTCHAR 0272
ENCODING 626
SWIDTH 532 0
DWIDTH 34 0
BBX 30 43 -1 -11
BITMAP
00007F00
01C1FFC0
01C7FFE0
01CF00F0
01DC0070
01F80078
01F00038
01E00038
01C00038
01C00018
01C0001C
01C0001C
01C0001C
01C0001C
01C0001C
01C0001C
01C0001C
01C0001C
01C0001C
01C0001C
01C0001C
01C0001C
01C0001C
01C0001C
01C0001C
01C0001C
01C0001C
01C0001C
01C0001C
01C0001C
01C0001C
01C0001C
01C00000
01C00000
01C00000
01C00000
01C00000
01C00000
03800000
03800000
07800000
7F000000
FE000000
ENDCHAR
STARTCHAR 0273
ENCODING 627
SWIDTH 532 0
DWIDTH 34 0
BBX 29 43 6 -11
BITMAP
003F8000
C0FFE000
C3FFF000
C7807800
EE003800
FC003C00
F8001C00
F0001C00
E0001C00
E0000C00
E0000E00
E0000E00
E0000E00
E0000E00
E0000E00
E0000E00
E0000E00
E0000E00
E0000E00
E0000E00
E0000E00
E0000E00
E0000E00
E0000E00
E0000E00
E0000E00
E0000E00
E0000E00
E0000E00
E0000E00
E0000E00
E0000E00
00000E00
00000E00
00000E00
00000E00
00000E00
00000E00
00000E00
00000E00
00000708
000007F8
000003F8
ENDCHAR
STARTCHAR 0274
ENCODING 628
SWIDTH 532 0
DWIDTH 34 0
BBX 22 31 6 0
BITMAP
E0001C
F0001C
F0001C
F8001C
DC001C
DC001C
CE001C
C6001C
C7001C
E3801C
E3801C
E1C01C
E0E01C
E0E01C
E0701C
E0301C
E0381C
E01C1C
E01C1C
E00E1C
E0071C
E0071C
E0038C
E0018C
E001CC
E000EC
E000EC
E0007C
E0003C
E0003C
E0001C
ENDCHAR
STARTCHAR 0275
ENCODING 629
SWIDTH 532 0
DWIDTH 34 0
BBX 28 33 3 -1
BITMAP
001FC000
00FFF000
03F9FC00
07C01E00
0F000F00
1E000780
1C000380
380001C0
380001C0
700000E0
700000E0
70000060
60000070
60000070
E0000070
FFFFFFF0
FFFFFFF0
E0000070
E0000070
E0000070
60000070
70000060
700000E0
700000E0
380000C0
380001C0
1C0003C0
1E000380
0F000F00
07C01E00
03F9FC00
00FFF000
003FC000
ENDCHAR
STARTCHAR 0276
ENCODING 630
SWIDTH 688 0
DWIDTH 44 0
BBX 40 33 3 -1
BITMAP
001FF00000
00FFFFFFFE
01FFFFFFFE
07C00E0000
0F800E0000
0E000E0000
1C000E0000
3C000E0000
38000E0000
78000E0000
70000E0000
70000E0000
70000E0000
70000E0000
E0000E0000
E0000FFFF0
E0000FFFF0
E0000E0000
F0000E0000
70000E0000
70000E0000
70000E0000
70000E0000
78000E0000
38000E0000
3C000E0000
1C000E0000
0E000E0000
0F800E0000
07C00E0000
01FEFFFFFF
00FFFFFFFF
001FE00000
ENDCHAR
STARTCHAR 0278
ENCODING 632
SWIDTH 641 0
DWIDTH 41 0
BBX 35 61 3 -14
BITMAP
0000E00000
0000E00000
0000E00000
0000E00000
0000E00000
0000E00000
0000E00000
0000E00000
0000E00000
0000E00000
0000E00000
0000E00000
0000E00000
0000E00000
0000E00000
0007FE0000
003FFFC000
00FEE7F000
03E0E0F800
0780E03C00
0F00E00E00
1E00E00700
1C00E00780
3800E00380
3800E001C0
7000E001C0
7000E001C0
7000E000E0
7000E000E0
E000E000E0
E000E000E0
E000E000E0
E000E000E0
E000E000E0
7000E000E0
7000E000E0
7000E001C0
7000E001C0
3800E003C0
3C00E00380
1C00E00780
1E00E00F00
0F00E01E00
0780E03C00
03E0E0F800
00FEE7F000
003FFFC000
000FFE0000
0000E00000
0000E00000
0000E00000
0000E00000
0000E00000
0000E00000
0000E00000
0000E00000
0000E00000
0000E00000
0000E00000
0000E00000
0000E00000
ENDCHAR
STARTCHAR 0279
ENCODING 633
SWIDTH 313 0
DWIDTH 20 0
BBX 14 31 0 -1
BITMAP
000C
000C
000C
000C
000C
000C
000C
000C
000C
000C
000C
000C
000C
000C
000C
000C
000C
000C
000C
000C
000C
001C
001C
003C
007C
006C
00CC
038C
FF8C
FE0C
F800
ENDCHAR
STARTCHAR 027A
ENCODING 634
SWIDTH 313 0
DWIDTH 20 0
BBX 14 47 0 -1
BITMAP
000C
000C
000C
000C
000C
000C
000C
000C
000C
000C
000C
000C
000C
000C
000C
000C
000C
000C
000C
000C
000C
000C
000C
000C
000C
000C
000C
000C
000C
000C
000C
000C
000C
000C
000C
000C
000C
001C
001C
003C
007C
006C
00CC
038C
FF8C
FE0C
F800
ENDCHAR
STARTCHAR 027B
ENCODING 635
SWIDTH 313 0
DWIDTH 20 0
BBX 21 42 0 -12
BITMAP
000C00
000C00
000C00
000C00
000C00
000C00
000C00
000C00
000C00
000C00
000C00
000C00
000C00
000C00
000C00
000C00
000C00
000C00
000C00
000C00
000C00
001C00
001C00
003C00
007C00
006C00
00CC00
038C00
FF8C00
FE0C00
F80C00
000C00
000C00
000C00
000C00
000E00
000E00
000E00
000F00
0007F8
0003F8
0001F0
ENDCHAR
STARTCHAR 027D
ENCODING 637
SWIDTH 313 0
DWIDTH 20 0
BBX 14 43 6 -11
BITMAP
007C
C1FC
C3FC
C700
CE00
FC00
F800
F000
F000
E000
E000
E000
E000
E000
E000
E000
E000
E000
E000
E000
E000
E000
E000
E000
E000
E000
E000
E000
E000
E000
E000
E000
E000
E000
E000
E000
E000
E000
E000
F000
7000
7F80
3F80
ENDCHAR
STARTCHAR 027E
ENCODING 638
SWIDTH 313 0
DWIDTH 20 0
BBX 14 31 6 1
BITMAP
03F8
0FFC
1FF8
3C00
7800
7000
7000
E000
E000
E000
E000
E000
E000
E000
E000
E000
E000
E000
E000
E000
E000
E000
E000
E000
E000
E000
E000
E000
E000
E000
E000
ENDCHAR
STARTCHAR 0280
ENCODING 640
SWIDTH 469 0
DWIDTH 30 0
BBX 21 31 6 0
BITMAP
FFFC00
FFFF80
E03FC0
E001E0
E000F0
E00070
E00078
E00038
E00038
E00038
E00070
E00070
E000F0
E001E0
E007C0
FFFF80
FFFE00
E03800
E01C00
E01C00
E00E00
E00F00
E00700
E00380
E00380
E001C0
E000E0
E000E0
E00070
E00038
E00038
ENDCHAR
STARTCHAR 0281
ENCODING 641
SWIDTH 469 0
DWIDTH 30 0
BBX 21 30 3 0
BITMAP
F00018
700018
380018
380018
1C0018
0E0018
0E0018
070018
038018
038018
01C018
00E018
00E018
03FFF8
0FFFF8
1F0018
3C0018
380018
700018
700018
700018
700018
700018
700018
700018
780018
3E0018
1FF018
0FFFF8
01FFF8
ENDCHAR
STARTCHAR 0282
ENCODING 642
SWIDTH 406 0
DWIDTH 26 0
BBX 22 44 2 -12
BITMAP
00FE00
07FFC0
0FEFE0
1E00F0
3C0020
380000
380000
300000
300000
380000
380000
3C0000
1E0000
0F8000
07F000
01FC00
007F00
000FC0
0003E0
0000F0
000078
000038
00003C
00001C
00001C
00001C
000038
400038
700070
FC00F0
FFEFE0
EFFF80
E1FE00
E00000
E00000
E00000
E00000
E00000
E00000
600000
700000
7CC000
3FE000
0FC000
ENDCHAR
STARTCHAR 0283
ENCODING 643
SWIDTH 234 0
DWIDTH 15 0
BBX 19 62 -2 -15
BITMAP
000FC0
001FE0
003EC0
007000
007000
00E000
00E000
00E000
00E000
00E000
00E000
00E000
00E000
00E000
00E000
00E000
00E000
00E000
00E000
00E000
00E000
00E000
00E000
00E000
00E000
00E000
00E000
00E000
00E000
00E000
00E000
00E000
00E000
00E000
00E000
00E000
00E000
00E000
00E000
00E000
00E000
00E000
00E000
00E000
00E000
00E000
00E000
00E000
00E000
00E000
00E000
00E000
00E000
00E000
00E000
00E000
00C000
01C000
01C000
EF8000
FF0000
7E0000
ENDCHAR
STARTCHAR 0284
ENCODING 644
SWIDTH 234 0
DWIDTH 15 0
BBX 19 62 -2 -15
BITMAP
0007E0
001FE0
003FE0
007800
007000
007000
00E000
00E000
00E000
00E000
00E000
00E000
00E000
00E000
00E000
00E000
00E000
00E000
00E000
00E000
00E000
00E000
00E000
00E000
00E000
00E000
00E000
00E000
00E000
00E000
3FFF80
3FFF80
00E000
00E000
00E000
00E000
00E000
00E000
00E000
00E000
00E000
00E000
00E000
00E000
00E000
00E000
00E000
00E000
00E000
00E000
00E000
00E000
00E000
00E000
00E000
00E000
00E000
00E000
01C000
77C000
FF8000
7E0000
ENDCHAR
STARTCHAR 0288
ENCODING 648
SWIDTH 313 0
DWIDTH 20 0
BBX 17 51 2 -11
BITMAP
060000
060000
060000
060000
060000
060000
060000
060000
060000
FFFF00
FFFF00
060000
060000
060000
060000
060000
060000
060000
060000
060000
060000
060000
060000
060000
060000
060000
060000
060000
060000
060000
060000
060000
060000
060000
060000
060000
060000
060000
060000
060000
060000
060000
060000
070000
070000
070000
070000
078000
03C180
01FF80
00FF80
ENDCHAR
STARTCHAR 0289
ENCODING 649
SWIDTH 547 0
DWIDTH 35 0
BBX 34 32 0 -1
BITMAP
0380003800
0380003800
0380003800
0380003800
0380003800
0380003800
0380003800
0380003800
0380003800
0380003800
0380003800
0380003800
FFFFFFFFC0
FFFFFFFFC0
0380003800
0380003800
0380003800
0380003800
0380003800
0380003800
0380003800
0380003800
0380003800
01C0003800
01C0007800
01C000F800
01E001F800
00E003B800
00F00F3800
007FFC3800
003FF83800
000FE00000
ENDCHAR
STARTCHAR 028A
ENCODING 650
SWIDTH 532 0
DWIDTH 34 0
BBX 28 32 3 -1
BITMAP
FFC07FF0
FFC07FF0
01C03800
03801C00
07000E00
0E000700
1C000380
1C000380
380001C0
380001C0
300000E0
700000E0
700000E0
700000E0
700000E0
60000070
E0000070
E0000070
70000070
700000E0
700000E0
700000E0
700000E0
380001C0
380001C0
1C000380
1E000780
0F000F00
07C01E00
03FFFC00
00FFF000
003FC000
ENDCHAR
STARTCHAR 028B
ENCODING 651
SWIDTH 516 0
DWIDTH 33 0
BBX 24 33 5 -1
BITMAP
0007E0
E007F8
E006FC
E0003C
E0001E
E0000E
E0000F
E00007
E00007
E00007
E00007
E00007
E00007
E00007
E00007
E00007
E00007
E00007
E00007
E00007
E00007
E00007
70000E
70000E
70001E
70001C
38003C
380038
1C0070
1F01E0
0FFFC0
03FF80
00FE00
ENDCHAR
STARTCHAR 028C
ENCODING 652
SWIDTH 438 0
DWIDTH 28 0
BBX 26 31 1 0
BITMAP
001E0000
001E0000
003E0000
00370000
00730000
00738000
00638000
00E18000
00E1C000
00C1C000
01C0C000
01C0E000
0380E000
03807000
03007000
07007000
07003800
06003800
0E003800
0E001C00
0C001C00
1C000E00
1C000E00
38000E00
38000700
30000700
70000700
70000380
60000380
E00003C0
E00001C0
ENDCHAR
STARTCHAR 028D
ENCODING 653
SWIDTH 688 0
DWIDTH 44 0
BBX 40 31 2 0
BITMAP
00F0000E00
00F0001F00
00F8001F00
01D8001B00
01D8003B00
019C003B80
039C003380
038C003180
030C0071C0
030E0061C0
070E0060C0
07060060E0
060700E0E0
0E0700C0E0
0E0700C060
0E0301C070
0C0381C070
1C03818070
1C01818038
1801C38038
3801C30038
3801C30018
3800C7001C
3000E7001C
7000E6001C
700066000E
70006E000E
60007C000E
E0007C000F
E0003C0007
E0003C0007
ENDCHAR
STARTCHAR 028E
ENCODING 654
SWIDTH 438 0
DWIDTH 28 0
BBX 26 47 1 0
BITMAP
00000FC0
00003FC0
00007FC0
0000F000
0001E000
0001C000
00038000
00030000
00070000
00060000
000E0000
000E0000
000C0000
001C0000
001C0000
001C0000
003C0000
003C0000
003E0000
00760000
00670000
00670000
00E30000
00C38000
00C38000
01C1C000
0181C000
0380C000
0380E000
0300E000
07007000
07007000
06003000
0E003800
0E003800
0C001C00
1C001C00
1C001C00
18000E00
38000E00
38000700
30000700
70000700
70000380
60000380
E00001C0
E00001C0
ENDCHAR
STARTCHAR 028F
ENCODING 655
SWIDTH 391 0
DWIDTH 25 0
BBX 24 31 0 0
BITMAP
E00007
700007
70000E
38000E
38001C
1C001C
0C0038
0E0038
070070
070060
0380E0
0380C0
01C1C0
01C180
00E380
00E700
007700
003E00
003E00
001C00
001C00
001C00
001C00
001C00
001C00
001C00
001C00
001C00
001C00
001C00
001C00
ENDCHAR
STARTCHAR 0290
ENCODING 656
SWIDTH 406 0
DWIDTH 26 0
BBX 28 42 2 -11
BITMAP
3FFFFC00
3FFFF800
00003800
00007000
0000E000
0000E000
0001C000
00038000
00038000
00070000
000E0000
000E0000
001C0000
00380000
00380000
00700000
00E00000
00E00000
01C00000
03800000
03800000
07000000
0E000000
0E000000
1C000000
38000000
38000000
70000000
E0000000
FFFFFC00
FFFFFC00
00001C00
00001C00
00001C00
00001C00
00001C00
00001C00
00001C00
00001C00
00000E10
00000FF0
000007F0
ENDCHAR
STARTCHAR 0291
ENCODING 657
SWIDTH 422 0
DWIDTH 27 0
BBX 26 36 2 -5
BITMAP
3FFFF800
3FFFF800
00003800
00007000
0000E000
0000E000
0001C000
00038000
00038000
00070000
000E0000
000E0000
001C0000
00380000
00380000
00700000
00E00000
00E00000
01C00000
03803E00
0380FF00
0701E380
0E038180
0E0301C0
1C0601C0
38060180
380C0380
700C0780
E0183F00
FFFFFE00
FFFFF000
00300000
00300000
00300000
00700000
00600000
ENDCHAR
STARTCHAR 0292
ENCODING 658
SWIDTH 406 0
DWIDTH 26 0
BBX 25 46 0 -15
BITMAP
1FFFFE00
1FFFFE00
00000E00
00001C00
00003800
00003800
00007000
0000E000
0001C000
0001C000
00038000
00070000
00070000
000E0000
001C0000
00380000
00380000
00700000
00E00000
00C00000
01FF8000
03FFE000
01E3F800
00007C00
00001E00
00000E00
00000F00
00000700
00000700
00000380
00000380
00000380
00000380
00000380
00000380
00000700
00000700
00000700
00000F00
00000E00
60001C00
F8003C00
3E00F800
1FFFF000
07FFC000
00FF0000
ENDCHAR
STARTCHAR 0294
ENCODING 660
SWIDTH 406 0
DWIDTH 26 0
BBX 24 47 0 0
BITMAP
00FF00
07FFE0
0FFFF0
3E0078
78003C
F0001E
60000E
00000F
000007
000007
000007
000007
000007
000007
000007
000007
00000E
00000E
00001C
00003C
000038
0000F0
0001E0
0003C0
000F80
003F00
003C00
003800
003800
003800
003800
003800
003800
003800
003800
003800
003800
003800
003800
003800
003800
003800
003800
003800
003800
003800
003800
ENDCHAR
STARTCHAR 0295
ENCODING 661
SWIDTH 406 0
DWIDTH 26 0
BBX 24 47 2 0
BITMAP
00FF00
03FFE0
0FFFF0
1E007C
3C001E
78000F
700006
E00000
E00000
E00000
E00000
C00000
E00000
E00000
E00000
E00000
E00000
700000
780000
380000
3C0000
1E0000
0F8000
07C000
01F000
00F800
007C00
001C00
001C00
001C00
001C00
001C00
001C00
001C00
001C00
001C00
001C00
001C00
001C00
001C00
001C00
001C00
001C00
001C00
001C00
001C00
001C00
ENDCHAR
STARTCHAR 0298
ENCODING 664
SWIDTH 500 0
DWIDTH 32 0
BBX 24 48 4 -1
BITMAP
007E00
01FF80
03FFC0
0781E0
0F0070
0E0078
1C0038
1C001C
38001C
38001C
38000E
70000E
70000E
700006
700007
700007
600007
600007
E00007
E00007
E00007
E01807
E03C07
E03E07
E03C07
E01C07
E00007
E00007
E00007
E00007
600007
600007
700007
700007
700006
70000E
70000E
38000E
38000E
38001C
1C001C
1C0038
0E0038
0F0070
0780F0
03FFE0
01FF80
007E00
ENDCHAR
STARTCHAR 0299
ENCODING 665
SWIDTH 500 0
DWIDTH 32 0
BBX 23 31 6 0
BITMAP
FFFF00
FFFFC0
E00FF0
E000F8
E00038
E00038
E0001C
E0001C
E0001C
E00018
E00038
E00078
E000F0
E00FE0
FFFF80
FFFFE0
E001F0
E00078
E0001C
E0001E
E0000E
E0000E
E0000E
E0000E
E0000E
E0001C
E0003C
E00078
E007F0
FFFFE0
FFFF00
ENDCHAR
STARTCHAR 029C
ENCODING 668
SWIDTH 547 0
DWIDTH 35 0
BBX 23 31 6 0
BITMAP
E0000E
E0000E
E0000E
E0000E
E0000E
E0000E
E0000E
E0000E
E0000E
E0000E
E0000E
E0000E
E0000E
FFFFFE
FFFFFE
FFFFFE
E0000E
E0000E
E0000E
E0000E
E0000E
E0000E
E0000E
E0000E
E0000E
E0000E
E0000E
E0000E
E0000E
E0000E
E0000E
ENDCHAR
STARTCHAR 029D
ENCODING 669
SWIDTH 234 0
DWIDTH 15 0
BBX 22 61 -7 -19
BITMAP
000780
000780
000FC0
000780
000780
000000
000000
000000
000000
000000
000000
000000
000000
000300
000300
000300
000300
000300
000300
000300
000300
000300
000300
000300
000300
000300
000300
000300
000300
000300
000300
000300
000300
000300
000300
000300
000300
000300
000300
000300
000300
000300
000300
000300
000300
000300
000300
0FC300
3FF700
7C7F00
701F00
E00F00
E00F80
600FC0
701DE0
3EFCE0
1FF070
0FC078
000038
00001C
00000C
ENDCHAR
STARTCHAR 029F
ENCODING 671
SWIDTH 406 0
DWIDTH 26 0
BBX 18 31 6 0
BITMAP
E00000
E00000
E00000
E00000
E00000
E00000
E00000
E00000
E00000
E00000
E00000
E00000
E00000
E00000
E00000
E00000
E00000
E00000
E00000
E00000
E00000
E00000
E00000
E00000
E00000
E00000
E00000
E00000
E00000
FFFFC0
FFFFC0
ENDCHAR
STARTCHAR 02A1
ENCODING 673
SWIDTH 422 0
DWIDTH 27 0
BBX 26 47 0 0
BITMAP
007F8000
03FFE000
0FFFF800
1F003C00
3C001E00
78000F00
30000700
00000700
00000380
00000380
00000380
00000380
00000380
00000380
00000380
00000380
00000700
00000700
00000E00
00001E00
00001C00
00003800
00007000
0001E000
0003C000
000F0000
FFFFFFC0
FFFFFFC0
00180000
00180000
00180000
00180000
00180000
00180000
00180000
00180000
00180000
00180000
00180000
00180000
00180000
00180000
00180000
00180000
00180000
00180000
00180000
ENDCHAR
STARTCHAR 02A2
ENCODING 674
SWIDTH 422 0
DWIDTH 27 0
BBX 26 47 1 0
BITMAP
003FC000
01FFF000
07FFFC00
0F803E00
1E000F00
3C000780
38000300
38000000
70000000
70000000
70000000
70000000
70000000
70000000
70000000
70000000
38000000
38000000
1C000000
1E000000
0E000000
07000000
03800000
01E00000
00F00000
007C0000
FFFFFFC0
FFFFFFC0
000E0000
000E0000
000E0000
000E0000
000E0000
000E0000
000E0000
000E0000
000E0000
000E0000
000E0000
000E0000
000E0000
000E0000
000E0000
000E0000
000E0000
000E0000
000E0000
ENDCHAR
STARTCHAR 02B0
ENCODING 688
SWIDTH 360 0
DWIDTH 23 0
BBX 16 30 4 26
BITMAP
C000
C000
C000
C000
C000
C000
C000
C000
C000
C1F0
C7FC
DC3C
F80E
E006
C006
C007
C007
C007
C007
C007
C007
C007
C007
C007
C007
C007
C007
C007
C007
C007
ENDCHAR
STARTCHAR 02B2
ENCODING 690
SWIDTH 156 0
DWIDTH 10 0
BBX 8 39 -1 16
BITMAP
06
0F
0F
06
00
00
00
00
00
06
06
06
06
06
06
06
06
06
06
06
06
06
06
06
06
06
06
06
06
06
06
06
06
06
06
0E
0E
FC
F8
ENDCHAR
STARTCHAR 02B3
ENCODING 691
SWIDTH 219 0
DWIDTH 14 0
BBX 10 21 4 26
BITMAP
03C0
CFC0
DE40
D800
F000
E000
E000
C000
C000
C000
C000
C000
C000
C000
C000
C000
C000
C000
C000
C000
C000
ENDCHAR
STARTCHAR 02B7
ENCODING 695
SWIDTH 469 0
DWIDTH 30 0
BBX 28 20 1 26
BITMAP
E00E0070
E00F0060
600F0060
700F00E0
701B00C0
301980C0
301980C0
381981C0
1830C180
1830C180
1830C180
1C60C300
0C606300
0C606300
0C606600
06C03600
06C03600
06C03600
07803C00
03801C00
ENDCHAR
STARTCHAR 02B8
ENCODING 696
SWIDTH 297 0
DWIDTH 19 0
BBX 17 29 1 17
BITMAP
C00180
E00180
600380
600300
700300
300700
380600
180600
180E00
1C0C00
0C0C00
0E1800
061800
061800
033000
033000
03B000
01E000
01E000
00E000
00C000
00C000
01C000
018000
038000
070000
0E0000
FC0000
F80000
ENDCHAR
STARTCHAR 02B9
ENCODING 697
SWIDTH 219 0
DWIDTH 14 0
BBX 4 13 5 31
BITMAP
30
70
70
70
70
70
60
60
60
60
E0
C0
C0
ENDCHAR
STARTCHAR 02BB
ENCODING 699
SWIDTH 219 0
DWIDTH 14 0
BBX 6 14 4 31
BITMAP
0C
1C
38
70
60
E0
C0
C0
C0
F0
F8
F8
F8
70
ENDCHAR
STARTCHAR 02BC
ENCODING 700
SWIDTH 219 0
DWIDTH 14 0
BBX 6 14 4 31
BITMAP
38
7C
7C
7C
3C
0C
0C
0C
1C
18
38
70
E0
C0
ENDCHAR
STARTCHAR 02BE
ENCODING 702
SWIDTH 156 0
DWIDTH 10 0
BBX 7 13 2 35
BITMAP
80
F8
1C
0E
06
06
06
06
06
0C
1C
F8
C0
ENDCHAR
STARTCHAR 02BF
ENCODING 703
SWIDTH 156 0
DWIDTH 10 0
BBX 7 13 1 35
BITMAP
02
1E
70
60
E0
C0
C0
C0
E0
60
70
1E
06
ENDCHAR
STARTCHAR 02C1
ENCODING 705
SWIDTH 281 0
DWIDTH 18 0
BBX 16 31 1 26
BITMAP
07F0
1FFC
3C1E
7007
7003
6000
E000
E000
E000
E000
E000
7000
7000
3800
1C00
0F00
0780
03C0
00C0
00C0
00C0
00C0
00C0
00C0
00C0
00C0
00C0
00C0
00C0
00C0
00C0
ENDCHAR
STARTCHAR 02C6
ENCODING 710
SWIDTH 532 0
DWIDTH 34 0
BBX 17 11 9 36
BITMAP
03C000
07E000
07E000
0E7000
1C3800
381C00
700E00
600600
C00300
C00180
000100
ENDCHAR
STARTCHAR 02C7
ENCODING 711
SWIDTH 532 0
DWIDTH 34 0
BBX 18 10 8 37
BITMAP
400080
E001C0
700380
380700
1C0E00
0E1C00
0F1C00
073800
03F000
01E000
ENDCHAR
STARTCHAR 02C8
ENCODING 712
SWIDTH 93 0
DWIDTH 6 0
BBX 2 12 2 34
BITMAP
C0
C0
C0
C0
C0
C0
C0
C0
C0
C0
C0
C0
ENDCHAR
STARTCHAR 02C9
ENCODING 713
SWIDTH 266 0
DWIDTH 17 0
BBX 16 2 0 39
BITMAP
FFFF
FFFF
ENDCHAR
STARTCHAR 02CA
ENCODING 714
SWIDTH 219 0
DWIDTH 14 0
BBX 10 11 4 37
BITMAP
0080
01C0
03C0
0780
0F00
1E00
3C00
3800
7000
E000
C000
ENDCHAR
STARTCHAR 02CB
ENCODING 715
SWIDTH 219 0
DWIDTH 14 0
BBX 10 11 0 37
BITMAP
4000
E000
F000
7800
3C00
1C00
0E00
0700
0380
01C0
00C0
ENDCHAR
STARTCHAR 02CC
ENCODING 716
SWIDTH 93 0
DWIDTH 6 0
BBX 2 12 2 -17
BITMAP
C0
C0
C0
C0
C0
C0
C0
C0
C0
C0
C0
C0
ENDCHAR
STARTCHAR 02D0
ENCODING 720
SWIDTH 219 0
DWIDTH 14 0
BBX 6 29 4 0
BITMAP
FC
FC
78
78
70
30
30
00
00
00
00
00
00
00
00
00
00
00
00
00
00
00
00
30
30
78
78
FC
FC
ENDCHAR
STARTCHAR 02D1
ENCODING 721
SWIDTH 219 0
DWIDTH 14 0
BBX 6 6 4 16
BITMAP
FC
FC
78
78
30
30
ENDCHAR
STARTCHAR 02D8
ENCODING 728
SWIDTH 532 0
DWIDTH 34 0
BBX 18 10 8 37
BITMAP
400080
C000C0
C000C0
E000C0
6001C0
700380
380700
3E0F00
0FFE00
07F800
ENDCHAR
STARTCHAR 02D9
ENCODING 729
SWIDTH 532 0
DWIDTH 34 0
BBX 4 5 15 38
BITMAP
F0
F0
F0
F0
70
ENDCHAR
STARTCHAR 02DA
ENCODING 730
SWIDTH 532 0
DWIDTH 34 0
BBX 12 13 11 35
BITMAP
0600
3FC0
70E0
6070
C030
C030
C030
C030
C030
6070
70E0
3FC0
0600
ENDCHAR
STARTCHAR 02DB
ENCODING 731
SWIDTH 532 0
DWIDTH 34 0
BBX 9 13 14 -13
BITMAP
1C00
3800
3000
6000
E000
C000
C000
C000
C000
E000
F100
7F80
3E00
ENDCHAR
STARTCHAR 02DC
ENCODING 732
SWIDTH 532 0
DWIDTH 34 0
BBX 21 8 7 37
BITMAP
1F0038
3F8030
71C030
E0E030
C07070
C03CE0
C01FC0
C00780
ENDCHAR
STARTCHAR 02DD
ENCODING 733
SWIDTH 532 0
DWIDTH 34 0
BBX 16 11 12 36
BITMAP
0602
0707
0E07
0E0E
1C0E
181C
3818
3038
7030
6070
C060
ENDCHAR
STARTCHAR 02DE
ENCODING 734
SWIDTH 125 0
DWIDTH 8 0
BBX 14 9 -5 15
BITMAP
0200
1F00
7F00
FF00
C300
0380
0184
01FC
00F8
ENDCHAR
STARTCHAR 02E0
ENCODING 736
SWIDTH 297 0
DWIDTH 19 0
BBX 17 30 1 16
BITMAP
C00180
E00380
600300
600300
700700
300600
300600
180C00
180C00
1C1C00
0C1800
0C1800
063000
063000
073000
036000
036000
01E000
01C000
01E000
036000
037000
063000
063000
063800
063800
063000
063000
07F000
01C000
ENDCHAR
STARTCHAR 02E1
ENCODING 737
SWIDTH 156 0
DWIDTH 10 0
BBX 4 31 4 25
BITMAP
C0
C0
C0
C0
C0
C0
C0
C0
C0
C0
C0
C0
C0
C0
C0
C0
C0
C0
C0
C0
C0
C0
C0
C0
C0
C0
C0
C0
C0
F0
70
ENDCHAR
STARTCHAR 02E2
ENCODING 738
SWIDTH 281 0
DWIDTH 18 0
BBX 14 21 2 26
BITMAP
0FC0
3FF0
7838
6010
E000
E000
6000
7000
3C00
1F80
07E0
01F8
0078
001C
000C
000C
000C
C01C
F038
7FF0
0FC0
ENDCHAR
STARTCHAR 02E3
ENCODING 739
SWIDTH 281 0
DWIDTH 18 0
BBX 16 20 1 26
BITMAP
E007
700E
380C
381C
1C18
0E30
0E70
0760
03C0
03C0
03C0
07E0
0660
0C70
1C38
1818
381C
700E
6006
E007
ENDCHAR
STARTCHAR 0300
ENCODING 768
SWIDTH 0 0
DWIDTH 0 0
BBX 10 11 -7 37
BITMAP
4000
E000
F000
7800
3C00
1E00
0E00
0700
0380
01C0
00C0
ENDCHAR
STARTCHAR 0301
ENCODING 769
SWIDTH 0 0
DWIDTH 0 0
BBX 10 11 -3 37
BITMAP
0080
01C0
03C0
0780
0F00
1E00
1C00
3800
7000
E000
C000
ENDCHAR
STARTCHAR 0302
ENCODING 770
SWIDTH 0 0
DWIDTH 0 0
BBX 18 10 -9 36
BITMAP
01E000
03F000
03F000
073800
0E1C00
1C0E00
380700
300300
600180
E001C0
ENDCHAR
STARTCHAR 0303
ENCODING 771
SWIDTH 0 0
DWIDTH 0 0
BBX 20 8 -10 37
BITMAP
1F0030
7F8030
71C030
E0E030
C07070
C03CE0
C01FC0
C00780
ENDCHAR
STARTCHAR 0304
ENCODING 772
SWIDTH 0 0
DWIDTH 0 0
BBX 16 2 -8 39
BITMAP
FFFF
FFFF
ENDCHAR
STARTCHAR 0305
ENCODING 773
SWIDTH 0 0
DWIDTH 0 0
BBX 16 2 -8 39
BITMAP
FFFF
FFFF
ENDCHAR
STARTCHAR 0306
ENCODING 774
SWIDTH 0 0
DWIDTH 0 0
BBX 18 10 -9 37
BITMAP
400080
C000C0
C000C0
E000C0
E001C0
700380
380700
3C0F00
1FFC00
07F800
ENDCHAR
STARTCHAR 0307
ENCODING 775
SWIDTH 0 0
DWIDTH 0 0
BBX 4 5 -2 38
BITMAP
F0
F0
F0
F0
E0
ENDCHAR
STARTCHAR 0308
ENCODING 776
SWIDTH 0 0
DWIDTH 0 0
BBX 16 5 -8 38
BITMAP
700E
F80F
F81F
F00F
6006
ENDCHAR
STARTCHAR 0309
ENCODING 777
SWIDTH 0 0
DWIDTH 0 0
BBX 7 10 -3 37
BITMAP
F0
FC
1E
0E
06
06
06
0E
7C
70
ENDCHAR
STARTCHAR 030A
ENCODING 778
SWIDTH 0 0
DWIDTH 0 0
BBX 12 13 -6 35
BITMAP
0600
3FC0
70E0
6070
C030
C030
C030
C030
C030
E070
70E0
3FC0
0600
ENDCHAR
STARTCHAR 030B
ENCODING 779
SWIDTH 0 0
DWIDTH 0 0
BBX 16 11 -5 36
BITMAP
0402
0707
0E07
0C0E
1C0C
181C
3818
3038
7030
6070
C060
ENDCHAR
STARTCHAR 030C
ENCODING 780
SWIDTH 0 0
DWIDTH 0 0
BBX 18 10 -9 37
BITMAP
400080
E001C0
700380
380700
1C0E00
0E1C00
0F3C00
073800
03F000
01E000
ENDCHAR
STARTCHAR 030F
ENCODING 783
SWIDTH 0 0
DWIDTH 0 0
BBX 16 11 -11 36
BITMAP
4060
E0E0
E070
7070
3038
3818
181C
1C0C
0C0E
0E06
0603
ENDCHAR
STARTCHAR 0311
ENCODING 785
SWIDTH 0 0
DWIDTH 0 0
BBX 18 10 -9 36
BITMAP
03F000
0FFC00
1E1F00
380700
700380
6001C0
E001C0
C000C0
C000C0
C000C0
ENDCHAR
STARTCHAR 0312
ENCODING 786
SWIDTH 0 0
DWIDTH 0 0
BBX 6 11 -3 35
BITMAP
08
1C
30
60
60
C0
C0
F8
F8
78
70
ENDCHAR
STARTCHAR 0313
ENCODING 787
SWIDTH 0 0
DWIDTH 0 0
BBX 6 11 -3 35
BITMAP
38
78
7C
7C
0C
0C
18
18
30
E0
40
ENDCHAR
STARTCHAR 0318
ENCODING 792
SWIDTH 0 0
DWIDTH 0 0
BBX 9 12 -4 -16
BITMAP
0180
0180
0180
0180
0180
FF80
FF80
0180
0180
0180
0180
0180
ENDCHAR
STARTCHAR 0319
ENCODING 793
SWIDTH 0 0
DWIDTH 0 0
BBX 9 12 -5 -16
BITMAP
C000
C000
C000
C000
C000
FF80
FF80
C000
C000
C000
C000
C000
ENDCHAR
STARTCHAR 031A
ENCODING 794
SWIDTH 0 0
DWIDTH 0 0
BBX 9 9 -4 36
BITMAP
FF80
FF80
0180
0180
0180
0180
0180
0180
0180
ENDCHAR
STARTCHAR 031B
ENCODING 795
SWIDTH 0 0
DWIDTH 0 0
BBX 8 12 0 28
BITMAP
06
07
07
07
07
07
07
06
0E
3C
F0
C0
ENDCHAR
STARTCHAR 031C
ENCODING 796
SWIDTH 0 0
DWIDTH 0 0
BBX 7 13 -4 -17
BITMAP
02
1E
38
60
E0
C0
C0
C0
E0
60
78
1E
06
ENDCHAR
STARTCHAR 031D
ENCODING 797
SWIDTH 0 0
DWIDTH 0 0
BBX 12 9 -6 -13
BITMAP
0600
0600
0600
0600
0600
0600
0600
FFF0
FFF0
ENDCHAR
ENDFONT
